<?xml version="1.0" encoding="utf-8"?>
<svg xmlns="http://www.w3.org/2000/svg" xmlns:xlink="http://www.w3.org/1999/xlink" width="600" height="400" viewBox="0 0 2400 1600">
<defs>
  <clipPath id="clip250">
    <rect x="0" y="0" width="2400" height="1600"/>
  </clipPath>
</defs>
<path clip-path="url(#clip250)" d="M0 1600 L2400 1600 L2400 8.88178e-14 L0 8.88178e-14  Z" fill="#ffffff" fill-rule="evenodd" fill-opacity="1"/>
<defs>
  <clipPath id="clip251">
    <rect x="480" y="0" width="1681" height="1600"/>
  </clipPath>
</defs>
<path clip-path="url(#clip250)" d="M239.19 1486.45 L2352.76 1486.45 L2352.76 47.2441 L239.19 47.2441  Z" fill="#ffffff" fill-rule="evenodd" fill-opacity="1"/>
<defs>
  <clipPath id="clip252">
    <rect x="239" y="47" width="2115" height="1440"/>
  </clipPath>
</defs>
<polyline clip-path="url(#clip252)" style="stroke:#000000; stroke-linecap:round; stroke-linejoin:round; stroke-width:2; stroke-opacity:0.1; fill:none" points="298.035,1486.45 298.035,47.2441 "/>
<polyline clip-path="url(#clip252)" style="stroke:#000000; stroke-linecap:round; stroke-linejoin:round; stroke-width:2; stroke-opacity:0.1; fill:none" points="784.834,1486.45 784.834,47.2441 "/>
<polyline clip-path="url(#clip252)" style="stroke:#000000; stroke-linecap:round; stroke-linejoin:round; stroke-width:2; stroke-opacity:0.1; fill:none" points="1271.63,1486.45 1271.63,47.2441 "/>
<polyline clip-path="url(#clip252)" style="stroke:#000000; stroke-linecap:round; stroke-linejoin:round; stroke-width:2; stroke-opacity:0.1; fill:none" points="1758.43,1486.45 1758.43,47.2441 "/>
<polyline clip-path="url(#clip252)" style="stroke:#000000; stroke-linecap:round; stroke-linejoin:round; stroke-width:2; stroke-opacity:0.1; fill:none" points="2245.23,1486.45 2245.23,47.2441 "/>
<polyline clip-path="url(#clip252)" style="stroke:#000000; stroke-linecap:round; stroke-linejoin:round; stroke-width:2; stroke-opacity:0.1; fill:none" points="239.19,1429.8 2352.76,1429.8 "/>
<polyline clip-path="url(#clip252)" style="stroke:#000000; stroke-linecap:round; stroke-linejoin:round; stroke-width:2; stroke-opacity:0.1; fill:none" points="239.19,1098.33 2352.76,1098.33 "/>
<polyline clip-path="url(#clip252)" style="stroke:#000000; stroke-linecap:round; stroke-linejoin:round; stroke-width:2; stroke-opacity:0.1; fill:none" points="239.19,766.846 2352.76,766.846 "/>
<polyline clip-path="url(#clip252)" style="stroke:#000000; stroke-linecap:round; stroke-linejoin:round; stroke-width:2; stroke-opacity:0.1; fill:none" points="239.19,435.367 2352.76,435.367 "/>
<polyline clip-path="url(#clip252)" style="stroke:#000000; stroke-linecap:round; stroke-linejoin:round; stroke-width:2; stroke-opacity:0.1; fill:none" points="239.19,103.887 2352.76,103.887 "/>
<polyline clip-path="url(#clip250)" style="stroke:#000000; stroke-linecap:round; stroke-linejoin:round; stroke-width:4; stroke-opacity:1; fill:none" points="239.19,1486.45 2352.76,1486.45 "/>
<polyline clip-path="url(#clip250)" style="stroke:#000000; stroke-linecap:round; stroke-linejoin:round; stroke-width:4; stroke-opacity:1; fill:none" points="298.035,1486.45 298.035,1467.55 "/>
<polyline clip-path="url(#clip250)" style="stroke:#000000; stroke-linecap:round; stroke-linejoin:round; stroke-width:4; stroke-opacity:1; fill:none" points="784.834,1486.45 784.834,1467.55 "/>
<polyline clip-path="url(#clip250)" style="stroke:#000000; stroke-linecap:round; stroke-linejoin:round; stroke-width:4; stroke-opacity:1; fill:none" points="1271.63,1486.45 1271.63,1467.55 "/>
<polyline clip-path="url(#clip250)" style="stroke:#000000; stroke-linecap:round; stroke-linejoin:round; stroke-width:4; stroke-opacity:1; fill:none" points="1758.43,1486.45 1758.43,1467.55 "/>
<polyline clip-path="url(#clip250)" style="stroke:#000000; stroke-linecap:round; stroke-linejoin:round; stroke-width:4; stroke-opacity:1; fill:none" points="2245.23,1486.45 2245.23,1467.55 "/>
<path clip-path="url(#clip250)" d="M298.035 1517.37 Q294.424 1517.37 292.595 1520.93 Q290.789 1524.47 290.789 1531.6 Q290.789 1538.71 292.595 1542.27 Q294.424 1545.82 298.035 1545.82 Q301.669 1545.82 303.474 1542.27 Q305.303 1538.71 305.303 1531.6 Q305.303 1524.47 303.474 1520.93 Q301.669 1517.37 298.035 1517.37 M298.035 1513.66 Q303.845 1513.66 306.9 1518.27 Q309.979 1522.85 309.979 1531.6 Q309.979 1540.33 306.9 1544.94 Q303.845 1549.52 298.035 1549.52 Q292.225 1549.52 289.146 1544.94 Q286.09 1540.33 286.09 1531.6 Q286.09 1522.85 289.146 1518.27 Q292.225 1513.66 298.035 1513.66 Z" fill="#000000" fill-rule="nonzero" fill-opacity="1" /><path clip-path="url(#clip250)" d="M744.452 1514.29 L762.809 1514.29 L762.809 1518.22 L748.735 1518.22 L748.735 1526.7 Q749.753 1526.35 750.772 1526.19 Q751.79 1526 752.809 1526 Q758.596 1526 761.975 1529.17 Q765.355 1532.34 765.355 1537.76 Q765.355 1543.34 761.883 1546.44 Q758.41 1549.52 752.091 1549.52 Q749.915 1549.52 747.647 1549.15 Q745.401 1548.78 742.994 1548.04 L742.994 1543.34 Q745.077 1544.47 747.299 1545.03 Q749.522 1545.58 751.998 1545.58 Q756.003 1545.58 758.341 1543.48 Q760.679 1541.37 760.679 1537.76 Q760.679 1534.15 758.341 1532.04 Q756.003 1529.94 751.998 1529.94 Q750.123 1529.94 748.248 1530.35 Q746.397 1530.77 744.452 1531.65 L744.452 1514.29 Z" fill="#000000" fill-rule="nonzero" fill-opacity="1" /><path clip-path="url(#clip250)" d="M784.568 1517.37 Q780.957 1517.37 779.128 1520.93 Q777.322 1524.47 777.322 1531.6 Q777.322 1538.71 779.128 1542.27 Q780.957 1545.82 784.568 1545.82 Q788.202 1545.82 790.008 1542.27 Q791.836 1538.71 791.836 1531.6 Q791.836 1524.47 790.008 1520.93 Q788.202 1517.37 784.568 1517.37 M784.568 1513.66 Q790.378 1513.66 793.433 1518.27 Q796.512 1522.85 796.512 1531.6 Q796.512 1540.33 793.433 1544.94 Q790.378 1549.52 784.568 1549.52 Q778.758 1549.52 775.679 1544.94 Q772.623 1540.33 772.623 1531.6 Q772.623 1522.85 775.679 1518.27 Q778.758 1513.66 784.568 1513.66 Z" fill="#000000" fill-rule="nonzero" fill-opacity="1" /><path clip-path="url(#clip250)" d="M814.73 1517.37 Q811.119 1517.37 809.29 1520.93 Q807.484 1524.47 807.484 1531.6 Q807.484 1538.71 809.29 1542.27 Q811.119 1545.82 814.73 1545.82 Q818.364 1545.82 820.169 1542.27 Q821.998 1538.71 821.998 1531.6 Q821.998 1524.47 820.169 1520.93 Q818.364 1517.37 814.73 1517.37 M814.73 1513.66 Q820.54 1513.66 823.595 1518.27 Q826.674 1522.85 826.674 1531.6 Q826.674 1540.33 823.595 1544.94 Q820.54 1549.52 814.73 1549.52 Q808.919 1549.52 805.841 1544.94 Q802.785 1540.33 802.785 1531.6 Q802.785 1522.85 805.841 1518.27 Q808.919 1513.66 814.73 1513.66 Z" fill="#000000" fill-rule="nonzero" fill-opacity="1" /><path clip-path="url(#clip250)" d="M1216.16 1544.91 L1223.8 1544.91 L1223.8 1518.55 L1215.49 1520.21 L1215.49 1515.95 L1223.75 1514.29 L1228.43 1514.29 L1228.43 1544.91 L1236.07 1544.91 L1236.07 1548.85 L1216.16 1548.85 L1216.16 1544.91 Z" fill="#000000" fill-rule="nonzero" fill-opacity="1" /><path clip-path="url(#clip250)" d="M1255.51 1517.37 Q1251.9 1517.37 1250.07 1520.93 Q1248.27 1524.47 1248.27 1531.6 Q1248.27 1538.71 1250.07 1542.27 Q1251.9 1545.82 1255.51 1545.82 Q1259.14 1545.82 1260.95 1542.27 Q1262.78 1538.71 1262.78 1531.6 Q1262.78 1524.47 1260.95 1520.93 Q1259.14 1517.37 1255.51 1517.37 M1255.51 1513.66 Q1261.32 1513.66 1264.38 1518.27 Q1267.45 1522.85 1267.45 1531.6 Q1267.45 1540.33 1264.38 1544.94 Q1261.32 1549.52 1255.51 1549.52 Q1249.7 1549.52 1246.62 1544.94 Q1243.57 1540.33 1243.57 1531.6 Q1243.57 1522.85 1246.62 1518.27 Q1249.7 1513.66 1255.51 1513.66 Z" fill="#000000" fill-rule="nonzero" fill-opacity="1" /><path clip-path="url(#clip250)" d="M1285.67 1517.37 Q1282.06 1517.37 1280.23 1520.93 Q1278.43 1524.47 1278.43 1531.6 Q1278.43 1538.71 1280.23 1542.27 Q1282.06 1545.82 1285.67 1545.82 Q1289.31 1545.82 1291.11 1542.27 Q1292.94 1538.71 1292.94 1531.6 Q1292.94 1524.47 1291.11 1520.93 Q1289.31 1517.37 1285.67 1517.37 M1285.67 1513.66 Q1291.48 1513.66 1294.54 1518.27 Q1297.62 1522.85 1297.62 1531.6 Q1297.62 1540.33 1294.54 1544.94 Q1291.48 1549.52 1285.67 1549.52 Q1279.86 1549.52 1276.78 1544.94 Q1273.73 1540.33 1273.73 1531.6 Q1273.73 1522.85 1276.78 1518.27 Q1279.86 1513.66 1285.67 1513.66 Z" fill="#000000" fill-rule="nonzero" fill-opacity="1" /><path clip-path="url(#clip250)" d="M1315.83 1517.37 Q1312.22 1517.37 1310.39 1520.93 Q1308.59 1524.47 1308.59 1531.6 Q1308.59 1538.71 1310.39 1542.27 Q1312.22 1545.82 1315.83 1545.82 Q1319.47 1545.82 1321.27 1542.27 Q1323.1 1538.71 1323.1 1531.6 Q1323.1 1524.47 1321.27 1520.93 Q1319.47 1517.37 1315.83 1517.37 M1315.83 1513.66 Q1321.64 1513.66 1324.7 1518.27 Q1327.78 1522.85 1327.78 1531.6 Q1327.78 1540.33 1324.7 1544.94 Q1321.64 1549.52 1315.83 1549.52 Q1310.02 1549.52 1306.95 1544.94 Q1303.89 1540.33 1303.89 1531.6 Q1303.89 1522.85 1306.95 1518.27 Q1310.02 1513.66 1315.83 1513.66 Z" fill="#000000" fill-rule="nonzero" fill-opacity="1" /><path clip-path="url(#clip250)" d="M1702.96 1544.91 L1710.6 1544.91 L1710.6 1518.55 L1702.29 1520.21 L1702.29 1515.95 L1710.55 1514.29 L1715.23 1514.29 L1715.23 1544.91 L1722.87 1544.91 L1722.87 1548.85 L1702.96 1548.85 L1702.96 1544.91 Z" fill="#000000" fill-rule="nonzero" fill-opacity="1" /><path clip-path="url(#clip250)" d="M1732.36 1514.29 L1750.71 1514.29 L1750.71 1518.22 L1736.64 1518.22 L1736.64 1526.7 Q1737.66 1526.35 1738.68 1526.19 Q1739.69 1526 1740.71 1526 Q1746.5 1526 1749.88 1529.17 Q1753.26 1532.34 1753.26 1537.76 Q1753.26 1543.34 1749.79 1546.44 Q1746.31 1549.52 1740 1549.52 Q1737.82 1549.52 1735.55 1549.15 Q1733.31 1548.78 1730.9 1548.04 L1730.9 1543.34 Q1732.98 1544.47 1735.2 1545.03 Q1737.43 1545.58 1739.9 1545.58 Q1743.91 1545.58 1746.24 1543.48 Q1748.58 1541.37 1748.58 1537.76 Q1748.58 1534.15 1746.24 1532.04 Q1743.91 1529.94 1739.9 1529.94 Q1738.03 1529.94 1736.15 1530.35 Q1734.3 1530.77 1732.36 1531.65 L1732.36 1514.29 Z" fill="#000000" fill-rule="nonzero" fill-opacity="1" /><path clip-path="url(#clip250)" d="M1772.47 1517.37 Q1768.86 1517.37 1767.03 1520.93 Q1765.23 1524.47 1765.23 1531.6 Q1765.23 1538.71 1767.03 1542.27 Q1768.86 1545.82 1772.47 1545.82 Q1776.11 1545.82 1777.91 1542.27 Q1779.74 1538.71 1779.74 1531.6 Q1779.74 1524.47 1777.91 1520.93 Q1776.11 1517.37 1772.47 1517.37 M1772.47 1513.66 Q1778.28 1513.66 1781.34 1518.27 Q1784.42 1522.85 1784.42 1531.6 Q1784.42 1540.33 1781.34 1544.94 Q1778.28 1549.52 1772.47 1549.52 Q1766.66 1549.52 1763.58 1544.94 Q1760.53 1540.33 1760.53 1531.6 Q1760.53 1522.85 1763.58 1518.27 Q1766.66 1513.66 1772.47 1513.66 Z" fill="#000000" fill-rule="nonzero" fill-opacity="1" /><path clip-path="url(#clip250)" d="M1802.63 1517.37 Q1799.02 1517.37 1797.19 1520.93 Q1795.39 1524.47 1795.39 1531.6 Q1795.39 1538.71 1797.19 1542.27 Q1799.02 1545.82 1802.63 1545.82 Q1806.27 1545.82 1808.07 1542.27 Q1809.9 1538.71 1809.9 1531.6 Q1809.9 1524.47 1808.07 1520.93 Q1806.27 1517.37 1802.63 1517.37 M1802.63 1513.66 Q1808.44 1513.66 1811.5 1518.27 Q1814.58 1522.85 1814.58 1531.6 Q1814.58 1540.33 1811.5 1544.94 Q1808.44 1549.52 1802.63 1549.52 Q1796.82 1549.52 1793.74 1544.94 Q1790.69 1540.33 1790.69 1531.6 Q1790.69 1522.85 1793.74 1518.27 Q1796.82 1513.66 1802.63 1513.66 Z" fill="#000000" fill-rule="nonzero" fill-opacity="1" /><path clip-path="url(#clip250)" d="M2193.84 1544.91 L2210.16 1544.91 L2210.16 1548.85 L2188.22 1548.85 L2188.22 1544.91 Q2190.88 1542.16 2195.46 1537.53 Q2200.07 1532.88 2201.25 1531.53 Q2203.5 1529.01 2204.38 1527.27 Q2205.28 1525.51 2205.28 1523.82 Q2205.28 1521.07 2203.33 1519.33 Q2201.41 1517.6 2198.31 1517.6 Q2196.11 1517.6 2193.66 1518.36 Q2191.23 1519.13 2188.45 1520.68 L2188.45 1515.95 Q2191.27 1514.82 2193.73 1514.24 Q2196.18 1513.66 2198.22 1513.66 Q2203.59 1513.66 2206.78 1516.35 Q2209.98 1519.03 2209.98 1523.52 Q2209.98 1525.65 2209.17 1527.57 Q2208.38 1529.47 2206.27 1532.07 Q2205.69 1532.74 2202.59 1535.95 Q2199.49 1539.15 2193.84 1544.91 Z" fill="#000000" fill-rule="nonzero" fill-opacity="1" /><path clip-path="url(#clip250)" d="M2229.98 1517.37 Q2226.37 1517.37 2224.54 1520.93 Q2222.73 1524.47 2222.73 1531.6 Q2222.73 1538.71 2224.54 1542.27 Q2226.37 1545.82 2229.98 1545.82 Q2233.61 1545.82 2235.42 1542.27 Q2237.25 1538.71 2237.25 1531.6 Q2237.25 1524.47 2235.42 1520.93 Q2233.61 1517.37 2229.98 1517.37 M2229.98 1513.66 Q2235.79 1513.66 2238.84 1518.27 Q2241.92 1522.85 2241.92 1531.6 Q2241.92 1540.33 2238.84 1544.94 Q2235.79 1549.52 2229.98 1549.52 Q2224.17 1549.52 2221.09 1544.94 Q2218.03 1540.33 2218.03 1531.6 Q2218.03 1522.85 2221.09 1518.27 Q2224.17 1513.66 2229.98 1513.66 Z" fill="#000000" fill-rule="nonzero" fill-opacity="1" /><path clip-path="url(#clip250)" d="M2260.14 1517.37 Q2256.53 1517.37 2254.7 1520.93 Q2252.89 1524.47 2252.89 1531.6 Q2252.89 1538.71 2254.7 1542.27 Q2256.53 1545.82 2260.14 1545.82 Q2263.77 1545.82 2265.58 1542.27 Q2267.41 1538.71 2267.41 1531.6 Q2267.41 1524.47 2265.58 1520.93 Q2263.77 1517.37 2260.14 1517.37 M2260.14 1513.66 Q2265.95 1513.66 2269 1518.27 Q2272.08 1522.85 2272.08 1531.6 Q2272.08 1540.33 2269 1544.94 Q2265.95 1549.52 2260.14 1549.52 Q2254.33 1549.52 2251.25 1544.94 Q2248.19 1540.33 2248.19 1531.6 Q2248.19 1522.85 2251.25 1518.27 Q2254.33 1513.66 2260.14 1513.66 Z" fill="#000000" fill-rule="nonzero" fill-opacity="1" /><path clip-path="url(#clip250)" d="M2290.3 1517.37 Q2286.69 1517.37 2284.86 1520.93 Q2283.06 1524.47 2283.06 1531.6 Q2283.06 1538.71 2284.86 1542.27 Q2286.69 1545.82 2290.3 1545.82 Q2293.94 1545.82 2295.74 1542.27 Q2297.57 1538.71 2297.57 1531.6 Q2297.57 1524.47 2295.74 1520.93 Q2293.94 1517.37 2290.3 1517.37 M2290.3 1513.66 Q2296.11 1513.66 2299.17 1518.27 Q2302.25 1522.85 2302.25 1531.6 Q2302.25 1540.33 2299.17 1544.94 Q2296.11 1549.52 2290.3 1549.52 Q2284.49 1549.52 2281.41 1544.94 Q2278.36 1540.33 2278.36 1531.6 Q2278.36 1522.85 2281.41 1518.27 Q2284.49 1513.66 2290.3 1513.66 Z" fill="#000000" fill-rule="nonzero" fill-opacity="1" /><polyline clip-path="url(#clip250)" style="stroke:#000000; stroke-linecap:round; stroke-linejoin:round; stroke-width:4; stroke-opacity:1; fill:none" points="239.19,1486.45 239.19,47.2441 "/>
<polyline clip-path="url(#clip250)" style="stroke:#000000; stroke-linecap:round; stroke-linejoin:round; stroke-width:4; stroke-opacity:1; fill:none" points="239.19,1429.8 258.088,1429.8 "/>
<polyline clip-path="url(#clip250)" style="stroke:#000000; stroke-linecap:round; stroke-linejoin:round; stroke-width:4; stroke-opacity:1; fill:none" points="239.19,1098.33 258.088,1098.33 "/>
<polyline clip-path="url(#clip250)" style="stroke:#000000; stroke-linecap:round; stroke-linejoin:round; stroke-width:4; stroke-opacity:1; fill:none" points="239.19,766.846 258.088,766.846 "/>
<polyline clip-path="url(#clip250)" style="stroke:#000000; stroke-linecap:round; stroke-linejoin:round; stroke-width:4; stroke-opacity:1; fill:none" points="239.19,435.367 258.088,435.367 "/>
<polyline clip-path="url(#clip250)" style="stroke:#000000; stroke-linecap:round; stroke-linejoin:round; stroke-width:4; stroke-opacity:1; fill:none" points="239.19,103.887 258.088,103.887 "/>
<path clip-path="url(#clip250)" d="M50.9921 1430.26 L80.6679 1430.26 L80.6679 1434.19 L50.9921 1434.19 L50.9921 1430.26 Z" fill="#000000" fill-rule="nonzero" fill-opacity="1" /><path clip-path="url(#clip250)" d="M103.608 1416.6 L91.8021 1435.05 L103.608 1435.05 L103.608 1416.6 M102.381 1412.52 L108.26 1412.52 L108.26 1435.05 L113.191 1435.05 L113.191 1438.94 L108.26 1438.94 L108.26 1447.08 L103.608 1447.08 L103.608 1438.94 L88.0058 1438.94 L88.0058 1434.42 L102.381 1412.52 Z" fill="#000000" fill-rule="nonzero" fill-opacity="1" /><path clip-path="url(#clip250)" d="M130.922 1415.6 Q127.311 1415.6 125.482 1419.17 Q123.677 1422.71 123.677 1429.84 Q123.677 1436.95 125.482 1440.51 Q127.311 1444.05 130.922 1444.05 Q134.556 1444.05 136.362 1440.51 Q138.191 1436.95 138.191 1429.84 Q138.191 1422.71 136.362 1419.17 Q134.556 1415.6 130.922 1415.6 M130.922 1411.9 Q136.732 1411.9 139.788 1416.51 Q142.867 1421.09 142.867 1429.84 Q142.867 1438.57 139.788 1443.17 Q136.732 1447.76 130.922 1447.76 Q125.112 1447.76 122.033 1443.17 Q118.978 1438.57 118.978 1429.84 Q118.978 1421.09 122.033 1416.51 Q125.112 1411.9 130.922 1411.9 Z" fill="#000000" fill-rule="nonzero" fill-opacity="1" /><path clip-path="url(#clip250)" d="M161.084 1415.6 Q157.473 1415.6 155.644 1419.17 Q153.839 1422.71 153.839 1429.84 Q153.839 1436.95 155.644 1440.51 Q157.473 1444.05 161.084 1444.05 Q164.718 1444.05 166.524 1440.51 Q168.353 1436.95 168.353 1429.84 Q168.353 1422.71 166.524 1419.17 Q164.718 1415.6 161.084 1415.6 M161.084 1411.9 Q166.894 1411.9 169.95 1416.51 Q173.029 1421.09 173.029 1429.84 Q173.029 1438.57 169.95 1443.17 Q166.894 1447.76 161.084 1447.76 Q155.274 1447.76 152.195 1443.17 Q149.14 1438.57 149.14 1429.84 Q149.14 1421.09 152.195 1416.51 Q155.274 1411.9 161.084 1411.9 Z" fill="#000000" fill-rule="nonzero" fill-opacity="1" /><path clip-path="url(#clip250)" d="M191.246 1415.6 Q187.635 1415.6 185.806 1419.17 Q184.001 1422.71 184.001 1429.84 Q184.001 1436.95 185.806 1440.51 Q187.635 1444.05 191.246 1444.05 Q194.88 1444.05 196.686 1440.51 Q198.514 1436.95 198.514 1429.84 Q198.514 1422.71 196.686 1419.17 Q194.88 1415.6 191.246 1415.6 M191.246 1411.9 Q197.056 1411.9 200.112 1416.51 Q203.19 1421.09 203.19 1429.84 Q203.19 1438.57 200.112 1443.17 Q197.056 1447.76 191.246 1447.76 Q185.436 1447.76 182.357 1443.17 Q179.302 1438.57 179.302 1429.84 Q179.302 1421.09 182.357 1416.51 Q185.436 1411.9 191.246 1411.9 Z" fill="#000000" fill-rule="nonzero" fill-opacity="1" /><path clip-path="url(#clip250)" d="M50.9921 1098.78 L80.6679 1098.78 L80.6679 1102.71 L50.9921 1102.71 L50.9921 1098.78 Z" fill="#000000" fill-rule="nonzero" fill-opacity="1" /><path clip-path="url(#clip250)" d="M94.7882 1111.67 L111.108 1111.67 L111.108 1115.61 L89.1632 1115.61 L89.1632 1111.67 Q91.8252 1108.92 96.4085 1104.29 Q101.015 1099.63 102.196 1098.29 Q104.441 1095.77 105.321 1094.03 Q106.223 1092.27 106.223 1090.58 Q106.223 1087.83 104.279 1086.09 Q102.358 1084.36 99.2558 1084.36 Q97.0567 1084.36 94.603 1085.12 Q92.1725 1085.88 89.3947 1087.43 L89.3947 1082.71 Q92.2188 1081.58 94.6724 1081 Q97.1261 1080.42 99.1632 1080.42 Q104.534 1080.42 107.728 1083.11 Q110.922 1085.79 110.922 1090.28 Q110.922 1092.41 110.112 1094.33 Q109.325 1096.23 107.219 1098.82 Q106.64 1099.49 103.538 1102.71 Q100.436 1105.91 94.7882 1111.67 Z" fill="#000000" fill-rule="nonzero" fill-opacity="1" /><path clip-path="url(#clip250)" d="M130.922 1084.12 Q127.311 1084.12 125.482 1087.69 Q123.677 1091.23 123.677 1098.36 Q123.677 1105.47 125.482 1109.03 Q127.311 1112.57 130.922 1112.57 Q134.556 1112.57 136.362 1109.03 Q138.191 1105.47 138.191 1098.36 Q138.191 1091.23 136.362 1087.69 Q134.556 1084.12 130.922 1084.12 M130.922 1080.42 Q136.732 1080.42 139.788 1085.03 Q142.867 1089.61 142.867 1098.36 Q142.867 1107.09 139.788 1111.69 Q136.732 1116.28 130.922 1116.28 Q125.112 1116.28 122.033 1111.69 Q118.978 1107.09 118.978 1098.36 Q118.978 1089.61 122.033 1085.03 Q125.112 1080.42 130.922 1080.42 Z" fill="#000000" fill-rule="nonzero" fill-opacity="1" /><path clip-path="url(#clip250)" d="M161.084 1084.12 Q157.473 1084.12 155.644 1087.69 Q153.839 1091.23 153.839 1098.36 Q153.839 1105.47 155.644 1109.03 Q157.473 1112.57 161.084 1112.57 Q164.718 1112.57 166.524 1109.03 Q168.353 1105.47 168.353 1098.36 Q168.353 1091.23 166.524 1087.69 Q164.718 1084.12 161.084 1084.12 M161.084 1080.42 Q166.894 1080.42 169.95 1085.03 Q173.029 1089.61 173.029 1098.36 Q173.029 1107.09 169.95 1111.69 Q166.894 1116.28 161.084 1116.28 Q155.274 1116.28 152.195 1111.69 Q149.14 1107.09 149.14 1098.36 Q149.14 1089.61 152.195 1085.03 Q155.274 1080.42 161.084 1080.42 Z" fill="#000000" fill-rule="nonzero" fill-opacity="1" /><path clip-path="url(#clip250)" d="M191.246 1084.12 Q187.635 1084.12 185.806 1087.69 Q184.001 1091.23 184.001 1098.36 Q184.001 1105.47 185.806 1109.03 Q187.635 1112.57 191.246 1112.57 Q194.88 1112.57 196.686 1109.03 Q198.514 1105.47 198.514 1098.36 Q198.514 1091.23 196.686 1087.69 Q194.88 1084.12 191.246 1084.12 M191.246 1080.42 Q197.056 1080.42 200.112 1085.03 Q203.19 1089.61 203.19 1098.36 Q203.19 1107.09 200.112 1111.69 Q197.056 1116.28 191.246 1116.28 Q185.436 1116.28 182.357 1111.69 Q179.302 1107.09 179.302 1098.36 Q179.302 1089.61 182.357 1085.03 Q185.436 1080.42 191.246 1080.42 Z" fill="#000000" fill-rule="nonzero" fill-opacity="1" /><path clip-path="url(#clip250)" d="M191.246 752.645 Q187.635 752.645 185.806 756.209 Q184.001 759.751 184.001 766.881 Q184.001 773.987 185.806 777.552 Q187.635 781.094 191.246 781.094 Q194.88 781.094 196.686 777.552 Q198.514 773.987 198.514 766.881 Q198.514 759.751 196.686 756.209 Q194.88 752.645 191.246 752.645 M191.246 748.941 Q197.056 748.941 200.112 753.547 Q203.19 758.131 203.19 766.881 Q203.19 775.608 200.112 780.214 Q197.056 784.797 191.246 784.797 Q185.436 784.797 182.357 780.214 Q179.302 775.608 179.302 766.881 Q179.302 758.131 182.357 753.547 Q185.436 748.941 191.246 748.941 Z" fill="#000000" fill-rule="nonzero" fill-opacity="1" /><path clip-path="url(#clip250)" d="M94.7882 448.711 L111.108 448.711 L111.108 452.647 L89.1632 452.647 L89.1632 448.711 Q91.8252 445.957 96.4085 441.327 Q101.015 436.674 102.196 435.332 Q104.441 432.809 105.321 431.073 Q106.223 429.313 106.223 427.624 Q106.223 424.869 104.279 423.133 Q102.358 421.397 99.2558 421.397 Q97.0567 421.397 94.603 422.161 Q92.1725 422.925 89.3947 424.475 L89.3947 419.753 Q92.2188 418.619 94.6724 418.04 Q97.1261 417.462 99.1632 417.462 Q104.534 417.462 107.728 420.147 Q110.922 422.832 110.922 427.323 Q110.922 429.452 110.112 431.374 Q109.325 433.272 107.219 435.864 Q106.64 436.536 103.538 439.753 Q100.436 442.948 94.7882 448.711 Z" fill="#000000" fill-rule="nonzero" fill-opacity="1" /><path clip-path="url(#clip250)" d="M130.922 421.165 Q127.311 421.165 125.482 424.73 Q123.677 428.272 123.677 435.401 Q123.677 442.508 125.482 446.073 Q127.311 449.614 130.922 449.614 Q134.556 449.614 136.362 446.073 Q138.191 442.508 138.191 435.401 Q138.191 428.272 136.362 424.73 Q134.556 421.165 130.922 421.165 M130.922 417.462 Q136.732 417.462 139.788 422.068 Q142.867 426.651 142.867 435.401 Q142.867 444.128 139.788 448.735 Q136.732 453.318 130.922 453.318 Q125.112 453.318 122.033 448.735 Q118.978 444.128 118.978 435.401 Q118.978 426.651 122.033 422.068 Q125.112 417.462 130.922 417.462 Z" fill="#000000" fill-rule="nonzero" fill-opacity="1" /><path clip-path="url(#clip250)" d="M161.084 421.165 Q157.473 421.165 155.644 424.73 Q153.839 428.272 153.839 435.401 Q153.839 442.508 155.644 446.073 Q157.473 449.614 161.084 449.614 Q164.718 449.614 166.524 446.073 Q168.353 442.508 168.353 435.401 Q168.353 428.272 166.524 424.73 Q164.718 421.165 161.084 421.165 M161.084 417.462 Q166.894 417.462 169.95 422.068 Q173.029 426.651 173.029 435.401 Q173.029 444.128 169.95 448.735 Q166.894 453.318 161.084 453.318 Q155.274 453.318 152.195 448.735 Q149.14 444.128 149.14 435.401 Q149.14 426.651 152.195 422.068 Q155.274 417.462 161.084 417.462 Z" fill="#000000" fill-rule="nonzero" fill-opacity="1" /><path clip-path="url(#clip250)" d="M191.246 421.165 Q187.635 421.165 185.806 424.73 Q184.001 428.272 184.001 435.401 Q184.001 442.508 185.806 446.073 Q187.635 449.614 191.246 449.614 Q194.88 449.614 196.686 446.073 Q198.514 442.508 198.514 435.401 Q198.514 428.272 196.686 424.73 Q194.88 421.165 191.246 421.165 M191.246 417.462 Q197.056 417.462 200.112 422.068 Q203.19 426.651 203.19 435.401 Q203.19 444.128 200.112 448.735 Q197.056 453.318 191.246 453.318 Q185.436 453.318 182.357 448.735 Q179.302 444.128 179.302 435.401 Q179.302 426.651 182.357 422.068 Q185.436 417.462 191.246 417.462 Z" fill="#000000" fill-rule="nonzero" fill-opacity="1" /><path clip-path="url(#clip250)" d="M103.608 90.6813 L91.8021 109.13 L103.608 109.13 L103.608 90.6813 M102.381 86.6073 L108.26 86.6073 L108.26 109.13 L113.191 109.13 L113.191 113.019 L108.26 113.019 L108.26 121.167 L103.608 121.167 L103.608 113.019 L88.0058 113.019 L88.0058 108.505 L102.381 86.6073 Z" fill="#000000" fill-rule="nonzero" fill-opacity="1" /><path clip-path="url(#clip250)" d="M130.922 89.686 Q127.311 89.686 125.482 93.2508 Q123.677 96.7924 123.677 103.922 Q123.677 111.028 125.482 114.593 Q127.311 118.135 130.922 118.135 Q134.556 118.135 136.362 114.593 Q138.191 111.028 138.191 103.922 Q138.191 96.7924 136.362 93.2508 Q134.556 89.686 130.922 89.686 M130.922 85.9823 Q136.732 85.9823 139.788 90.5887 Q142.867 95.1721 142.867 103.922 Q142.867 112.649 139.788 117.255 Q136.732 121.839 130.922 121.839 Q125.112 121.839 122.033 117.255 Q118.978 112.649 118.978 103.922 Q118.978 95.1721 122.033 90.5887 Q125.112 85.9823 130.922 85.9823 Z" fill="#000000" fill-rule="nonzero" fill-opacity="1" /><path clip-path="url(#clip250)" d="M161.084 89.686 Q157.473 89.686 155.644 93.2508 Q153.839 96.7924 153.839 103.922 Q153.839 111.028 155.644 114.593 Q157.473 118.135 161.084 118.135 Q164.718 118.135 166.524 114.593 Q168.353 111.028 168.353 103.922 Q168.353 96.7924 166.524 93.2508 Q164.718 89.686 161.084 89.686 M161.084 85.9823 Q166.894 85.9823 169.95 90.5887 Q173.029 95.1721 173.029 103.922 Q173.029 112.649 169.95 117.255 Q166.894 121.839 161.084 121.839 Q155.274 121.839 152.195 117.255 Q149.14 112.649 149.14 103.922 Q149.14 95.1721 152.195 90.5887 Q155.274 85.9823 161.084 85.9823 Z" fill="#000000" fill-rule="nonzero" fill-opacity="1" /><path clip-path="url(#clip250)" d="M191.246 89.686 Q187.635 89.686 185.806 93.2508 Q184.001 96.7924 184.001 103.922 Q184.001 111.028 185.806 114.593 Q187.635 118.135 191.246 118.135 Q194.88 118.135 196.686 114.593 Q198.514 111.028 198.514 103.922 Q198.514 96.7924 196.686 93.2508 Q194.88 89.686 191.246 89.686 M191.246 85.9823 Q197.056 85.9823 200.112 90.5887 Q203.19 95.1721 203.19 103.922 Q203.19 112.649 200.112 117.255 Q197.056 121.839 191.246 121.839 Q185.436 121.839 182.357 117.255 Q179.302 112.649 179.302 103.922 Q179.302 95.1721 182.357 90.5887 Q185.436 85.9823 191.246 85.9823 Z" fill="#000000" fill-rule="nonzero" fill-opacity="1" /><polyline clip-path="url(#clip252)" style="stroke:#009af9; stroke-linecap:round; stroke-linejoin:round; stroke-width:4; stroke-opacity:1; fill:none" points="299.008,766.846 299.008,591.162 299.982,591.162 299.982,353.657 300.955,353.657 300.955,228.192 301.929,228.192 301.929,111.18 302.903,111.18 302.903,87.9763 303.876,87.9763 303.876,111.18 304.85,111.18 304.85,228.192 305.823,228.192 305.823,353.657 306.797,353.657 306.797,591.162 307.771,591.162 307.771,766.846 308.744,766.846 308.744,942.53 309.718,942.53 309.718,1180.03 310.691,1180.03 310.691,1305.5 311.665,1305.5 311.665,1422.51 312.639,1422.51 312.639,1445.72 313.612,1445.72 313.612,1422.51 314.586,1422.51 314.586,1305.5 315.559,1305.5 315.559,1180.03 316.533,1180.03 316.533,942.53 317.507,942.53 317.507,766.846 318.48,766.846 318.48,591.162 319.454,591.162 319.454,427.411 320.427,427.411 320.427,228.192 321.401,228.192 321.401,139.687 322.375,139.687 322.375,87.9763 323.348,87.9763 323.348,111.18 324.322,111.18 324.322,178.967 325.295,178.967 325.295,353.657 326.269,353.657 326.269,507.132 327.243,507.132 327.243,766.846 328.216,766.846 328.216,942.53 329.19,942.53 329.19,1106.28 330.163,1106.28 330.163,1305.5 331.137,1305.5 331.137,1394 332.111,1394 332.111,1445.72 333.084,1445.72 333.084,1422.51 334.058,1422.51 334.058,1354.72 335.031,1354.72 335.031,1180.03 336.005,1180.03 336.005,1026.56 336.979,1026.56 336.979,766.846 337.952,766.846 337.952,678.175 338.926,678.175 338.926,427.411 339.899,427.411 339.899,286.864 340.873,286.864 340.873,139.687 341.847,139.687 341.847,93.7772 342.82,93.7772 343.794,93.7772 343.794,178.967 344.767,178.967 344.767,286.864 345.741,286.864 345.741,507.132 346.715,507.132 346.715,678.175 347.688,678.175 347.688,855.517 348.662,855.517 348.662,1106.28 349.635,1106.28 349.635,1246.83 350.609,1246.83 350.609,1394 351.583,1394 351.583,1439.91 352.556,1439.91 353.53,1439.91 353.53,1354.72 354.503,1354.72 354.503,1246.83 355.477,1246.83 355.477,1026.56 356.451,1026.56 356.451,855.517 357.424,855.517 357.424,678.175 358.398,678.175 358.398,507.132 359.371,507.132 359.371,286.864 360.345,286.864 360.345,178.967 361.319,178.967 361.319,93.7772 362.292,93.7772 363.266,93.7772 363.266,139.687 364.239,139.687 364.239,286.864 365.213,286.864 365.213,427.411 366.187,427.411 366.187,678.175 367.16,678.175 367.16,855.517 368.134,855.517 368.134,1026.56 369.107,1026.56 369.107,1246.83 370.081,1246.83 370.081,1354.72 371.055,1354.72 371.055,1439.91 372.028,1439.91 373.002,1439.91 373.002,1394 373.975,1394 373.975,1246.83 374.949,1246.83 374.949,1106.28 375.923,1106.28 375.923,855.517 376.896,855.517 376.896,766.846 377.87,766.846 377.87,507.132 378.843,507.132 378.843,353.657 379.817,353.657 379.817,178.967 380.791,178.967 380.791,111.18 381.764,111.18 381.764,87.9763 382.738,87.9763 382.738,139.687 383.711,139.687 383.711,228.192 384.685,228.192 384.685,427.411 385.659,427.411 385.659,591.162 386.632,591.162 386.632,766.846 387.606,766.846 387.606,1026.56 388.579,1026.56 388.579,1180.03 389.553,1180.03 389.553,1354.72 390.527,1354.72 390.527,1422.51 391.5,1422.51 391.5,1445.72 392.474,1445.72 392.474,1394 393.447,1394 393.447,1305.5 394.421,1305.5 394.421,1106.28 395.395,1106.28 395.395,942.53 396.368,942.53 396.368,766.846 397.342,766.846 397.342,591.162 398.315,591.162 398.315,353.657 399.289,353.657 399.289,228.192 400.263,228.192 400.263,111.18 401.236,111.18 401.236,87.9763 402.21,87.9763 402.21,111.18 403.183,111.18 403.183,228.192 404.157,228.192 404.157,353.657 405.131,353.657 405.131,591.162 406.104,591.162 406.104,766.846 407.078,766.846 407.078,942.53 408.051,942.53 408.051,1180.03 409.025,1180.03 409.025,1305.5 409.999,1305.5 409.999,1422.51 410.972,1422.51 410.972,1445.72 411.946,1445.72 411.946,1422.51 412.919,1422.51 412.919,1305.5 413.893,1305.5 413.893,1180.03 414.866,1180.03 414.866,942.53 415.84,942.53 415.84,766.846 416.814,766.846 416.814,591.162 417.787,591.162 417.787,427.411 418.761,427.411 418.761,228.192 419.734,228.192 419.734,139.687 420.708,139.687 420.708,87.9763 421.682,87.9763 421.682,111.18 422.655,111.18 422.655,178.967 423.629,178.967 423.629,353.657 424.602,353.657 424.602,507.132 425.576,507.132 425.576,766.846 426.55,766.846 426.55,942.53 427.523,942.53 427.523,1106.28 428.497,1106.28 428.497,1305.5 429.47,1305.5 429.47,1394 430.444,1394 430.444,1445.72 431.418,1445.72 431.418,1422.51 432.391,1422.51 432.391,1354.72 433.365,1354.72 433.365,1180.03 434.338,1180.03 434.338,1026.56 435.312,1026.56 435.312,766.846 436.286,766.846 436.286,678.175 437.259,678.175 437.259,427.411 438.233,427.411 438.233,286.864 439.206,286.864 439.206,139.687 440.18,139.687 440.18,93.7772 441.154,93.7772 442.127,93.7772 442.127,178.967 443.101,178.967 443.101,286.864 444.074,286.864 444.074,507.132 445.048,507.132 445.048,678.175 446.022,678.175 446.022,855.517 446.995,855.517 446.995,1106.28 447.969,1106.28 447.969,1246.83 448.942,1246.83 448.942,1394 449.916,1394 449.916,1439.91 450.89,1439.91 451.863,1439.91 451.863,1354.72 452.837,1354.72 452.837,1246.83 453.81,1246.83 453.81,1026.56 454.784,1026.56 454.784,855.517 455.758,855.517 455.758,678.175 456.731,678.175 456.731,507.132 457.705,507.132 457.705,286.864 458.678,286.864 458.678,178.967 459.652,178.967 459.652,93.7772 460.626,93.7772 461.599,93.7772 461.599,139.687 462.573,139.687 462.573,286.864 463.546,286.864 463.546,427.411 464.52,427.411 464.52,678.175 465.494,678.175 465.494,855.517 466.467,855.517 466.467,1026.56 467.441,1026.56 467.441,1246.83 468.414,1246.83 468.414,1354.72 469.388,1354.72 469.388,1439.91 470.362,1439.91 471.335,1439.91 471.335,1394 472.309,1394 472.309,1246.83 473.282,1246.83 473.282,1106.28 474.256,1106.28 474.256,855.517 475.23,855.517 475.23,766.846 476.203,766.846 476.203,507.132 477.177,507.132 477.177,353.657 478.15,353.657 478.15,178.967 479.124,178.967 479.124,111.18 480.098,111.18 480.098,87.9763 481.071,87.9763 481.071,139.687 482.045,139.687 482.045,228.192 483.018,228.192 483.018,427.411 483.992,427.411 483.992,591.162 484.966,591.162 484.966,766.846 485.939,766.846 485.939,1026.56 486.913,1026.56 486.913,1180.03 487.886,1180.03 487.886,1354.72 488.86,1354.72 488.86,1422.51 489.834,1422.51 489.834,1445.72 490.807,1445.72 490.807,1394 491.781,1394 491.781,1305.5 492.754,1305.5 492.754,1106.28 493.728,1106.28 493.728,942.53 494.702,942.53 494.702,766.846 495.675,766.846 495.675,591.162 496.649,591.162 496.649,353.657 497.622,353.657 497.622,228.192 498.596,228.192 498.596,111.18 499.57,111.18 499.57,87.9763 500.543,87.9763 500.543,111.18 501.517,111.18 501.517,228.192 502.49,228.192 502.49,353.657 503.464,353.657 503.464,591.162 504.438,591.162 504.438,766.846 505.411,766.846 505.411,942.53 506.385,942.53 506.385,1180.03 507.358,1180.03 507.358,1305.5 508.332,1305.5 508.332,1422.51 509.306,1422.51 509.306,1445.72 510.279,1445.72 510.279,1422.51 511.253,1422.51 511.253,1305.5 512.226,1305.5 512.226,1180.03 513.2,1180.03 513.2,942.53 514.174,942.53 514.174,766.846 515.147,766.846 515.147,591.162 516.121,591.162 516.121,427.411 517.094,427.411 517.094,228.192 518.068,228.192 518.068,139.687 519.042,139.687 519.042,87.9763 520.015,87.9763 520.015,111.18 520.989,111.18 520.989,178.967 521.962,178.967 521.962,353.657 522.936,353.657 522.936,507.132 523.91,507.132 523.91,766.846 524.883,766.846 524.883,942.53 525.857,942.53 525.857,1106.28 526.83,1106.28 526.83,1305.5 527.804,1305.5 527.804,1394 528.778,1394 528.778,1445.72 529.751,1445.72 529.751,1422.51 530.725,1422.51 530.725,1354.72 531.698,1354.72 531.698,1180.03 532.672,1180.03 532.672,1026.56 533.646,1026.56 533.646,766.846 534.619,766.846 534.619,678.175 535.593,678.175 535.593,427.411 536.566,427.411 536.566,286.864 537.54,286.864 537.54,139.687 538.514,139.687 538.514,93.7772 539.487,93.7772 540.461,93.7772 540.461,178.967 541.434,178.967 541.434,286.864 542.408,286.864 542.408,507.132 543.382,507.132 543.382,678.175 544.355,678.175 544.355,855.517 545.329,855.517 545.329,1106.28 546.302,1106.28 546.302,1246.83 547.276,1246.83 547.276,1394 548.249,1394 548.249,1439.91 549.223,1439.91 550.197,1439.91 550.197,1354.72 551.17,1354.72 551.17,1246.83 552.144,1246.83 552.144,1026.56 553.117,1026.56 553.117,855.517 554.091,855.517 554.091,678.175 555.065,678.175 555.065,507.132 556.038,507.132 556.038,286.864 557.012,286.864 557.012,178.967 557.985,178.967 557.985,93.7772 558.959,93.7772 559.933,93.7772 559.933,139.687 560.906,139.687 560.906,286.864 561.88,286.864 561.88,427.411 562.853,427.411 562.853,678.175 563.827,678.175 563.827,855.517 564.801,855.517 564.801,1026.56 565.774,1026.56 565.774,1246.83 566.748,1246.83 566.748,1354.72 567.721,1354.72 567.721,1439.91 568.695,1439.91 569.669,1439.91 569.669,1394 570.642,1394 570.642,1246.83 571.616,1246.83 571.616,1106.28 572.589,1106.28 572.589,855.517 573.563,855.517 573.563,766.846 574.537,766.846 574.537,507.132 575.51,507.132 575.51,353.657 576.484,353.657 576.484,178.967 577.457,178.967 577.457,111.18 578.431,111.18 578.431,87.9763 579.405,87.9763 579.405,139.687 580.378,139.687 580.378,228.192 581.352,228.192 581.352,427.411 582.325,427.411 582.325,591.162 583.299,591.162 583.299,766.846 584.273,766.846 584.273,1026.56 585.246,1026.56 585.246,1180.03 586.22,1180.03 586.22,1354.72 587.193,1354.72 587.193,1422.51 588.167,1422.51 588.167,1445.72 589.141,1445.72 589.141,1394 590.114,1394 590.114,1305.5 591.088,1305.5 591.088,1106.28 592.061,1106.28 592.061,942.53 593.035,942.53 593.035,766.846 594.009,766.846 594.009,591.162 594.982,591.162 594.982,353.657 595.956,353.657 595.956,228.192 596.929,228.192 596.929,111.18 597.903,111.18 597.903,87.9763 598.877,87.9763 598.877,111.18 599.85,111.18 599.85,228.192 600.824,228.192 600.824,353.657 601.797,353.657 601.797,591.162 602.771,591.162 602.771,766.846 603.745,766.846 603.745,942.53 604.718,942.53 604.718,1180.03 605.692,1180.03 605.692,1305.5 606.665,1305.5 606.665,1422.51 607.639,1422.51 607.639,1445.72 608.613,1445.72 608.613,1422.51 609.586,1422.51 609.586,1305.5 610.56,1305.5 610.56,1180.03 611.533,1180.03 611.533,942.53 612.507,942.53 612.507,766.846 613.481,766.846 613.481,591.162 614.454,591.162 614.454,427.411 615.428,427.411 615.428,228.192 616.401,228.192 616.401,139.687 617.375,139.687 617.375,87.9763 618.349,87.9763 618.349,111.18 619.322,111.18 619.322,178.967 620.296,178.967 620.296,353.657 621.269,353.657 621.269,507.132 622.243,507.132 622.243,766.846 623.217,766.846 623.217,942.53 624.19,942.53 624.19,1106.28 625.164,1106.28 625.164,1305.5 626.137,1305.5 626.137,1394 627.111,1394 627.111,1445.72 628.085,1445.72 628.085,1422.51 629.058,1422.51 629.058,1354.72 630.032,1354.72 630.032,1180.03 631.005,1180.03 631.005,1026.56 631.979,1026.56 631.979,766.846 632.953,766.846 632.953,678.175 633.926,678.175 633.926,427.411 634.9,427.411 634.9,286.864 635.873,286.864 635.873,139.687 636.847,139.687 636.847,93.7772 637.821,93.7772 638.794,93.7772 638.794,178.967 639.768,178.967 639.768,286.864 640.741,286.864 640.741,507.132 641.715,507.132 641.715,678.175 642.689,678.175 642.689,855.517 643.662,855.517 643.662,1106.28 644.636,1106.28 644.636,1246.83 645.609,1246.83 645.609,1394 646.583,1394 646.583,1439.91 647.557,1439.91 648.53,1439.91 648.53,1354.72 649.504,1354.72 649.504,1246.83 650.477,1246.83 650.477,1026.56 651.451,1026.56 651.451,855.517 652.425,855.517 652.425,678.175 653.398,678.175 653.398,507.132 654.372,507.132 654.372,286.864 655.345,286.864 655.345,178.967 656.319,178.967 656.319,93.7772 657.293,93.7772 658.266,93.7772 658.266,139.687 659.24,139.687 659.24,286.864 660.213,286.864 660.213,427.411 661.187,427.411 661.187,678.175 662.161,678.175 662.161,855.517 663.134,855.517 663.134,1026.56 664.108,1026.56 664.108,1246.83 665.081,1246.83 665.081,1354.72 666.055,1354.72 666.055,1439.91 667.029,1439.91 668.002,1439.91 668.002,1394 668.976,1394 668.976,1246.83 669.949,1246.83 669.949,1106.28 670.923,1106.28 670.923,855.517 671.897,855.517 671.897,766.846 672.87,766.846 672.87,507.132 673.844,507.132 673.844,353.657 674.817,353.657 674.817,178.967 675.791,178.967 675.791,111.18 676.764,111.18 676.764,87.9763 677.738,87.9763 677.738,139.687 678.712,139.687 678.712,228.192 679.685,228.192 679.685,427.411 680.659,427.411 680.659,591.162 681.632,591.162 681.632,766.846 682.606,766.846 682.606,1026.56 683.58,1026.56 683.58,1180.03 684.553,1180.03 684.553,1354.72 685.527,1354.72 685.527,1422.51 686.5,1422.51 686.5,1445.72 687.474,1445.72 687.474,1394 688.448,1394 688.448,1305.5 689.421,1305.5 689.421,1106.28 690.395,1106.28 690.395,942.53 691.368,942.53 691.368,766.846 692.342,766.846 692.342,591.162 693.316,591.162 693.316,353.657 694.289,353.657 694.289,228.192 695.263,228.192 695.263,111.18 696.236,111.18 696.236,87.9763 697.21,87.9763 697.21,111.18 698.184,111.18 698.184,228.192 699.157,228.192 699.157,353.657 700.131,353.657 700.131,591.162 701.104,591.162 701.104,766.846 702.078,766.846 702.078,942.53 703.052,942.53 703.052,1180.03 704.025,1180.03 704.025,1305.5 704.999,1305.5 704.999,1422.51 705.972,1422.51 705.972,1445.72 706.946,1445.72 706.946,1422.51 707.92,1422.51 707.92,1305.5 708.893,1305.5 708.893,1180.03 709.867,1180.03 709.867,942.53 710.84,942.53 710.84,766.846 711.814,766.846 711.814,591.162 712.788,591.162 712.788,427.411 713.761,427.411 713.761,228.192 714.735,228.192 714.735,139.687 715.708,139.687 715.708,87.9763 716.682,87.9763 716.682,111.18 717.656,111.18 717.656,178.967 718.629,178.967 718.629,353.657 719.603,353.657 719.603,507.132 720.576,507.132 720.576,766.846 721.55,766.846 721.55,942.53 722.524,942.53 722.524,1106.28 723.497,1106.28 723.497,1305.5 724.471,1305.5 724.471,1394 725.444,1394 725.444,1445.72 726.418,1445.72 726.418,1422.51 727.392,1422.51 727.392,1354.72 728.365,1354.72 728.365,1180.03 729.339,1180.03 729.339,1026.56 730.312,1026.56 730.312,766.846 731.286,766.846 731.286,678.175 732.26,678.175 732.26,427.411 733.233,427.411 733.233,286.864 734.207,286.864 734.207,139.687 735.18,139.687 735.18,93.7772 736.154,93.7772 737.128,93.7772 737.128,178.967 738.101,178.967 738.101,286.864 739.075,286.864 739.075,507.132 740.048,507.132 740.048,678.175 741.022,678.175 741.022,855.517 741.996,855.517 741.996,1106.28 742.969,1106.28 742.969,1246.83 743.943,1246.83 743.943,1394 744.916,1394 744.916,1439.91 745.89,1439.91 746.864,1439.91 746.864,1354.72 747.837,1354.72 747.837,1246.83 748.811,1246.83 748.811,1026.56 749.784,1026.56 749.784,855.517 750.758,855.517 750.758,678.175 751.732,678.175 751.732,507.132 752.705,507.132 752.705,286.864 753.679,286.864 753.679,178.967 754.652,178.967 754.652,93.7772 755.626,93.7772 756.6,93.7772 756.6,139.687 757.573,139.687 757.573,286.864 758.547,286.864 758.547,427.411 759.52,427.411 759.52,678.175 760.494,678.175 760.494,855.517 761.468,855.517 761.468,1026.56 762.441,1026.56 762.441,1246.83 763.415,1246.83 763.415,1354.72 764.388,1354.72 764.388,1439.91 765.362,1439.91 766.336,1439.91 766.336,1394 767.309,1394 767.309,1246.83 768.283,1246.83 768.283,1106.28 769.256,1106.28 769.256,855.517 770.23,855.517 770.23,766.846 771.204,766.846 771.204,507.132 772.177,507.132 772.177,353.657 773.151,353.657 773.151,178.967 774.124,178.967 774.124,111.18 775.098,111.18 775.098,87.9763 776.072,87.9763 776.072,139.687 777.045,139.687 777.045,228.192 778.019,228.192 778.019,427.411 778.992,427.411 778.992,591.162 779.966,591.162 779.966,766.846 780.94,766.846 780.94,1026.56 781.913,1026.56 781.913,1180.03 782.887,1180.03 782.887,1354.72 783.86,1354.72 783.86,1422.51 784.834,1422.51 784.834,1445.72 785.808,1445.72 785.808,1394 786.781,1394 786.781,1305.5 787.755,1305.5 787.755,1106.28 788.728,1106.28 788.728,942.53 789.702,942.53 789.702,766.846 790.676,766.846 790.676,591.162 791.649,591.162 791.649,353.657 792.623,353.657 792.623,228.192 793.596,228.192 793.596,111.18 794.57,111.18 794.57,87.9763 795.544,87.9763 795.544,111.18 796.517,111.18 796.517,228.192 797.491,228.192 797.491,353.657 798.464,353.657 798.464,591.162 799.438,591.162 799.438,766.846 800.412,766.846 800.412,942.53 801.385,942.53 801.385,1180.03 802.359,1180.03 802.359,1305.5 803.332,1305.5 803.332,1422.51 804.306,1422.51 804.306,1445.72 805.279,1445.72 805.279,1422.51 806.253,1422.51 806.253,1305.5 807.227,1305.5 807.227,1180.03 808.2,1180.03 808.2,942.53 809.174,942.53 809.174,766.846 810.147,766.846 810.147,591.162 811.121,591.162 811.121,427.411 812.095,427.411 812.095,228.192 813.068,228.192 813.068,139.687 814.042,139.687 814.042,87.9763 815.015,87.9763 815.015,111.18 815.989,111.18 815.989,178.967 816.963,178.967 816.963,353.657 817.936,353.657 817.936,507.132 818.91,507.132 818.91,766.846 819.883,766.846 819.883,942.53 820.857,942.53 820.857,1106.28 821.831,1106.28 821.831,1305.5 822.804,1305.5 822.804,1394 823.778,1394 823.778,1445.72 824.751,1445.72 824.751,1422.51 825.725,1422.51 825.725,1354.72 826.699,1354.72 826.699,1180.03 827.672,1180.03 827.672,1026.56 828.646,1026.56 828.646,766.846 829.619,766.846 829.619,678.175 830.593,678.175 830.593,427.411 831.567,427.411 831.567,286.864 832.54,286.864 832.54,139.687 833.514,139.687 833.514,93.7772 834.487,93.7772 835.461,93.7772 835.461,178.967 836.435,178.967 836.435,286.864 837.408,286.864 837.408,507.132 838.382,507.132 838.382,678.175 839.355,678.175 839.355,855.517 840.329,855.517 840.329,1106.28 841.303,1106.28 841.303,1246.83 842.276,1246.83 842.276,1394 843.25,1394 843.25,1439.91 844.223,1439.91 845.197,1439.91 845.197,1354.72 846.171,1354.72 846.171,1246.83 847.144,1246.83 847.144,1026.56 848.118,1026.56 848.118,855.517 849.091,855.517 849.091,678.175 850.065,678.175 850.065,507.132 851.039,507.132 851.039,286.864 852.012,286.864 852.012,178.967 852.986,178.967 852.986,93.7772 853.959,93.7772 854.933,93.7772 854.933,139.687 855.907,139.687 855.907,286.864 856.88,286.864 856.88,427.411 857.854,427.411 857.854,678.175 858.827,678.175 858.827,855.517 859.801,855.517 859.801,1026.56 860.775,1026.56 860.775,1246.83 861.748,1246.83 861.748,1354.72 862.722,1354.72 862.722,1439.91 863.695,1439.91 864.669,1439.91 864.669,1394 865.643,1394 865.643,1246.83 866.616,1246.83 866.616,1106.28 867.59,1106.28 867.59,855.517 868.563,855.517 868.563,766.846 869.537,766.846 869.537,507.132 870.511,507.132 870.511,353.657 871.484,353.657 871.484,178.967 872.458,178.967 872.458,111.18 873.431,111.18 873.431,87.9763 874.405,87.9763 874.405,139.687 875.379,139.687 875.379,228.192 876.352,228.192 876.352,427.411 877.326,427.411 877.326,591.162 878.299,591.162 878.299,766.846 879.273,766.846 879.273,1026.56 880.247,1026.56 880.247,1180.03 881.22,1180.03 881.22,1354.72 882.194,1354.72 882.194,1422.51 883.167,1422.51 883.167,1445.72 884.141,1445.72 884.141,1394 885.115,1394 885.115,1305.5 886.088,1305.5 886.088,1106.28 887.062,1106.28 887.062,942.53 888.035,942.53 888.035,766.846 889.009,766.846 889.009,591.162 889.983,591.162 889.983,353.657 890.956,353.657 890.956,228.192 891.93,228.192 891.93,111.18 892.903,111.18 892.903,87.9763 893.877,87.9763 893.877,111.18 894.851,111.18 894.851,228.192 895.824,228.192 895.824,353.657 896.798,353.657 896.798,591.162 897.771,591.162 897.771,766.846 898.745,766.846 898.745,942.53 899.719,942.53 899.719,1180.03 900.692,1180.03 900.692,1305.5 901.666,1305.5 901.666,1422.51 902.639,1422.51 902.639,1445.72 903.613,1445.72 903.613,1422.51 904.587,1422.51 904.587,1305.5 905.56,1305.5 905.56,1180.03 906.534,1180.03 906.534,942.53 907.507,942.53 907.507,766.846 908.481,766.846 908.481,591.162 909.455,591.162 909.455,427.411 910.428,427.411 910.428,228.192 911.402,228.192 911.402,139.687 912.375,139.687 912.375,87.9763 913.349,87.9763 913.349,111.18 914.323,111.18 914.323,178.967 915.296,178.967 915.296,353.657 916.27,353.657 916.27,507.132 917.243,507.132 917.243,766.846 918.217,766.846 918.217,942.53 919.191,942.53 919.191,1106.28 920.164,1106.28 920.164,1305.5 921.138,1305.5 921.138,1394 922.111,1394 922.111,1445.72 923.085,1445.72 923.085,1422.51 924.059,1422.51 924.059,1354.72 925.032,1354.72 925.032,1180.03 926.006,1180.03 926.006,1026.56 926.979,1026.56 926.979,766.846 927.953,766.846 927.953,678.175 928.927,678.175 928.927,427.411 929.9,427.411 929.9,286.864 930.874,286.864 930.874,139.687 931.847,139.687 931.847,93.7772 932.821,93.7772 933.795,93.7772 933.795,178.967 934.768,178.967 934.768,286.864 935.742,286.864 935.742,507.132 936.715,507.132 936.715,678.175 937.689,678.175 937.689,855.517 938.662,855.517 938.662,1106.28 939.636,1106.28 939.636,1246.83 940.61,1246.83 940.61,1394 941.583,1394 941.583,1439.91 942.557,1439.91 943.53,1439.91 943.53,1354.72 944.504,1354.72 944.504,1246.83 945.478,1246.83 945.478,1026.56 946.451,1026.56 946.451,855.517 947.425,855.517 947.425,678.175 948.398,678.175 948.398,507.132 949.372,507.132 949.372,286.864 950.346,286.864 950.346,178.967 951.319,178.967 951.319,93.7772 952.293,93.7772 953.266,93.7772 953.266,139.687 954.24,139.687 954.24,286.864 955.214,286.864 955.214,427.411 956.187,427.411 956.187,678.175 957.161,678.175 957.161,855.517 958.134,855.517 958.134,1026.56 959.108,1026.56 959.108,1246.83 960.082,1246.83 960.082,1354.72 961.055,1354.72 961.055,1439.91 962.029,1439.91 963.002,1439.91 963.002,1394 963.976,1394 963.976,1246.83 964.95,1246.83 964.95,1106.28 965.923,1106.28 965.923,855.517 966.897,855.517 966.897,766.846 967.87,766.846 967.87,507.132 968.844,507.132 968.844,353.657 969.818,353.657 969.818,178.967 970.791,178.967 970.791,111.18 971.765,111.18 971.765,87.9763 972.738,87.9763 972.738,139.687 973.712,139.687 973.712,228.192 974.686,228.192 974.686,427.411 975.659,427.411 975.659,591.162 976.633,591.162 976.633,766.846 977.606,766.846 977.606,1026.56 978.58,1026.56 978.58,1180.03 979.554,1180.03 979.554,1354.72 980.527,1354.72 980.527,1422.51 981.501,1422.51 981.501,1445.72 982.474,1445.72 982.474,1394 983.448,1394 983.448,1305.5 984.422,1305.5 984.422,1106.28 985.395,1106.28 985.395,942.53 986.369,942.53 986.369,766.846 987.342,766.846 987.342,591.162 988.316,591.162 988.316,353.657 989.29,353.657 989.29,228.192 990.263,228.192 990.263,111.18 991.237,111.18 991.237,87.9763 992.21,87.9763 992.21,111.18 993.184,111.18 993.184,228.192 994.158,228.192 994.158,353.657 995.131,353.657 995.131,591.162 996.105,591.162 996.105,766.846 997.078,766.846 997.078,942.53 998.052,942.53 998.052,1180.03 999.026,1180.03 999.026,1305.5 999.999,1305.5 999.999,1422.51 1000.97,1422.51 1000.97,1445.72 1001.95,1445.72 1001.95,1422.51 1002.92,1422.51 1002.92,1305.5 1003.89,1305.5 1003.89,1180.03 1004.87,1180.03 1004.87,942.53 1005.84,942.53 1005.84,766.846 1006.81,766.846 1006.81,591.162 1007.79,591.162 1007.79,427.411 1008.76,427.411 1008.76,228.192 1009.74,228.192 1009.74,139.687 1010.71,139.687 1010.71,87.9763 1011.68,87.9763 1011.68,111.18 1012.66,111.18 1012.66,178.967 1013.63,178.967 1013.63,353.657 1014.6,353.657 1014.6,507.132 1015.58,507.132 1015.58,766.846 1016.55,766.846 1016.55,942.53 1017.52,942.53 1017.52,1106.28 1018.5,1106.28 1018.5,1305.5 1019.47,1305.5 1019.47,1394 1020.44,1394 1020.44,1445.72 1021.42,1445.72 1021.42,1422.51 1022.39,1422.51 1022.39,1354.72 1023.37,1354.72 1023.37,1180.03 1024.34,1180.03 1024.34,1026.56 1025.31,1026.56 1025.31,766.846 1026.29,766.846 1026.29,678.175 1027.26,678.175 1027.26,427.411 1028.23,427.411 1028.23,286.864 1029.21,286.864 1029.21,139.687 1030.18,139.687 1030.18,93.7772 1031.15,93.7772 1032.13,93.7772 1032.13,178.967 1033.1,178.967 1033.1,286.864 1034.08,286.864 1034.08,507.132 1035.05,507.132 1035.05,678.175 1036.02,678.175 1036.02,855.517 1037,855.517 1037,1106.28 1037.97,1106.28 1037.97,1246.83 1038.94,1246.83 1038.94,1394 1039.92,1394 1039.92,1439.91 1040.89,1439.91 1041.86,1439.91 1041.86,1354.72 1042.84,1354.72 1042.84,1246.83 1043.81,1246.83 1043.81,1026.56 1044.78,1026.56 1044.78,855.517 1045.76,855.517 1045.76,678.175 1046.73,678.175 1046.73,507.132 1047.71,507.132 1047.71,286.864 1048.68,286.864 1048.68,178.967 1049.65,178.967 1049.65,93.7772 1050.63,93.7772 1051.6,93.7772 1051.6,139.687 1052.57,139.687 1052.57,286.864 1053.55,286.864 1053.55,427.411 1054.52,427.411 1054.52,678.175 1055.49,678.175 1055.49,855.517 1056.47,855.517 1056.47,1026.56 1057.44,1026.56 1057.44,1246.83 1058.42,1246.83 1058.42,1354.72 1059.39,1354.72 1059.39,1439.91 1060.36,1439.91 1061.34,1439.91 1061.34,1394 1062.31,1394 1062.31,1246.83 1063.28,1246.83 1063.28,1106.28 1064.26,1106.28 1064.26,855.517 1065.23,855.517 1065.23,766.846 1066.2,766.846 1066.2,507.132 1067.18,507.132 1067.18,353.657 1068.15,353.657 1068.15,178.967 1069.12,178.967 1069.12,111.18 1070.1,111.18 1070.1,87.9763 1071.07,87.9763 1071.07,139.687 1072.05,139.687 1072.05,228.192 1073.02,228.192 1073.02,427.411 1073.99,427.411 1073.99,591.162 1074.97,591.162 1074.97,766.846 1075.94,766.846 1075.94,1026.56 1076.91,1026.56 1076.91,1180.03 1077.89,1180.03 1077.89,1354.72 1078.86,1354.72 1078.86,1422.51 1079.83,1422.51 1079.83,1445.72 1080.81,1445.72 1080.81,1394 1081.78,1394 1081.78,1305.5 1082.76,1305.5 1082.76,1106.28 1083.73,1106.28 1083.73,942.53 1084.7,942.53 1084.7,766.846 1085.68,766.846 1085.68,591.162 1086.65,591.162 1086.65,353.657 1087.62,353.657 1087.62,228.192 1088.6,228.192 1088.6,111.18 1089.57,111.18 1089.57,87.9763 1090.54,87.9763 1090.54,111.18 1091.52,111.18 1091.52,228.192 1092.49,228.192 1092.49,353.657 1093.46,353.657 1093.46,591.162 1094.44,591.162 1094.44,766.846 1095.41,766.846 1095.41,942.53 1096.39,942.53 1096.39,1180.03 1097.36,1180.03 1097.36,1305.5 1098.33,1305.5 1098.33,1422.51 1099.31,1422.51 1099.31,1445.72 1100.28,1445.72 1100.28,1422.51 1101.25,1422.51 1101.25,1305.5 1102.23,1305.5 1102.23,1180.03 1103.2,1180.03 1103.2,942.53 1104.17,942.53 1104.17,766.846 1105.15,766.846 1105.15,591.162 1106.12,591.162 1106.12,427.411 1107.1,427.411 1107.1,228.192 1108.07,228.192 1108.07,139.687 1109.04,139.687 1109.04,87.9763 1110.02,87.9763 1110.02,111.18 1110.99,111.18 1110.99,178.967 1111.96,178.967 1111.96,353.657 1112.94,353.657 1112.94,507.132 1113.91,507.132 1113.91,766.846 1114.88,766.846 1114.88,942.53 1115.86,942.53 1115.86,1106.28 1116.83,1106.28 1116.83,1305.5 1117.8,1305.5 1117.8,1394 1118.78,1394 1118.78,1445.72 1119.75,1445.72 1119.75,1422.51 1120.73,1422.51 1120.73,1354.72 1121.7,1354.72 1121.7,1180.03 1122.67,1180.03 1122.67,1026.56 1123.65,1026.56 1123.65,766.846 1124.62,766.846 1124.62,678.175 1125.59,678.175 1125.59,427.411 1126.57,427.411 1126.57,286.864 1127.54,286.864 1127.54,139.687 1128.51,139.687 1128.51,93.7772 1129.49,93.7772 1130.46,93.7772 1130.46,178.967 1131.43,178.967 1131.43,286.864 1132.41,286.864 1132.41,507.132 1133.38,507.132 1133.38,678.175 1134.36,678.175 1134.36,855.517 1135.33,855.517 1135.33,1106.28 1136.3,1106.28 1136.3,1246.83 1137.28,1246.83 1137.28,1394 1138.25,1394 1138.25,1439.91 1139.22,1439.91 1140.2,1439.91 1140.2,1354.72 1141.17,1354.72 1141.17,1246.83 1142.14,1246.83 1142.14,1026.56 1143.12,1026.56 1143.12,855.517 1144.09,855.517 1144.09,678.175 1145.07,678.175 1145.07,507.132 1146.04,507.132 1146.04,286.864 1147.01,286.864 1147.01,178.967 1147.99,178.967 1147.99,93.7772 1148.96,93.7772 1149.93,93.7772 1149.93,139.687 1150.91,139.687 1150.91,286.864 1151.88,286.864 1151.88,427.411 1152.85,427.411 1152.85,678.175 1153.83,678.175 1153.83,855.517 1154.8,855.517 1154.8,1026.56 1155.77,1026.56 1155.77,1246.83 1156.75,1246.83 1156.75,1354.72 1157.72,1354.72 1157.72,1439.91 1158.7,1439.91 1159.67,1439.91 1159.67,1394 1160.64,1394 1160.64,1246.83 1161.62,1246.83 1161.62,1106.28 1162.59,1106.28 1162.59,855.517 1163.56,855.517 1163.56,766.846 1164.54,766.846 1164.54,507.132 1165.51,507.132 1165.51,353.657 1166.48,353.657 1166.48,178.967 1167.46,178.967 1167.46,111.18 1168.43,111.18 1168.43,87.9763 1169.41,87.9763 1169.41,139.687 1170.38,139.687 1170.38,228.192 1171.35,228.192 1171.35,427.411 1172.33,427.411 1172.33,591.162 1173.3,591.162 1173.3,766.846 1174.27,766.846 1174.27,1026.56 1175.25,1026.56 1175.25,1180.03 1176.22,1180.03 1176.22,1354.72 1177.19,1354.72 1177.19,1422.51 1178.17,1422.51 1178.17,1445.72 1179.14,1445.72 1179.14,1394 1180.11,1394 1180.11,1305.5 1181.09,1305.5 1181.09,1106.28 1182.06,1106.28 1182.06,942.53 1183.04,942.53 1183.04,766.846 1184.01,766.846 1184.01,591.162 1184.98,591.162 1184.98,353.657 1185.96,353.657 1185.96,228.192 1186.93,228.192 1186.93,111.18 1187.9,111.18 1187.9,87.9763 1188.88,87.9763 1188.88,111.18 1189.85,111.18 1189.85,228.192 1190.82,228.192 1190.82,353.657 1191.8,353.657 1191.8,591.162 1192.77,591.162 1192.77,766.846 1193.75,766.846 1193.75,942.53 1194.72,942.53 1194.72,1180.03 1195.69,1180.03 1195.69,1305.5 1196.67,1305.5 1196.67,1422.51 1197.64,1422.51 1197.64,1445.72 1198.61,1445.72 1198.61,1422.51 1199.59,1422.51 1199.59,1305.5 1200.56,1305.5 1200.56,1180.03 1201.53,1180.03 1201.53,942.53 1202.51,942.53 1202.51,766.846 1203.48,766.846 1203.48,591.162 1204.45,591.162 1204.45,427.411 1205.43,427.411 1205.43,228.192 1206.4,228.192 1206.4,139.687 1207.38,139.687 1207.38,87.9763 1208.35,87.9763 1208.35,111.18 1209.32,111.18 1209.32,178.967 1210.3,178.967 1210.3,353.657 1211.27,353.657 1211.27,507.132 1212.24,507.132 1212.24,766.846 1213.22,766.846 1213.22,942.53 1214.19,942.53 1214.19,1106.28 1215.16,1106.28 1215.16,1305.5 1216.14,1305.5 1216.14,1394 1217.11,1394 1217.11,1445.72 1218.09,1445.72 1218.09,1422.51 1219.06,1422.51 1219.06,1354.72 1220.03,1354.72 1220.03,1180.03 1221.01,1180.03 1221.01,1026.56 1221.98,1026.56 1221.98,766.846 1222.95,766.846 1222.95,678.175 1223.93,678.175 1223.93,427.411 1224.9,427.411 1224.9,286.864 1225.87,286.864 1225.87,139.687 1226.85,139.687 1226.85,93.7772 1227.82,93.7772 1228.79,93.7772 1228.79,178.967 1229.77,178.967 1229.77,286.864 1230.74,286.864 1230.74,507.132 1231.72,507.132 1231.72,678.175 1232.69,678.175 1232.69,855.517 1233.66,855.517 1233.66,1106.28 1234.64,1106.28 1234.64,1246.83 1235.61,1246.83 1235.61,1394 1236.58,1394 1236.58,1439.91 1237.56,1439.91 1238.53,1439.91 1238.53,1354.72 1239.5,1354.72 1239.5,1246.83 1240.48,1246.83 1240.48,1026.56 1241.45,1026.56 1241.45,855.517 1242.43,855.517 1242.43,678.175 1243.4,678.175 1243.4,507.132 1244.37,507.132 1244.37,286.864 1245.35,286.864 1245.35,178.967 1246.32,178.967 1246.32,93.7772 1247.29,93.7772 1248.27,93.7772 1248.27,139.687 1249.24,139.687 1249.24,286.864 1250.21,286.864 1250.21,427.411 1251.19,427.411 1251.19,678.175 1252.16,678.175 1252.16,855.517 1253.13,855.517 1253.13,1026.56 1254.11,1026.56 1254.11,1246.83 1255.08,1246.83 1255.08,1354.72 1256.06,1354.72 1256.06,1439.91 1257.03,1439.91 1258,1439.91 1258,1394 1258.98,1394 1258.98,1246.83 1259.95,1246.83 1259.95,1106.28 1260.92,1106.28 1260.92,855.517 1261.9,855.517 1261.9,766.846 1262.87,766.846 1262.87,507.132 1263.84,507.132 1263.84,353.657 1264.82,353.657 1264.82,178.967 1265.79,178.967 1265.79,111.18 1266.77,111.18 1266.77,87.9763 1267.74,87.9763 1267.74,139.687 1268.71,139.687 1268.71,228.192 1269.69,228.192 1269.69,427.411 1270.66,427.411 1270.66,591.162 1271.63,591.162 1271.63,766.846 1272.61,766.846 1272.61,1026.56 1273.58,1026.56 1273.58,1180.03 1274.55,1180.03 1274.55,1354.72 1275.53,1354.72 1275.53,1422.51 1276.5,1422.51 1276.5,1445.72 1277.47,1445.72 1277.47,1394 1278.45,1394 1278.45,1305.5 1279.42,1305.5 1279.42,1106.28 1280.4,1106.28 1280.4,942.53 1281.37,942.53 1281.37,766.846 1282.34,766.846 1282.34,591.162 1283.32,591.162 1283.32,353.657 1284.29,353.657 1284.29,228.192 1285.26,228.192 1285.26,111.18 1286.24,111.18 1286.24,87.9763 1287.21,87.9763 1287.21,111.18 1288.18,111.18 1288.18,228.192 1289.16,228.192 1289.16,353.657 1290.13,353.657 1290.13,591.162 1291.11,591.162 1291.11,766.846 1292.08,766.846 1292.08,942.53 1293.05,942.53 1293.05,1180.03 1294.03,1180.03 1294.03,1305.5 1295,1305.5 1295,1422.51 1295.97,1422.51 1295.97,1445.72 1296.95,1445.72 1296.95,1422.51 1297.92,1422.51 1297.92,1305.5 1298.89,1305.5 1298.89,1180.03 1299.87,1180.03 1299.87,942.53 1300.84,942.53 1300.84,766.846 1301.81,766.846 1301.81,591.162 1302.79,591.162 1302.79,427.411 1303.76,427.411 1303.76,228.192 1304.74,228.192 1304.74,139.687 1305.71,139.687 1305.71,87.9763 1306.68,87.9763 1306.68,111.18 1307.66,111.18 1307.66,178.967 1308.63,178.967 1308.63,353.657 1309.6,353.657 1309.6,507.132 1310.58,507.132 1310.58,766.846 1311.55,766.846 1311.55,942.53 1312.52,942.53 1312.52,1106.28 1313.5,1106.28 1313.5,1305.5 1314.47,1305.5 1314.47,1394 1315.45,1394 1315.45,1445.72 1316.42,1445.72 1316.42,1422.51 1317.39,1422.51 1317.39,1354.72 1318.37,1354.72 1318.37,1180.03 1319.34,1180.03 1319.34,1026.56 1320.31,1026.56 1320.31,766.846 1321.29,766.846 1321.29,678.175 1322.26,678.175 1322.26,427.411 1323.23,427.411 1323.23,286.864 1324.21,286.864 1324.21,139.687 1325.18,139.687 1325.18,93.7772 1326.15,93.7772 1327.13,93.7772 1327.13,178.967 1328.1,178.967 1328.1,286.864 1329.08,286.864 1329.08,507.132 1330.05,507.132 1330.05,678.175 1331.02,678.175 1331.02,855.517 1332,855.517 1332,1106.28 1332.97,1106.28 1332.97,1246.83 1333.94,1246.83 1333.94,1394 1334.92,1394 1334.92,1439.91 1335.89,1439.91 1336.86,1439.91 1336.86,1354.72 1337.84,1354.72 1337.84,1246.83 1338.81,1246.83 1338.81,1026.56 1339.79,1026.56 1339.79,855.517 1340.76,855.517 1340.76,678.175 1341.73,678.175 1341.73,507.132 1342.71,507.132 1342.71,286.864 1343.68,286.864 1343.68,178.967 1344.65,178.967 1344.65,93.7772 1345.63,93.7772 1346.6,93.7772 1346.6,139.687 1347.57,139.687 1347.57,286.864 1348.55,286.864 1348.55,427.411 1349.52,427.411 1349.52,678.175 1350.49,678.175 1350.49,855.517 1351.47,855.517 1351.47,1026.56 1352.44,1026.56 1352.44,1246.83 1353.42,1246.83 1353.42,1354.72 1354.39,1354.72 1354.39,1439.91 1355.36,1439.91 1356.34,1439.91 1356.34,1394 1357.31,1394 1357.31,1246.83 1358.28,1246.83 1358.28,1106.28 1359.26,1106.28 1359.26,855.517 1360.23,855.517 1360.23,766.846 1361.2,766.846 1361.2,507.132 1362.18,507.132 1362.18,353.657 1363.15,353.657 1363.15,178.967 1364.13,178.967 1364.13,111.18 1365.1,111.18 1365.1,87.9763 1366.07,87.9763 1366.07,139.687 1367.05,139.687 1367.05,228.192 1368.02,228.192 1368.02,427.411 1368.99,427.411 1368.99,591.162 1369.97,591.162 1369.97,766.846 1370.94,766.846 1370.94,1026.56 1371.91,1026.56 1371.91,1180.03 1372.89,1180.03 1372.89,1354.72 1373.86,1354.72 1373.86,1422.51 1374.83,1422.51 1374.83,1445.72 1375.81,1445.72 1375.81,1394 1376.78,1394 1376.78,1305.5 1377.76,1305.5 1377.76,1106.28 1378.73,1106.28 1378.73,942.53 1379.7,942.53 1379.7,766.846 1380.68,766.846 1380.68,591.162 1381.65,591.162 1381.65,353.657 1382.62,353.657 1382.62,228.192 1383.6,228.192 1383.6,111.18 1384.57,111.18 1384.57,87.9763 1385.54,87.9763 1385.54,111.18 1386.52,111.18 1386.52,228.192 1387.49,228.192 1387.49,353.657 1388.47,353.657 1388.47,591.162 1389.44,591.162 1389.44,766.846 1390.41,766.846 1390.41,942.53 1391.39,942.53 1391.39,1180.03 1392.36,1180.03 1392.36,1305.5 1393.33,1305.5 1393.33,1422.51 1394.31,1422.51 1394.31,1445.72 1395.28,1445.72 1395.28,1422.51 1396.25,1422.51 1396.25,1305.5 1397.23,1305.5 1397.23,1180.03 1398.2,1180.03 1398.2,942.53 1399.17,942.53 1399.17,766.846 1400.15,766.846 1400.15,591.162 1401.12,591.162 1401.12,427.411 1402.1,427.411 1402.1,228.192 1403.07,228.192 1403.07,139.687 1404.04,139.687 1404.04,87.9763 1405.02,87.9763 1405.02,111.18 1405.99,111.18 1405.99,178.967 1406.96,178.967 1406.96,353.657 1407.94,353.657 1407.94,507.132 1408.91,507.132 1408.91,766.846 1409.88,766.846 1409.88,942.53 1410.86,942.53 1410.86,1106.28 1411.83,1106.28 1411.83,1305.5 1412.8,1305.5 1412.8,1394 1413.78,1394 1413.78,1445.72 1414.75,1445.72 1414.75,1422.51 1415.73,1422.51 1415.73,1354.72 1416.7,1354.72 1416.7,1180.03 1417.67,1180.03 1417.67,1026.56 1418.65,1026.56 1418.65,766.846 1419.62,766.846 1419.62,678.175 1420.59,678.175 1420.59,427.411 1421.57,427.411 1421.57,286.864 1422.54,286.864 1422.54,139.687 1423.51,139.687 1423.51,93.7772 1424.49,93.7772 1425.46,93.7772 1425.46,178.967 1426.44,178.967 1426.44,286.864 1427.41,286.864 1427.41,507.132 1428.38,507.132 1428.38,678.175 1429.36,678.175 1429.36,855.517 1430.33,855.517 1430.33,1106.28 1431.3,1106.28 1431.3,1246.83 1432.28,1246.83 1432.28,1394 1433.25,1394 1433.25,1439.91 1434.22,1439.91 1435.2,1439.91 1435.2,1354.72 1436.17,1354.72 1436.17,1246.83 1437.14,1246.83 1437.14,1026.56 1438.12,1026.56 1438.12,855.517 1439.09,855.517 1439.09,678.175 1440.07,678.175 1440.07,507.132 1441.04,507.132 1441.04,286.864 1442.01,286.864 1442.01,178.967 1442.99,178.967 1442.99,93.7772 1443.96,93.7772 1444.93,93.7772 1444.93,139.687 1445.91,139.687 1445.91,286.864 1446.88,286.864 1446.88,427.411 1447.85,427.411 1447.85,678.175 1448.83,678.175 1448.83,855.517 1449.8,855.517 1449.8,1026.56 1450.78,1026.56 1450.78,1246.83 1451.75,1246.83 1451.75,1354.72 1452.72,1354.72 1452.72,1439.91 1453.7,1439.91 1454.67,1439.91 1454.67,1394 1455.64,1394 1455.64,1246.83 1456.62,1246.83 1456.62,1106.28 1457.59,1106.28 1457.59,855.517 1458.56,855.517 1458.56,766.846 1459.54,766.846 1459.54,507.132 1460.51,507.132 1460.51,353.657 1461.48,353.657 1461.48,178.967 1462.46,178.967 1462.46,111.18 1463.43,111.18 1463.43,87.9763 1464.41,87.9763 1464.41,139.687 1465.38,139.687 1465.38,228.192 1466.35,228.192 1466.35,427.411 1467.33,427.411 1467.33,591.162 1468.3,591.162 1468.3,766.846 1469.27,766.846 1469.27,1026.56 1470.25,1026.56 1470.25,1180.03 1471.22,1180.03 1471.22,1354.72 1472.19,1354.72 1472.19,1422.51 1473.17,1422.51 1473.17,1445.72 1474.14,1445.72 1474.14,1394 1475.12,1394 1475.12,1305.5 1476.09,1305.5 1476.09,1106.28 1477.06,1106.28 1477.06,942.53 1478.04,942.53 1478.04,766.846 1479.01,766.846 1479.01,591.162 1479.98,591.162 1479.98,353.657 1480.96,353.657 1480.96,228.192 1481.93,228.192 1481.93,111.18 1482.9,111.18 1482.9,87.9763 1483.88,87.9763 1483.88,111.18 1484.85,111.18 1484.85,228.192 1485.82,228.192 1485.82,353.657 1486.8,353.657 1486.8,591.162 1487.77,591.162 1487.77,766.846 1488.75,766.846 1488.75,942.53 1489.72,942.53 1489.72,1180.03 1490.69,1180.03 1490.69,1305.5 1491.67,1305.5 1491.67,1422.51 1492.64,1422.51 1492.64,1445.72 1493.61,1445.72 1493.61,1422.51 1494.59,1422.51 1494.59,1305.5 1495.56,1305.5 1495.56,1180.03 1496.53,1180.03 1496.53,942.53 1497.51,942.53 1497.51,766.846 1498.48,766.846 1498.48,591.162 1499.46,591.162 1499.46,427.411 1500.43,427.411 1500.43,228.192 1501.4,228.192 1501.4,139.687 1502.38,139.687 1502.38,87.9763 1503.35,87.9763 1503.35,111.18 1504.32,111.18 1504.32,178.967 1505.3,178.967 1505.3,353.657 1506.27,353.657 1506.27,507.132 1507.24,507.132 1507.24,766.846 1508.22,766.846 1508.22,942.53 1509.19,942.53 1509.19,1106.28 1510.16,1106.28 1510.16,1305.5 1511.14,1305.5 1511.14,1394 1512.11,1394 1512.11,1445.72 1513.09,1445.72 1513.09,1422.51 1514.06,1422.51 1514.06,1354.72 1515.03,1354.72 1515.03,1180.03 1516.01,1180.03 1516.01,1026.56 1516.98,1026.56 1516.98,766.846 1517.95,766.846 1517.95,678.175 1518.93,678.175 1518.93,427.411 1519.9,427.411 1519.9,286.864 1520.87,286.864 1520.87,139.687 1521.85,139.687 1521.85,93.7772 1522.82,93.7772 1523.8,93.7772 1523.8,178.967 1524.77,178.967 1524.77,286.864 1525.74,286.864 1525.74,507.132 1526.72,507.132 1526.72,678.175 1527.69,678.175 1527.69,855.517 1528.66,855.517 1528.66,1106.28 1529.64,1106.28 1529.64,1246.83 1530.61,1246.83 1530.61,1394 1531.58,1394 1531.58,1439.91 1532.56,1439.91 1533.53,1439.91 1533.53,1354.72 1534.5,1354.72 1534.5,1246.83 1535.48,1246.83 1535.48,1026.56 1536.45,1026.56 1536.45,855.517 1537.43,855.517 1537.43,678.175 1538.4,678.175 1538.4,507.132 1539.37,507.132 1539.37,286.864 1540.35,286.864 1540.35,178.967 1541.32,178.967 1541.32,93.7772 1542.29,93.7772 1543.27,93.7772 1543.27,139.687 1544.24,139.687 1544.24,286.864 1545.21,286.864 1545.21,427.411 1546.19,427.411 1546.19,678.175 1547.16,678.175 1547.16,855.517 1548.14,855.517 1548.14,1026.56 1549.11,1026.56 1549.11,1246.83 1550.08,1246.83 1550.08,1354.72 1551.06,1354.72 1551.06,1439.91 1552.03,1439.91 1553,1439.91 1553,1394 1553.98,1394 1553.98,1246.83 1554.95,1246.83 1554.95,1106.28 1555.92,1106.28 1555.92,855.517 1556.9,855.517 1556.9,766.846 1557.87,766.846 1557.87,507.132 1558.84,507.132 1558.84,353.657 1559.82,353.657 1559.82,178.967 1560.79,178.967 1560.79,111.18 1561.77,111.18 1561.77,87.9763 1562.74,87.9763 1562.74,139.687 1563.71,139.687 1563.71,228.192 1564.69,228.192 1564.69,427.411 1565.66,427.411 1565.66,591.162 1566.63,591.162 1566.63,766.846 1567.61,766.846 1567.61,1026.56 1568.58,1026.56 1568.58,1180.03 1569.55,1180.03 1569.55,1354.72 1570.53,1354.72 1570.53,1422.51 1571.5,1422.51 1571.5,1445.72 1572.48,1445.72 1572.48,1394 1573.45,1394 1573.45,1305.5 1574.42,1305.5 1574.42,1106.28 1575.4,1106.28 1575.4,942.53 1576.37,942.53 1576.37,766.846 1577.34,766.846 1577.34,591.162 1578.32,591.162 1578.32,353.657 1579.29,353.657 1579.29,228.192 1580.26,228.192 1580.26,111.18 1581.24,111.18 1581.24,87.9763 1582.21,87.9763 1582.21,111.18 1583.18,111.18 1583.18,228.192 1584.16,228.192 1584.16,353.657 1585.13,353.657 1585.13,591.162 1586.11,591.162 1586.11,766.846 1587.08,766.846 1587.08,942.53 1588.05,942.53 1588.05,1180.03 1589.03,1180.03 1589.03,1305.5 1590,1305.5 1590,1422.51 1590.97,1422.51 1590.97,1445.72 1591.95,1445.72 1591.95,1422.51 1592.92,1422.51 1592.92,1305.5 1593.89,1305.5 1593.89,1180.03 1594.87,1180.03 1594.87,942.53 1595.84,942.53 1595.84,766.846 1596.82,766.846 1596.82,591.162 1597.79,591.162 1597.79,427.411 1598.76,427.411 1598.76,228.192 1599.74,228.192 1599.74,139.687 1600.71,139.687 1600.71,87.9763 1601.68,87.9763 1601.68,111.18 1602.66,111.18 1602.66,178.967 1603.63,178.967 1603.63,353.657 1604.6,353.657 1604.6,507.132 1605.58,507.132 1605.58,766.846 1606.55,766.846 1606.55,942.53 1607.52,942.53 1607.52,1106.28 1608.5,1106.28 1608.5,1305.5 1609.47,1305.5 1609.47,1394 1610.45,1394 1610.45,1445.72 1611.42,1445.72 1611.42,1422.51 1612.39,1422.51 1612.39,1354.72 1613.37,1354.72 1613.37,1180.03 1614.34,1180.03 1614.34,1026.56 1615.31,1026.56 1615.31,766.846 1616.29,766.846 1616.29,678.175 1617.26,678.175 1617.26,427.411 1618.23,427.411 1618.23,286.864 1619.21,286.864 1619.21,139.687 1620.18,139.687 1620.18,93.7772 1621.16,93.7772 1622.13,93.7772 1622.13,178.967 1623.1,178.967 1623.1,286.864 1624.08,286.864 1624.08,507.132 1625.05,507.132 1625.05,678.175 1626.02,678.175 1626.02,855.517 1627,855.517 1627,1106.28 1627.97,1106.28 1627.97,1246.83 1628.94,1246.83 1628.94,1394 1629.92,1394 1629.92,1439.91 1630.89,1439.91 1631.86,1439.91 1631.86,1354.72 1632.84,1354.72 1632.84,1246.83 1633.81,1246.83 1633.81,1026.56 1634.79,1026.56 1634.79,855.517 1635.76,855.517 1635.76,678.175 1636.73,678.175 1636.73,507.132 1637.71,507.132 1637.71,286.864 1638.68,286.864 1638.68,178.967 1639.65,178.967 1639.65,93.7772 1640.63,93.7772 1641.6,93.7772 1641.6,139.687 1642.57,139.687 1642.57,286.864 1643.55,286.864 1643.55,427.411 1644.52,427.411 1644.52,678.175 1645.5,678.175 1645.5,855.517 1646.47,855.517 1646.47,1026.56 1647.44,1026.56 1647.44,1246.83 1648.42,1246.83 1648.42,1354.72 1649.39,1354.72 1649.39,1439.91 1650.36,1439.91 1651.34,1439.91 1651.34,1394 1652.31,1394 1652.31,1246.83 1653.28,1246.83 1653.28,1106.28 1654.26,1106.28 1654.26,855.517 1655.23,855.517 1655.23,766.846 1656.2,766.846 1656.2,507.132 1657.18,507.132 1657.18,353.657 1658.15,353.657 1658.15,178.967 1659.13,178.967 1659.13,111.18 1660.1,111.18 1660.1,87.9763 1661.07,87.9763 1661.07,139.687 1662.05,139.687 1662.05,228.192 1663.02,228.192 1663.02,427.411 1663.99,427.411 1663.99,591.162 1664.97,591.162 1664.97,766.846 1665.94,766.846 1665.94,1026.56 1666.91,1026.56 1666.91,1180.03 1667.89,1180.03 1667.89,1354.72 1668.86,1354.72 1668.86,1422.51 1669.83,1422.51 1669.83,1445.72 1670.81,1445.72 1670.81,1394 1671.78,1394 1671.78,1305.5 1672.76,1305.5 1672.76,1106.28 1673.73,1106.28 1673.73,942.53 1674.7,942.53 1674.7,766.846 1675.68,766.846 1675.68,591.162 1676.65,591.162 1676.65,353.657 1677.62,353.657 1677.62,228.192 1678.6,228.192 1678.6,111.18 1679.57,111.18 1679.57,87.9763 1680.54,87.9763 1680.54,111.18 1681.52,111.18 1681.52,228.192 1682.49,228.192 1682.49,353.657 1683.47,353.657 1683.47,591.162 1684.44,591.162 1684.44,766.846 1685.41,766.846 1685.41,942.53 1686.39,942.53 1686.39,1180.03 1687.36,1180.03 1687.36,1305.5 1688.33,1305.5 1688.33,1422.51 1689.31,1422.51 1689.31,1445.72 1690.28,1445.72 1690.28,1422.51 1691.25,1422.51 1691.25,1305.5 1692.23,1305.5 1692.23,1180.03 1693.2,1180.03 1693.2,942.53 1694.17,942.53 1694.17,766.846 1695.15,766.846 1695.15,591.162 1696.12,591.162 1696.12,427.411 1697.1,427.411 1697.1,228.192 1698.07,228.192 1698.07,139.687 1699.04,139.687 1699.04,87.9763 1700.02,87.9763 1700.02,111.18 1700.99,111.18 1700.99,178.967 1701.96,178.967 1701.96,353.657 1702.94,353.657 1702.94,507.132 1703.91,507.132 1703.91,766.846 1704.88,766.846 1704.88,942.53 1705.86,942.53 1705.86,1106.28 1706.83,1106.28 1706.83,1305.5 1707.81,1305.5 1707.81,1394 1708.78,1394 1708.78,1445.72 1709.75,1445.72 1709.75,1422.51 1710.73,1422.51 1710.73,1354.72 1711.7,1354.72 1711.7,1180.03 1712.67,1180.03 1712.67,1026.56 1713.65,1026.56 1713.65,766.846 1714.62,766.846 1714.62,678.175 1715.59,678.175 1715.59,427.411 1716.57,427.411 1716.57,286.864 1717.54,286.864 1717.54,139.687 1718.51,139.687 1718.51,93.7772 1719.49,93.7772 1720.46,93.7772 1720.46,178.967 1721.44,178.967 1721.44,286.864 1722.41,286.864 1722.41,507.132 1723.38,507.132 1723.38,678.175 1724.36,678.175 1724.36,855.517 1725.33,855.517 1725.33,1106.28 1726.3,1106.28 1726.3,1246.83 1727.28,1246.83 1727.28,1394 1728.25,1394 1728.25,1439.91 1729.22,1439.91 1730.2,1439.91 1730.2,1354.72 1731.17,1354.72 1731.17,1246.83 1732.15,1246.83 1732.15,1026.56 1733.12,1026.56 1733.12,855.517 1734.09,855.517 1734.09,678.175 1735.07,678.175 1735.07,507.132 1736.04,507.132 1736.04,286.864 1737.01,286.864 1737.01,178.967 1737.99,178.967 1737.99,93.7772 1738.96,93.7772 1739.93,93.7772 1739.93,139.687 1740.91,139.687 1740.91,286.864 1741.88,286.864 1741.88,427.411 1742.85,427.411 1742.85,678.175 1743.83,678.175 1743.83,855.517 1744.8,855.517 1744.8,1026.56 1745.78,1026.56 1745.78,1246.83 1746.75,1246.83 1746.75,1354.72 1747.72,1354.72 1747.72,1439.91 1748.7,1439.91 1749.67,1439.91 1749.67,1394 1750.64,1394 1750.64,1246.83 1751.62,1246.83 1751.62,1106.28 1752.59,1106.28 1752.59,855.517 1753.56,855.517 1753.56,766.846 1754.54,766.846 1754.54,507.132 1755.51,507.132 1755.51,353.657 1756.49,353.657 1756.49,178.967 1757.46,178.967 1757.46,111.18 1758.43,111.18 1758.43,87.9763 1759.41,87.9763 1759.41,139.687 1760.38,139.687 1760.38,228.192 1761.35,228.192 1761.35,427.411 1762.33,427.411 1762.33,591.162 1763.3,591.162 1763.3,766.846 1764.27,766.846 1764.27,1026.56 1765.25,1026.56 1765.25,1180.03 1766.22,1180.03 1766.22,1354.72 1767.19,1354.72 1767.19,1422.51 1768.17,1422.51 1768.17,1445.72 1769.14,1445.72 1769.14,1394 1770.12,1394 1770.12,1305.5 1771.09,1305.5 1771.09,1106.28 1772.06,1106.28 1772.06,942.53 1773.04,942.53 1773.04,766.846 1774.01,766.846 1774.01,591.162 1774.98,591.162 1774.98,353.657 1775.96,353.657 1775.96,228.192 1776.93,228.192 1776.93,111.18 1777.9,111.18 1777.9,87.9763 1778.88,87.9763 1778.88,111.18 1779.85,111.18 1779.85,228.192 1780.83,228.192 1780.83,353.657 1781.8,353.657 1781.8,591.162 1782.77,591.162 1782.77,766.846 1783.75,766.846 1783.75,942.53 1784.72,942.53 1784.72,1180.03 1785.69,1180.03 1785.69,1305.5 1786.67,1305.5 1786.67,1422.51 1787.64,1422.51 1787.64,1445.72 1788.61,1445.72 1788.61,1422.51 1789.59,1422.51 1789.59,1305.5 1790.56,1305.5 1790.56,1180.03 1791.53,1180.03 1791.53,942.53 1792.51,942.53 1792.51,766.846 1793.48,766.846 1793.48,591.162 1794.46,591.162 1794.46,427.411 1795.43,427.411 1795.43,228.192 1796.4,228.192 1796.4,139.687 1797.38,139.687 1797.38,87.9763 1798.35,87.9763 1798.35,111.18 1799.32,111.18 1799.32,178.967 1800.3,178.967 1800.3,353.657 1801.27,353.657 1801.27,507.132 1802.24,507.132 1802.24,766.846 1803.22,766.846 1803.22,942.53 1804.19,942.53 1804.19,1106.28 1805.17,1106.28 1805.17,1305.5 1806.14,1305.5 1806.14,1394 1807.11,1394 1807.11,1445.72 1808.09,1445.72 1808.09,1422.51 1809.06,1422.51 1809.06,1354.72 1810.03,1354.72 1810.03,1180.03 1811.01,1180.03 1811.01,1026.56 1811.98,1026.56 1811.98,766.846 1812.95,766.846 1812.95,678.175 1813.93,678.175 1813.93,427.411 1814.9,427.411 1814.9,286.864 1815.87,286.864 1815.87,139.687 1816.85,139.687 1816.85,93.7772 1817.82,93.7772 1818.8,93.7772 1818.8,178.967 1819.77,178.967 1819.77,286.864 1820.74,286.864 1820.74,507.132 1821.72,507.132 1821.72,678.175 1822.69,678.175 1822.69,855.517 1823.66,855.517 1823.66,1106.28 1824.64,1106.28 1824.64,1246.83 1825.61,1246.83 1825.61,1394 1826.58,1394 1826.58,1439.91 1827.56,1439.91 1828.53,1439.91 1828.53,1354.72 1829.51,1354.72 1829.51,1246.83 1830.48,1246.83 1830.48,1026.56 1831.45,1026.56 1831.45,855.517 1832.43,855.517 1832.43,678.175 1833.4,678.175 1833.4,507.132 1834.37,507.132 1834.37,286.864 1835.35,286.864 1835.35,178.967 1836.32,178.967 1836.32,93.7772 1837.29,93.7772 1838.27,93.7772 1838.27,139.687 1839.24,139.687 1839.24,286.864 1840.21,286.864 1840.21,427.411 1841.19,427.411 1841.19,678.175 1842.16,678.175 1842.16,855.517 1843.14,855.517 1843.14,1026.56 1844.11,1026.56 1844.11,1246.83 1845.08,1246.83 1845.08,1354.72 1846.06,1354.72 1846.06,1439.91 1847.03,1439.91 1848,1439.91 1848,1394 1848.98,1394 1848.98,1246.83 1849.95,1246.83 1849.95,1106.28 1850.92,1106.28 1850.92,855.517 1851.9,855.517 1851.9,766.846 1852.87,766.846 1852.87,507.132 1853.85,507.132 1853.85,353.657 1854.82,353.657 1854.82,178.967 1855.79,178.967 1855.79,111.18 1856.77,111.18 1856.77,87.9763 1857.74,87.9763 1857.74,139.687 1858.71,139.687 1858.71,228.192 1859.69,228.192 1859.69,427.411 1860.66,427.411 1860.66,591.162 1861.63,591.162 1861.63,766.846 1862.61,766.846 1862.61,1026.56 1863.58,1026.56 1863.58,1180.03 1864.55,1180.03 1864.55,1354.72 1865.53,1354.72 1865.53,1422.51 1866.5,1422.51 1866.5,1445.72 1867.48,1445.72 1867.48,1394 1868.45,1394 1868.45,1305.5 1869.42,1305.5 1869.42,1106.28 1870.4,1106.28 1870.4,942.53 1871.37,942.53 1871.37,766.846 1872.34,766.846 1872.34,591.162 1873.32,591.162 1873.32,353.657 1874.29,353.657 1874.29,228.192 1875.26,228.192 1875.26,111.18 1876.24,111.18 1876.24,87.9763 1877.21,87.9763 1877.21,111.18 1878.19,111.18 1878.19,228.192 1879.16,228.192 1879.16,353.657 1880.13,353.657 1880.13,591.162 1881.11,591.162 1881.11,766.846 1882.08,766.846 1882.08,942.53 1883.05,942.53 1883.05,1180.03 1884.03,1180.03 1884.03,1305.5 1885,1305.5 1885,1422.51 1885.97,1422.51 1885.97,1445.72 1886.95,1445.72 1886.95,1422.51 1887.92,1422.51 1887.92,1305.5 1888.89,1305.5 1888.89,1180.03 1889.87,1180.03 1889.87,942.53 1890.84,942.53 1890.84,766.846 1891.82,766.846 1891.82,591.162 1892.79,591.162 1892.79,427.411 1893.76,427.411 1893.76,228.192 1894.74,228.192 1894.74,139.687 1895.71,139.687 1895.71,87.9763 1896.68,87.9763 1896.68,111.18 1897.66,111.18 1897.66,178.967 1898.63,178.967 1898.63,353.657 1899.6,353.657 1899.6,507.132 1900.58,507.132 1900.58,766.846 1901.55,766.846 1901.55,942.53 1902.53,942.53 1902.53,1106.28 1903.5,1106.28 1903.5,1305.5 1904.47,1305.5 1904.47,1394 1905.45,1394 1905.45,1445.72 1906.42,1445.72 1906.42,1422.51 1907.39,1422.51 1907.39,1354.72 1908.37,1354.72 1908.37,1180.03 1909.34,1180.03 1909.34,1026.56 1910.31,1026.56 1910.31,766.846 1911.29,766.846 1911.29,678.175 1912.26,678.175 1912.26,427.411 1913.23,427.411 1913.23,286.864 1914.21,286.864 1914.21,139.687 1915.18,139.687 1915.18,93.7772 1916.16,93.7772 1917.13,93.7772 1917.13,178.967 1918.1,178.967 1918.1,286.864 1919.08,286.864 1919.08,507.132 1920.05,507.132 1920.05,678.175 1921.02,678.175 1921.02,855.517 1922,855.517 1922,1106.28 1922.97,1106.28 1922.97,1246.83 1923.94,1246.83 1923.94,1394 1924.92,1394 1924.92,1439.91 1925.89,1439.91 1926.86,1439.91 1926.86,1354.72 1927.84,1354.72 1927.84,1246.83 1928.81,1246.83 1928.81,1026.56 1929.79,1026.56 1929.79,855.517 1930.76,855.517 1930.76,678.175 1931.73,678.175 1931.73,507.132 1932.71,507.132 1932.71,286.864 1933.68,286.864 1933.68,178.967 1934.65,178.967 1934.65,93.7772 1935.63,93.7772 1936.6,93.7772 1936.6,139.687 1937.57,139.687 1937.57,286.864 1938.55,286.864 1938.55,427.411 1939.52,427.411 1939.52,678.175 1940.5,678.175 1940.5,855.517 1941.47,855.517 1941.47,1026.56 1942.44,1026.56 1942.44,1246.83 1943.42,1246.83 1943.42,1354.72 1944.39,1354.72 1944.39,1439.91 1945.36,1439.91 1946.34,1439.91 1946.34,1394 1947.31,1394 1947.31,1246.83 1948.28,1246.83 1948.28,1106.28 1949.26,1106.28 1949.26,855.517 1950.23,855.517 1950.23,766.846 1951.2,766.846 1951.2,507.132 1952.18,507.132 1952.18,353.657 1953.15,353.657 1953.15,178.967 1954.13,178.967 1954.13,111.18 1955.1,111.18 1955.1,87.9763 1956.07,87.9763 1956.07,139.687 1957.05,139.687 1957.05,228.192 1958.02,228.192 1958.02,427.411 1958.99,427.411 1958.99,591.162 1959.97,591.162 1959.97,766.846 1960.94,766.846 1960.94,1026.56 1961.91,1026.56 1961.91,1180.03 1962.89,1180.03 1962.89,1354.72 1963.86,1354.72 1963.86,1422.51 1964.84,1422.51 1964.84,1445.72 1965.81,1445.72 1965.81,1394 1966.78,1394 1966.78,1305.5 1967.76,1305.5 1967.76,1106.28 1968.73,1106.28 1968.73,942.53 1969.7,942.53 1969.7,766.846 1970.68,766.846 1970.68,591.162 1971.65,591.162 1971.65,353.657 1972.62,353.657 1972.62,228.192 1973.6,228.192 1973.6,111.18 1974.57,111.18 1974.57,87.9763 1975.54,87.9763 1975.54,111.18 1976.52,111.18 1976.52,228.192 1977.49,228.192 1977.49,353.657 1978.47,353.657 1978.47,591.162 1979.44,591.162 1979.44,766.846 1980.41,766.846 1980.41,942.53 1981.39,942.53 1981.39,1180.03 1982.36,1180.03 1982.36,1305.5 1983.33,1305.5 1983.33,1422.51 1984.31,1422.51 1984.31,1445.72 1985.28,1445.72 1985.28,1422.51 1986.25,1422.51 1986.25,1305.5 1987.23,1305.5 1987.23,1180.03 1988.2,1180.03 1988.2,942.53 1989.18,942.53 1989.18,766.846 1990.15,766.846 1990.15,591.162 1991.12,591.162 1991.12,427.411 1992.1,427.411 1992.1,228.192 1993.07,228.192 1993.07,139.687 1994.04,139.687 1994.04,87.9763 1995.02,87.9763 1995.02,111.18 1995.99,111.18 1995.99,178.967 1996.96,178.967 1996.96,353.657 1997.94,353.657 1997.94,507.132 1998.91,507.132 1998.91,766.846 1999.88,766.846 1999.88,942.53 2000.86,942.53 2000.86,1106.28 2001.83,1106.28 2001.83,1305.5 2002.81,1305.5 2002.81,1394 2003.78,1394 2003.78,1445.72 2004.75,1445.72 2004.75,1422.51 2005.73,1422.51 2005.73,1354.72 2006.7,1354.72 2006.7,1180.03 2007.67,1180.03 2007.67,1026.56 2008.65,1026.56 2008.65,766.846 2009.62,766.846 2009.62,678.175 2010.59,678.175 2010.59,427.411 2011.57,427.411 2011.57,286.864 2012.54,286.864 2012.54,139.687 2013.52,139.687 2013.52,93.7772 2014.49,93.7772 2015.46,93.7772 2015.46,178.967 2016.44,178.967 2016.44,286.864 2017.41,286.864 2017.41,507.132 2018.38,507.132 2018.38,678.175 2019.36,678.175 2019.36,855.517 2020.33,855.517 2020.33,1106.28 2021.3,1106.28 2021.3,1246.83 2022.28,1246.83 2022.28,1394 2023.25,1394 2023.25,1439.91 2024.22,1439.91 2025.2,1439.91 2025.2,1354.72 2026.17,1354.72 2026.17,1246.83 2027.15,1246.83 2027.15,1026.56 2028.12,1026.56 2028.12,855.517 2029.09,855.517 2029.09,678.175 2030.07,678.175 2030.07,507.132 2031.04,507.132 2031.04,286.864 2032.01,286.864 2032.01,178.967 2032.99,178.967 2032.99,93.7772 2033.96,93.7772 2034.93,93.7772 2034.93,139.687 2035.91,139.687 2035.91,286.864 2036.88,286.864 2036.88,427.411 2037.86,427.411 2037.86,678.175 2038.83,678.175 2038.83,855.517 2039.8,855.517 2039.8,1026.56 2040.78,1026.56 2040.78,1246.83 2041.75,1246.83 2041.75,1354.72 2042.72,1354.72 2042.72,1439.91 2043.7,1439.91 2044.67,1439.91 2044.67,1394 2045.64,1394 2045.64,1246.83 2046.62,1246.83 2046.62,1106.28 2047.59,1106.28 2047.59,855.517 2048.56,855.517 2048.56,766.846 2049.54,766.846 2049.54,507.132 2050.51,507.132 2050.51,353.657 2051.49,353.657 2051.49,178.967 2052.46,178.967 2052.46,111.18 2053.43,111.18 2053.43,87.9763 2054.41,87.9763 2054.41,139.687 2055.38,139.687 2055.38,228.192 2056.35,228.192 2056.35,427.411 2057.33,427.411 2057.33,591.162 2058.3,591.162 2058.3,766.846 2059.27,766.846 2059.27,1026.56 2060.25,1026.56 2060.25,1180.03 2061.22,1180.03 2061.22,1354.72 2062.2,1354.72 2062.2,1422.51 2063.17,1422.51 2063.17,1445.72 2064.14,1445.72 2064.14,1394 2065.12,1394 2065.12,1305.5 2066.09,1305.5 2066.09,1106.28 2067.06,1106.28 2067.06,942.53 2068.04,942.53 2068.04,766.846 2069.01,766.846 2069.01,591.162 2069.98,591.162 2069.98,353.657 2070.96,353.657 2070.96,228.192 2071.93,228.192 2071.93,111.18 2072.9,111.18 2072.9,87.9763 2073.88,87.9763 2073.88,111.18 2074.85,111.18 2074.85,228.192 2075.83,228.192 2075.83,353.657 2076.8,353.657 2076.8,591.162 2077.77,591.162 2077.77,766.846 2078.75,766.846 2078.75,942.53 2079.72,942.53 2079.72,1180.03 2080.69,1180.03 2080.69,1305.5 2081.67,1305.5 2081.67,1422.51 2082.64,1422.51 2082.64,1445.72 2083.61,1445.72 2083.61,1422.51 2084.59,1422.51 2084.59,1305.5 2085.56,1305.5 2085.56,1180.03 2086.54,1180.03 2086.54,942.53 2087.51,942.53 2087.51,766.846 2088.48,766.846 2088.48,591.162 2089.46,591.162 2089.46,427.411 2090.43,427.411 2090.43,228.192 2091.4,228.192 2091.4,139.687 2092.38,139.687 2092.38,87.9763 2093.35,87.9763 2093.35,111.18 2094.32,111.18 2094.32,178.967 2095.3,178.967 2095.3,353.657 2096.27,353.657 2096.27,507.132 2097.24,507.132 2097.24,766.846 2098.22,766.846 2098.22,942.53 2099.19,942.53 2099.19,1106.28 2100.17,1106.28 2100.17,1305.5 2101.14,1305.5 2101.14,1394 2102.11,1394 2102.11,1445.72 2103.09,1445.72 2103.09,1422.51 2104.06,1422.51 2104.06,1354.72 2105.03,1354.72 2105.03,1180.03 2106.01,1180.03 2106.01,1026.56 2106.98,1026.56 2106.98,766.846 2107.95,766.846 2107.95,678.175 2108.93,678.175 2108.93,427.411 2109.9,427.411 2109.9,286.864 2110.88,286.864 2110.88,139.687 2111.85,139.687 2111.85,93.7772 2112.82,93.7772 2113.8,93.7772 2113.8,178.967 2114.77,178.967 2114.77,286.864 2115.74,286.864 2115.74,507.132 2116.72,507.132 2116.72,678.175 2117.69,678.175 2117.69,855.517 2118.66,855.517 2118.66,1106.28 2119.64,1106.28 2119.64,1246.83 2120.61,1246.83 2120.61,1394 2121.58,1394 2121.58,1439.91 2122.56,1439.91 2123.53,1439.91 2123.53,1354.72 2124.51,1354.72 2124.51,1246.83 2125.48,1246.83 2125.48,1026.56 2126.45,1026.56 2126.45,855.517 2127.43,855.517 2127.43,678.175 2128.4,678.175 2128.4,507.132 2129.37,507.132 2129.37,286.864 2130.35,286.864 2130.35,178.967 2131.32,178.967 2131.32,93.7772 2132.29,93.7772 2133.27,93.7772 2133.27,139.687 2134.24,139.687 2134.24,286.864 2135.22,286.864 2135.22,427.411 2136.19,427.411 2136.19,678.175 2137.16,678.175 2137.16,855.517 2138.14,855.517 2138.14,1026.56 2139.11,1026.56 2139.11,1246.83 2140.08,1246.83 2140.08,1354.72 2141.06,1354.72 2141.06,1439.91 2142.03,1439.91 2143,1439.91 2143,1394 2143.98,1394 2143.98,1246.83 2144.95,1246.83 2144.95,1106.28 2145.92,1106.28 2145.92,855.517 2146.9,855.517 2146.9,766.846 2147.87,766.846 2147.87,507.132 2148.85,507.132 2148.85,353.657 2149.82,353.657 2149.82,178.967 2150.79,178.967 2150.79,111.18 2151.77,111.18 2151.77,87.9763 2152.74,87.9763 2152.74,139.687 2153.71,139.687 2153.71,228.192 2154.69,228.192 2154.69,427.411 2155.66,427.411 2155.66,591.162 2156.63,591.162 2156.63,766.846 2157.61,766.846 2157.61,1026.56 2158.58,1026.56 2158.58,1180.03 2159.56,1180.03 2159.56,1354.72 2160.53,1354.72 2160.53,1422.51 2161.5,1422.51 2161.5,1445.72 2162.48,1445.72 2162.48,1394 2163.45,1394 2163.45,1305.5 2164.42,1305.5 2164.42,1106.28 2165.4,1106.28 2165.4,942.53 2166.37,942.53 2166.37,766.846 2167.34,766.846 2167.34,591.162 2168.32,591.162 2168.32,353.657 2169.29,353.657 2169.29,228.192 2170.26,228.192 2170.26,111.18 2171.24,111.18 2171.24,87.9763 2172.21,87.9763 2172.21,111.18 2173.19,111.18 2173.19,228.192 2174.16,228.192 2174.16,353.657 2175.13,353.657 2175.13,591.162 2176.11,591.162 2176.11,766.846 2177.08,766.846 2177.08,942.53 2178.05,942.53 2178.05,1180.03 2179.03,1180.03 2179.03,1305.5 2180,1305.5 2180,1422.51 2180.97,1422.51 2180.97,1445.72 2181.95,1445.72 2181.95,1422.51 2182.92,1422.51 2182.92,1305.5 2183.89,1305.5 2183.89,1180.03 2184.87,1180.03 2184.87,942.53 2185.84,942.53 2185.84,766.846 2186.82,766.846 2186.82,591.162 2187.79,591.162 2187.79,427.411 2188.76,427.411 2188.76,228.192 2189.74,228.192 2189.74,139.687 2190.71,139.687 2190.71,87.9763 2191.68,87.9763 2191.68,111.18 2192.66,111.18 2192.66,178.967 2193.63,178.967 2193.63,353.657 2194.6,353.657 2194.6,507.132 2195.58,507.132 2195.58,766.846 2196.55,766.846 2196.55,942.53 2197.53,942.53 2197.53,1106.28 2198.5,1106.28 2198.5,1305.5 2199.47,1305.5 2199.47,1394 2200.45,1394 2200.45,1445.72 2201.42,1445.72 2201.42,1422.51 2202.39,1422.51 2202.39,1354.72 2203.37,1354.72 2203.37,1180.03 2204.34,1180.03 2204.34,1026.56 2205.31,1026.56 2205.31,766.846 2206.29,766.846 2206.29,678.175 2207.26,678.175 2207.26,427.411 2208.23,427.411 2208.23,286.864 2209.21,286.864 2209.21,139.687 2210.18,139.687 2210.18,93.7772 2211.16,93.7772 2212.13,93.7772 2212.13,178.967 2213.1,178.967 2213.1,286.864 2214.08,286.864 2214.08,507.132 2215.05,507.132 2215.05,678.175 2216.02,678.175 2216.02,855.517 2217,855.517 2217,1106.28 2217.97,1106.28 2217.97,1246.83 2218.94,1246.83 2218.94,1394 2219.92,1394 2219.92,1439.91 2220.89,1439.91 2221.87,1439.91 2221.87,1354.72 2222.84,1354.72 2222.84,1246.83 2223.81,1246.83 2223.81,1026.56 2224.79,1026.56 2224.79,855.517 2225.76,855.517 2225.76,678.175 2226.73,678.175 2226.73,507.132 2227.71,507.132 2227.71,286.864 2228.68,286.864 2228.68,178.967 2229.65,178.967 2229.65,93.7772 2230.63,93.7772 2231.6,93.7772 2231.6,139.687 2232.57,139.687 2232.57,286.864 2233.55,286.864 2233.55,427.411 2234.52,427.411 2234.52,678.175 2235.5,678.175 2235.5,855.517 2236.47,855.517 2236.47,1026.56 2237.44,1026.56 2237.44,1246.83 2238.42,1246.83 2238.42,1354.72 2239.39,1354.72 2239.39,1439.91 2240.36,1439.91 2241.34,1439.91 2241.34,1394 2242.31,1394 2242.31,1246.83 2243.28,1246.83 2243.28,1106.28 2244.26,1106.28 2244.26,855.517 2245.23,855.517 2245.23,766.846 2246.21,766.846 2246.21,507.132 2247.18,507.132 2247.18,353.657 2248.15,353.657 2248.15,178.967 2249.13,178.967 2249.13,111.18 2250.1,111.18 2250.1,87.9763 2251.07,87.9763 2251.07,139.687 2252.05,139.687 2252.05,228.192 2253.02,228.192 2253.02,427.411 2253.99,427.411 2253.99,591.162 2254.97,591.162 2254.97,766.846 2255.94,766.846 2255.94,1026.56 2256.91,1026.56 2256.91,1180.03 2257.89,1180.03 2257.89,1354.72 2258.86,1354.72 2258.86,1422.51 2259.84,1422.51 2259.84,1445.72 2260.81,1445.72 2260.81,1394 2261.78,1394 2261.78,1305.5 2262.76,1305.5 2262.76,1106.28 2263.73,1106.28 2263.73,942.53 2264.7,942.53 2264.7,766.846 2265.68,766.846 2265.68,591.162 2266.65,591.162 2266.65,353.657 2267.62,353.657 2267.62,228.192 2268.6,228.192 2268.6,111.18 2269.57,111.18 2269.57,87.9763 2270.55,87.9763 2270.55,111.18 2271.52,111.18 2271.52,228.192 2272.49,228.192 2272.49,353.657 2273.47,353.657 2273.47,591.162 2274.44,591.162 2274.44,766.846 2275.41,766.846 2275.41,942.53 2276.39,942.53 2276.39,1180.03 2277.36,1180.03 2277.36,1305.5 2278.33,1305.5 2278.33,1422.51 2279.31,1422.51 2279.31,1445.72 2280.28,1445.72 2280.28,1422.51 2281.25,1422.51 2281.25,1305.5 2282.23,1305.5 2282.23,1180.03 2283.2,1180.03 2283.2,942.53 2284.18,942.53 2284.18,766.846 2285.15,766.846 2285.15,591.162 2286.12,591.162 2286.12,427.411 2287.1,427.411 2287.1,228.192 2288.07,228.192 2288.07,139.687 2289.04,139.687 2289.04,87.9763 2290.02,87.9763 2290.02,111.18 2290.99,111.18 2290.99,178.967 2291.96,178.967 2291.96,353.657 2292.94,353.657 "/>
<path clip-path="url(#clip250)" d="M309.643 1438.47 L617.827 1438.47 L617.827 1334.79 L309.643 1334.79  Z" fill="#ffffff" fill-rule="evenodd" fill-opacity="1"/>
<polyline clip-path="url(#clip250)" style="stroke:#000000; stroke-linecap:round; stroke-linejoin:round; stroke-width:4; stroke-opacity:1; fill:none" points="309.643,1438.47 617.827,1438.47 617.827,1334.79 309.643,1334.79 309.643,1438.47 "/>
<polyline clip-path="url(#clip250)" style="stroke:#009af9; stroke-linecap:round; stroke-linejoin:round; stroke-width:4; stroke-opacity:1; fill:none" points="333.127,1386.63 474.031,1386.63 "/>
<path clip-path="url(#clip250)" d="M519.76 1370.49 L519.76 1375.05 Q517.098 1373.78 514.737 1373.15 Q512.376 1372.53 510.177 1372.53 Q506.358 1372.53 504.274 1374.01 Q502.214 1375.49 502.214 1378.22 Q502.214 1380.51 503.58 1381.69 Q504.969 1382.85 508.811 1383.57 L511.635 1384.15 Q516.867 1385.14 519.344 1387.66 Q521.844 1390.16 521.844 1394.38 Q521.844 1399.4 518.464 1401.99 Q515.108 1404.59 508.603 1404.59 Q506.149 1404.59 503.372 1404.03 Q500.617 1403.47 497.654 1402.39 L497.654 1397.57 Q500.501 1399.17 503.233 1399.98 Q505.964 1400.79 508.603 1400.79 Q512.608 1400.79 514.783 1399.22 Q516.959 1397.64 516.959 1394.72 Q516.959 1392.18 515.385 1390.74 Q513.834 1389.31 510.27 1388.59 L507.422 1388.03 Q502.191 1386.99 499.853 1384.77 Q497.515 1382.55 497.515 1378.59 Q497.515 1374.01 500.733 1371.37 Q503.973 1368.73 509.645 1368.73 Q512.075 1368.73 514.598 1369.17 Q517.121 1369.61 519.76 1370.49 Z" fill="#000000" fill-rule="nonzero" fill-opacity="1" /><path clip-path="url(#clip250)" d="M528.95 1377.99 L533.209 1377.99 L533.209 1403.91 L528.95 1403.91 L528.95 1377.99 M528.95 1367.9 L533.209 1367.9 L533.209 1373.29 L528.95 1373.29 L528.95 1367.9 Z" fill="#000000" fill-rule="nonzero" fill-opacity="1" /><path clip-path="url(#clip250)" d="M563.672 1388.27 L563.672 1403.91 L559.413 1403.91 L559.413 1388.41 Q559.413 1384.72 557.978 1382.9 Q556.543 1381.07 553.672 1381.07 Q550.223 1381.07 548.232 1383.27 Q546.242 1385.47 546.242 1389.26 L546.242 1403.91 L541.959 1403.91 L541.959 1377.99 L546.242 1377.99 L546.242 1382.02 Q547.769 1379.68 549.83 1378.52 Q551.913 1377.36 554.621 1377.36 Q559.089 1377.36 561.38 1380.14 Q563.672 1382.9 563.672 1388.27 Z" fill="#000000" fill-rule="nonzero" fill-opacity="1" /><path clip-path="url(#clip250)" d="M594.343 1389.89 L594.343 1391.97 L574.76 1391.97 Q575.038 1396.37 577.399 1398.68 Q579.783 1400.97 584.019 1400.97 Q586.473 1400.97 588.765 1400.37 Q591.079 1399.77 593.348 1398.57 L593.348 1402.59 Q591.056 1403.57 588.649 1404.08 Q586.241 1404.59 583.765 1404.59 Q577.561 1404.59 573.927 1400.97 Q570.316 1397.36 570.316 1391.21 Q570.316 1384.84 573.742 1381.11 Q577.191 1377.36 583.024 1377.36 Q588.255 1377.36 591.288 1380.74 Q594.343 1384.1 594.343 1389.89 M590.084 1388.64 Q590.038 1385.14 588.116 1383.06 Q586.218 1380.97 583.07 1380.97 Q579.505 1380.97 577.353 1382.99 Q575.223 1385 574.899 1388.66 L590.084 1388.64 Z" fill="#000000" fill-rule="nonzero" fill-opacity="1" /></svg>
