<?xml version="1.0" encoding="utf-8"?>
<svg xmlns="http://www.w3.org/2000/svg" xmlns:xlink="http://www.w3.org/1999/xlink" width="600" height="400" viewBox="0 0 2400 1600">
<defs>
  <clipPath id="clip610">
    <rect x="0" y="0" width="2400" height="1600"/>
  </clipPath>
</defs>
<path clip-path="url(#clip610)" d="M0 1600 L2400 1600 L2400 0 L0 0  Z" fill="#ffffff" fill-rule="evenodd" fill-opacity="1"/>
<defs>
  <clipPath id="clip611">
    <rect x="480" y="0" width="1681" height="1600"/>
  </clipPath>
</defs>
<path clip-path="url(#clip610)" d="M242.135 1423.18 L2352.76 1423.18 L2352.76 123.472 L242.135 123.472  Z" fill="#ffffff" fill-rule="evenodd" fill-opacity="1"/>
<defs>
  <clipPath id="clip612">
    <rect x="242" y="123" width="2112" height="1301"/>
  </clipPath>
</defs>
<polyline clip-path="url(#clip612)" style="stroke:#000000; stroke-linecap:round; stroke-linejoin:round; stroke-width:2; stroke-opacity:0.1; fill:none" points="301.869,1423.18 301.869,123.472 "/>
<polyline clip-path="url(#clip612)" style="stroke:#000000; stroke-linecap:round; stroke-linejoin:round; stroke-width:2; stroke-opacity:0.1; fill:none" points="700.1,1423.18 700.1,123.472 "/>
<polyline clip-path="url(#clip612)" style="stroke:#000000; stroke-linecap:round; stroke-linejoin:round; stroke-width:2; stroke-opacity:0.1; fill:none" points="1098.33,1423.18 1098.33,123.472 "/>
<polyline clip-path="url(#clip612)" style="stroke:#000000; stroke-linecap:round; stroke-linejoin:round; stroke-width:2; stroke-opacity:0.1; fill:none" points="1496.56,1423.18 1496.56,123.472 "/>
<polyline clip-path="url(#clip612)" style="stroke:#000000; stroke-linecap:round; stroke-linejoin:round; stroke-width:2; stroke-opacity:0.1; fill:none" points="1894.79,1423.18 1894.79,123.472 "/>
<polyline clip-path="url(#clip612)" style="stroke:#000000; stroke-linecap:round; stroke-linejoin:round; stroke-width:2; stroke-opacity:0.1; fill:none" points="2293.02,1423.18 2293.02,123.472 "/>
<polyline clip-path="url(#clip612)" style="stroke:#000000; stroke-linecap:round; stroke-linejoin:round; stroke-width:2; stroke-opacity:0.1; fill:none" points="242.135,1314.73 2352.76,1314.73 "/>
<polyline clip-path="url(#clip612)" style="stroke:#000000; stroke-linecap:round; stroke-linejoin:round; stroke-width:2; stroke-opacity:0.1; fill:none" points="242.135,1026.11 2352.76,1026.11 "/>
<polyline clip-path="url(#clip612)" style="stroke:#000000; stroke-linecap:round; stroke-linejoin:round; stroke-width:2; stroke-opacity:0.1; fill:none" points="242.135,737.494 2352.76,737.494 "/>
<polyline clip-path="url(#clip612)" style="stroke:#000000; stroke-linecap:round; stroke-linejoin:round; stroke-width:2; stroke-opacity:0.1; fill:none" points="242.135,448.875 2352.76,448.875 "/>
<polyline clip-path="url(#clip612)" style="stroke:#000000; stroke-linecap:round; stroke-linejoin:round; stroke-width:2; stroke-opacity:0.1; fill:none" points="242.135,160.256 2352.76,160.256 "/>
<polyline clip-path="url(#clip610)" style="stroke:#000000; stroke-linecap:round; stroke-linejoin:round; stroke-width:4; stroke-opacity:1; fill:none" points="242.135,1423.18 2352.76,1423.18 "/>
<polyline clip-path="url(#clip610)" style="stroke:#000000; stroke-linecap:round; stroke-linejoin:round; stroke-width:4; stroke-opacity:1; fill:none" points="301.869,1423.18 301.869,1404.28 "/>
<polyline clip-path="url(#clip610)" style="stroke:#000000; stroke-linecap:round; stroke-linejoin:round; stroke-width:4; stroke-opacity:1; fill:none" points="700.1,1423.18 700.1,1404.28 "/>
<polyline clip-path="url(#clip610)" style="stroke:#000000; stroke-linecap:round; stroke-linejoin:round; stroke-width:4; stroke-opacity:1; fill:none" points="1098.33,1423.18 1098.33,1404.28 "/>
<polyline clip-path="url(#clip610)" style="stroke:#000000; stroke-linecap:round; stroke-linejoin:round; stroke-width:4; stroke-opacity:1; fill:none" points="1496.56,1423.18 1496.56,1404.28 "/>
<polyline clip-path="url(#clip610)" style="stroke:#000000; stroke-linecap:round; stroke-linejoin:round; stroke-width:4; stroke-opacity:1; fill:none" points="1894.79,1423.18 1894.79,1404.28 "/>
<polyline clip-path="url(#clip610)" style="stroke:#000000; stroke-linecap:round; stroke-linejoin:round; stroke-width:4; stroke-opacity:1; fill:none" points="2293.02,1423.18 2293.02,1404.28 "/>
<path clip-path="url(#clip610)" d="M279.254 1454.1 Q275.643 1454.1 273.814 1457.66 Q272.008 1461.2 272.008 1468.33 Q272.008 1475.44 273.814 1479.01 Q275.643 1482.55 279.254 1482.55 Q282.888 1482.55 284.693 1479.01 Q286.522 1475.44 286.522 1468.33 Q286.522 1461.2 284.693 1457.66 Q282.888 1454.1 279.254 1454.1 M279.254 1450.39 Q285.064 1450.39 288.119 1455 Q291.198 1459.58 291.198 1468.33 Q291.198 1477.06 288.119 1481.67 Q285.064 1486.25 279.254 1486.25 Q273.443 1486.25 270.365 1481.67 Q267.309 1477.06 267.309 1468.33 Q267.309 1459.58 270.365 1455 Q273.443 1450.39 279.254 1450.39 Z" fill="#000000" fill-rule="nonzero" fill-opacity="1" /><path clip-path="url(#clip610)" d="M299.416 1479.7 L304.3 1479.7 L304.3 1485.58 L299.416 1485.58 L299.416 1479.7 Z" fill="#000000" fill-rule="nonzero" fill-opacity="1" /><path clip-path="url(#clip610)" d="M324.485 1454.1 Q320.874 1454.1 319.045 1457.66 Q317.24 1461.2 317.24 1468.33 Q317.24 1475.44 319.045 1479.01 Q320.874 1482.55 324.485 1482.55 Q328.119 1482.55 329.925 1479.01 Q331.753 1475.44 331.753 1468.33 Q331.753 1461.2 329.925 1457.66 Q328.119 1454.1 324.485 1454.1 M324.485 1450.39 Q330.295 1450.39 333.351 1455 Q336.429 1459.58 336.429 1468.33 Q336.429 1477.06 333.351 1481.67 Q330.295 1486.25 324.485 1486.25 Q318.675 1486.25 315.596 1481.67 Q312.54 1477.06 312.54 1468.33 Q312.54 1459.58 315.596 1455 Q318.675 1450.39 324.485 1450.39 Z" fill="#000000" fill-rule="nonzero" fill-opacity="1" /><path clip-path="url(#clip610)" d="M678.097 1454.1 Q674.486 1454.1 672.658 1457.66 Q670.852 1461.2 670.852 1468.33 Q670.852 1475.44 672.658 1479.01 Q674.486 1482.55 678.097 1482.55 Q681.732 1482.55 683.537 1479.01 Q685.366 1475.44 685.366 1468.33 Q685.366 1461.2 683.537 1457.66 Q681.732 1454.1 678.097 1454.1 M678.097 1450.39 Q683.908 1450.39 686.963 1455 Q690.042 1459.58 690.042 1468.33 Q690.042 1477.06 686.963 1481.67 Q683.908 1486.25 678.097 1486.25 Q672.287 1486.25 669.209 1481.67 Q666.153 1477.06 666.153 1468.33 Q666.153 1459.58 669.209 1455 Q672.287 1450.39 678.097 1450.39 Z" fill="#000000" fill-rule="nonzero" fill-opacity="1" /><path clip-path="url(#clip610)" d="M698.259 1479.7 L703.144 1479.7 L703.144 1485.58 L698.259 1485.58 L698.259 1479.7 Z" fill="#000000" fill-rule="nonzero" fill-opacity="1" /><path clip-path="url(#clip610)" d="M714.139 1481.64 L721.778 1481.64 L721.778 1455.28 L713.468 1456.95 L713.468 1452.69 L721.731 1451.02 L726.407 1451.02 L726.407 1481.64 L734.046 1481.64 L734.046 1485.58 L714.139 1485.58 L714.139 1481.64 Z" fill="#000000" fill-rule="nonzero" fill-opacity="1" /><path clip-path="url(#clip610)" d="M1076.51 1454.1 Q1072.9 1454.1 1071.07 1457.66 Q1069.27 1461.2 1069.27 1468.33 Q1069.27 1475.44 1071.07 1479.01 Q1072.9 1482.55 1076.51 1482.55 Q1080.15 1482.55 1081.95 1479.01 Q1083.78 1475.44 1083.78 1468.33 Q1083.78 1461.2 1081.95 1457.66 Q1080.15 1454.1 1076.51 1454.1 M1076.51 1450.39 Q1082.32 1450.39 1085.38 1455 Q1088.46 1459.58 1088.46 1468.33 Q1088.46 1477.06 1085.38 1481.67 Q1082.32 1486.25 1076.51 1486.25 Q1070.7 1486.25 1067.62 1481.67 Q1064.57 1477.06 1064.57 1468.33 Q1064.57 1459.58 1067.62 1455 Q1070.7 1450.39 1076.51 1450.39 Z" fill="#000000" fill-rule="nonzero" fill-opacity="1" /><path clip-path="url(#clip610)" d="M1096.67 1479.7 L1101.56 1479.7 L1101.56 1485.58 L1096.67 1485.58 L1096.67 1479.7 Z" fill="#000000" fill-rule="nonzero" fill-opacity="1" /><path clip-path="url(#clip610)" d="M1115.77 1481.64 L1132.09 1481.64 L1132.09 1485.58 L1110.15 1485.58 L1110.15 1481.64 Q1112.81 1478.89 1117.39 1474.26 Q1122 1469.61 1123.18 1468.27 Q1125.42 1465.74 1126.3 1464.01 Q1127.21 1462.25 1127.21 1460.56 Q1127.21 1457.8 1125.26 1456.07 Q1123.34 1454.33 1120.24 1454.33 Q1118.04 1454.33 1115.59 1455.09 Q1113.16 1455.86 1110.38 1457.41 L1110.38 1452.69 Q1113.2 1451.55 1115.66 1450.97 Q1118.11 1450.39 1120.15 1450.39 Q1125.52 1450.39 1128.71 1453.08 Q1131.91 1455.77 1131.91 1460.26 Q1131.91 1462.39 1131.1 1464.31 Q1130.31 1466.2 1128.2 1468.8 Q1127.62 1469.47 1124.52 1472.69 Q1121.42 1475.88 1115.77 1481.64 Z" fill="#000000" fill-rule="nonzero" fill-opacity="1" /><path clip-path="url(#clip610)" d="M1474.27 1454.1 Q1470.66 1454.1 1468.83 1457.66 Q1467.02 1461.2 1467.02 1468.33 Q1467.02 1475.44 1468.83 1479.01 Q1470.66 1482.55 1474.27 1482.55 Q1477.9 1482.55 1479.71 1479.01 Q1481.54 1475.44 1481.54 1468.33 Q1481.54 1461.2 1479.71 1457.66 Q1477.9 1454.1 1474.27 1454.1 M1474.27 1450.39 Q1480.08 1450.39 1483.13 1455 Q1486.21 1459.58 1486.21 1468.33 Q1486.21 1477.06 1483.13 1481.67 Q1480.08 1486.25 1474.27 1486.25 Q1468.46 1486.25 1465.38 1481.67 Q1462.32 1477.06 1462.32 1468.33 Q1462.32 1459.58 1465.38 1455 Q1468.46 1450.39 1474.27 1450.39 Z" fill="#000000" fill-rule="nonzero" fill-opacity="1" /><path clip-path="url(#clip610)" d="M1494.43 1479.7 L1499.32 1479.7 L1499.32 1485.58 L1494.43 1485.58 L1494.43 1479.7 Z" fill="#000000" fill-rule="nonzero" fill-opacity="1" /><path clip-path="url(#clip610)" d="M1523.67 1466.95 Q1527.02 1467.66 1528.9 1469.93 Q1530.8 1472.2 1530.8 1475.53 Q1530.8 1480.65 1527.28 1483.45 Q1523.76 1486.25 1517.28 1486.25 Q1515.1 1486.25 1512.79 1485.81 Q1510.5 1485.39 1508.04 1484.54 L1508.04 1480.02 Q1509.99 1481.16 1512.3 1481.74 Q1514.62 1482.32 1517.14 1482.32 Q1521.54 1482.32 1523.83 1480.58 Q1526.14 1478.84 1526.14 1475.53 Q1526.14 1472.48 1523.99 1470.77 Q1521.86 1469.03 1518.04 1469.03 L1514.01 1469.03 L1514.01 1465.19 L1518.23 1465.19 Q1521.68 1465.19 1523.5 1463.82 Q1525.33 1462.43 1525.33 1459.84 Q1525.33 1457.18 1523.44 1455.77 Q1521.56 1454.33 1518.04 1454.33 Q1516.12 1454.33 1513.92 1454.75 Q1511.72 1455.16 1509.08 1456.04 L1509.08 1451.88 Q1511.75 1451.14 1514.06 1450.77 Q1516.4 1450.39 1518.46 1450.39 Q1523.78 1450.39 1526.88 1452.83 Q1529.99 1455.23 1529.99 1459.35 Q1529.99 1462.22 1528.34 1464.21 Q1526.7 1466.18 1523.67 1466.95 Z" fill="#000000" fill-rule="nonzero" fill-opacity="1" /><path clip-path="url(#clip610)" d="M1871.93 1454.1 Q1868.32 1454.1 1866.49 1457.66 Q1864.69 1461.2 1864.69 1468.33 Q1864.69 1475.44 1866.49 1479.01 Q1868.32 1482.55 1871.93 1482.55 Q1875.57 1482.55 1877.37 1479.01 Q1879.2 1475.44 1879.2 1468.33 Q1879.2 1461.2 1877.37 1457.66 Q1875.57 1454.1 1871.93 1454.1 M1871.93 1450.39 Q1877.74 1450.39 1880.8 1455 Q1883.88 1459.58 1883.88 1468.33 Q1883.88 1477.06 1880.8 1481.67 Q1877.74 1486.25 1871.93 1486.25 Q1866.12 1486.25 1863.04 1481.67 Q1859.99 1477.06 1859.99 1468.33 Q1859.99 1459.58 1863.04 1455 Q1866.12 1450.39 1871.93 1450.39 Z" fill="#000000" fill-rule="nonzero" fill-opacity="1" /><path clip-path="url(#clip610)" d="M1892.09 1479.7 L1896.98 1479.7 L1896.98 1485.58 L1892.09 1485.58 L1892.09 1479.7 Z" fill="#000000" fill-rule="nonzero" fill-opacity="1" /><path clip-path="url(#clip610)" d="M1920.01 1455.09 L1908.21 1473.54 L1920.01 1473.54 L1920.01 1455.09 M1918.78 1451.02 L1924.66 1451.02 L1924.66 1473.54 L1929.59 1473.54 L1929.59 1477.43 L1924.66 1477.43 L1924.66 1485.58 L1920.01 1485.58 L1920.01 1477.43 L1904.41 1477.43 L1904.41 1472.92 L1918.78 1451.02 Z" fill="#000000" fill-rule="nonzero" fill-opacity="1" /><path clip-path="url(#clip610)" d="M2270.9 1454.1 Q2267.29 1454.1 2265.46 1457.66 Q2263.66 1461.2 2263.66 1468.33 Q2263.66 1475.44 2265.46 1479.01 Q2267.29 1482.55 2270.9 1482.55 Q2274.54 1482.55 2276.34 1479.01 Q2278.17 1475.44 2278.17 1468.33 Q2278.17 1461.2 2276.34 1457.66 Q2274.54 1454.1 2270.9 1454.1 M2270.9 1450.39 Q2276.71 1450.39 2279.77 1455 Q2282.85 1459.58 2282.85 1468.33 Q2282.85 1477.06 2279.77 1481.67 Q2276.71 1486.25 2270.9 1486.25 Q2265.09 1486.25 2262.01 1481.67 Q2258.96 1477.06 2258.96 1468.33 Q2258.96 1459.58 2262.01 1455 Q2265.09 1450.39 2270.9 1450.39 Z" fill="#000000" fill-rule="nonzero" fill-opacity="1" /><path clip-path="url(#clip610)" d="M2291.07 1479.7 L2295.95 1479.7 L2295.95 1485.58 L2291.07 1485.58 L2291.07 1479.7 Z" fill="#000000" fill-rule="nonzero" fill-opacity="1" /><path clip-path="url(#clip610)" d="M2306.18 1451.02 L2324.54 1451.02 L2324.54 1454.96 L2310.46 1454.96 L2310.46 1463.43 Q2311.48 1463.08 2312.5 1462.92 Q2313.52 1462.73 2314.54 1462.73 Q2320.32 1462.73 2323.7 1465.9 Q2327.08 1469.08 2327.08 1474.49 Q2327.08 1480.07 2323.61 1483.17 Q2320.14 1486.25 2313.82 1486.25 Q2311.64 1486.25 2309.38 1485.88 Q2307.13 1485.51 2304.72 1484.77 L2304.72 1480.07 Q2306.81 1481.2 2309.03 1481.76 Q2311.25 1482.32 2313.73 1482.32 Q2317.73 1482.32 2320.07 1480.21 Q2322.41 1478.1 2322.41 1474.49 Q2322.41 1470.88 2320.07 1468.77 Q2317.73 1466.67 2313.73 1466.67 Q2311.85 1466.67 2309.98 1467.08 Q2308.13 1467.5 2306.18 1468.38 L2306.18 1451.02 Z" fill="#000000" fill-rule="nonzero" fill-opacity="1" /><path clip-path="url(#clip610)" d="M1057.67 1520.52 L1084.97 1520.52 L1084.97 1525.93 L1064.09 1525.93 L1064.09 1539.94 L1082.94 1539.94 L1082.94 1545.35 L1064.09 1545.35 L1064.09 1568.04 L1057.67 1568.04 L1057.67 1520.52 Z" fill="#000000" fill-rule="nonzero" fill-opacity="1" /><path clip-path="url(#clip610)" d="M1110.82 1537.87 Q1109.83 1537.3 1108.65 1537.04 Q1107.51 1536.76 1106.11 1536.76 Q1101.14 1536.76 1098.47 1540 Q1095.83 1543.22 1095.83 1549.27 L1095.83 1568.04 L1089.94 1568.04 L1089.94 1532.4 L1095.83 1532.4 L1095.83 1537.93 Q1097.67 1534.69 1100.63 1533.13 Q1103.59 1531.54 1107.83 1531.54 Q1108.43 1531.54 1109.16 1531.63 Q1109.9 1531.7 1110.79 1531.85 L1110.82 1537.87 Z" fill="#000000" fill-rule="nonzero" fill-opacity="1" /><path clip-path="url(#clip610)" d="M1146.02 1548.76 L1146.02 1551.62 L1119.09 1551.62 Q1119.48 1557.67 1122.72 1560.85 Q1126 1564 1131.83 1564 Q1135.2 1564 1138.35 1563.17 Q1141.53 1562.35 1144.65 1560.69 L1144.65 1566.23 Q1141.5 1567.57 1138.19 1568.27 Q1134.88 1568.97 1131.48 1568.97 Q1122.95 1568.97 1117.95 1564 Q1112.98 1559.04 1112.98 1550.57 Q1112.98 1541.82 1117.69 1536.69 Q1122.44 1531.54 1130.46 1531.54 Q1137.65 1531.54 1141.82 1536.18 Q1146.02 1540.8 1146.02 1548.76 M1140.16 1547.04 Q1140.1 1542.23 1137.46 1539.37 Q1134.85 1536.5 1130.52 1536.5 Q1125.62 1536.5 1122.66 1539.27 Q1119.73 1542.04 1119.29 1547.07 L1140.16 1547.04 Z" fill="#000000" fill-rule="nonzero" fill-opacity="1" /><path clip-path="url(#clip610)" d="M1159.13 1550.25 Q1159.13 1556.71 1161.78 1560.4 Q1164.45 1564.07 1169.1 1564.07 Q1173.74 1564.07 1176.42 1560.4 Q1179.09 1556.71 1179.09 1550.25 Q1179.09 1543.79 1176.42 1540.13 Q1173.74 1536.44 1169.1 1536.44 Q1164.45 1536.44 1161.78 1540.13 Q1159.13 1543.79 1159.13 1550.25 M1179.09 1562.7 Q1177.24 1565.88 1174.41 1567.44 Q1171.61 1568.97 1167.66 1568.97 Q1161.2 1568.97 1157.13 1563.81 Q1153.09 1558.65 1153.09 1550.25 Q1153.09 1541.85 1157.13 1536.69 Q1161.2 1531.54 1167.66 1531.54 Q1171.61 1531.54 1174.41 1533.1 Q1177.24 1534.62 1179.09 1537.81 L1179.09 1532.4 L1184.95 1532.4 L1184.95 1581.6 L1179.09 1581.6 L1179.09 1562.7 Z" fill="#000000" fill-rule="nonzero" fill-opacity="1" /><path clip-path="url(#clip610)" d="M1196.41 1553.98 L1196.41 1532.4 L1202.26 1532.4 L1202.26 1553.75 Q1202.26 1558.81 1204.24 1561.36 Q1206.21 1563.87 1210.16 1563.87 Q1214.9 1563.87 1217.64 1560.85 Q1220.4 1557.83 1220.4 1552.61 L1220.4 1532.4 L1226.26 1532.4 L1226.26 1568.04 L1220.4 1568.04 L1220.4 1562.57 Q1218.27 1565.82 1215.44 1567.41 Q1212.64 1568.97 1208.91 1568.97 Q1202.77 1568.97 1199.59 1565.15 Q1196.41 1561.33 1196.41 1553.98 M1211.14 1531.54 L1211.14 1531.54 Z" fill="#000000" fill-rule="nonzero" fill-opacity="1" /><path clip-path="url(#clip610)" d="M1268.82 1548.76 L1268.82 1551.62 L1241.89 1551.62 Q1242.27 1557.67 1245.52 1560.85 Q1248.8 1564 1254.62 1564 Q1257.99 1564 1261.14 1563.17 Q1264.33 1562.35 1267.45 1560.69 L1267.45 1566.23 Q1264.3 1567.57 1260.99 1568.27 Q1257.68 1568.97 1254.27 1568.97 Q1245.74 1568.97 1240.74 1564 Q1235.78 1559.04 1235.78 1550.57 Q1235.78 1541.82 1240.49 1536.69 Q1245.23 1531.54 1253.25 1531.54 Q1260.44 1531.54 1264.61 1536.18 Q1268.82 1540.8 1268.82 1548.76 M1262.96 1547.04 Q1262.9 1542.23 1260.25 1539.37 Q1257.64 1536.5 1253.32 1536.5 Q1248.41 1536.5 1245.45 1539.27 Q1242.53 1542.04 1242.08 1547.07 L1262.96 1547.04 Z" fill="#000000" fill-rule="nonzero" fill-opacity="1" /><path clip-path="url(#clip610)" d="M1308.06 1546.53 L1308.06 1568.04 L1302.2 1568.04 L1302.2 1546.72 Q1302.2 1541.66 1300.23 1539.14 Q1298.26 1536.63 1294.31 1536.63 Q1289.57 1536.63 1286.83 1539.65 Q1284.09 1542.68 1284.09 1547.9 L1284.09 1568.04 L1278.2 1568.04 L1278.2 1532.4 L1284.09 1532.4 L1284.09 1537.93 Q1286.19 1534.72 1289.03 1533.13 Q1291.89 1531.54 1295.62 1531.54 Q1301.76 1531.54 1304.91 1535.36 Q1308.06 1539.14 1308.06 1546.53 Z" fill="#000000" fill-rule="nonzero" fill-opacity="1" /><path clip-path="url(#clip610)" d="M1345.39 1533.76 L1345.39 1539.24 Q1342.91 1537.87 1340.4 1537.2 Q1337.92 1536.5 1335.37 1536.5 Q1329.67 1536.5 1326.52 1540.13 Q1323.37 1543.73 1323.37 1550.25 Q1323.37 1556.78 1326.52 1560.4 Q1329.67 1564 1335.37 1564 Q1337.92 1564 1340.4 1563.33 Q1342.91 1562.63 1345.39 1561.26 L1345.39 1566.68 Q1342.94 1567.82 1340.3 1568.39 Q1337.69 1568.97 1334.73 1568.97 Q1326.68 1568.97 1321.94 1563.91 Q1317.19 1558.85 1317.19 1550.25 Q1317.19 1541.53 1321.97 1536.53 Q1326.78 1531.54 1335.11 1531.54 Q1337.82 1531.54 1340.4 1532.11 Q1342.98 1532.65 1345.39 1533.76 Z" fill="#000000" fill-rule="nonzero" fill-opacity="1" /><path clip-path="url(#clip610)" d="M1370.41 1571.35 Q1367.93 1577.72 1365.57 1579.66 Q1363.22 1581.6 1359.27 1581.6 L1354.59 1581.6 L1354.59 1576.7 L1358.03 1576.7 Q1360.45 1576.7 1361.79 1575.56 Q1363.12 1574.41 1364.75 1570.14 L1365.8 1567.47 L1351.38 1532.4 L1357.59 1532.4 L1368.73 1560.28 L1379.87 1532.4 L1386.07 1532.4 L1370.41 1571.35 Z" fill="#000000" fill-rule="nonzero" fill-opacity="1" /><path clip-path="url(#clip610)" d="M1414.34 1518.52 L1427.83 1518.52 L1427.83 1523.07 L1420.19 1523.07 L1420.19 1572.09 L1427.83 1572.09 L1427.83 1576.64 L1414.34 1576.64 L1414.34 1518.52 Z" fill="#000000" fill-rule="nonzero" fill-opacity="1" /><path clip-path="url(#clip610)" d="M1440.56 1520.52 L1446.99 1520.52 L1446.99 1540 L1470.35 1540 L1470.35 1520.52 L1476.78 1520.52 L1476.78 1568.04 L1470.35 1568.04 L1470.35 1545.41 L1446.99 1545.41 L1446.99 1568.04 L1440.56 1568.04 L1440.56 1520.52 Z" fill="#000000" fill-rule="nonzero" fill-opacity="1" /><path clip-path="url(#clip610)" d="M1486.78 1532.4 L1514.6 1532.4 L1514.6 1537.74 L1492.57 1563.37 L1514.6 1563.37 L1514.6 1568.04 L1485.98 1568.04 L1485.98 1562.7 L1508.01 1537.07 L1486.78 1537.07 L1486.78 1532.4 Z" fill="#000000" fill-rule="nonzero" fill-opacity="1" /><path clip-path="url(#clip610)" d="M1537.23 1518.52 L1537.23 1576.64 L1523.73 1576.64 L1523.73 1572.09 L1531.34 1572.09 L1531.34 1523.07 L1523.73 1523.07 L1523.73 1518.52 L1537.23 1518.52 Z" fill="#000000" fill-rule="nonzero" fill-opacity="1" /><polyline clip-path="url(#clip610)" style="stroke:#000000; stroke-linecap:round; stroke-linejoin:round; stroke-width:4; stroke-opacity:1; fill:none" points="242.135,1423.18 242.135,123.472 "/>
<polyline clip-path="url(#clip610)" style="stroke:#000000; stroke-linecap:round; stroke-linejoin:round; stroke-width:4; stroke-opacity:1; fill:none" points="242.135,1314.73 261.032,1314.73 "/>
<polyline clip-path="url(#clip610)" style="stroke:#000000; stroke-linecap:round; stroke-linejoin:round; stroke-width:4; stroke-opacity:1; fill:none" points="242.135,1026.11 261.032,1026.11 "/>
<polyline clip-path="url(#clip610)" style="stroke:#000000; stroke-linecap:round; stroke-linejoin:round; stroke-width:4; stroke-opacity:1; fill:none" points="242.135,737.494 261.032,737.494 "/>
<polyline clip-path="url(#clip610)" style="stroke:#000000; stroke-linecap:round; stroke-linejoin:round; stroke-width:4; stroke-opacity:1; fill:none" points="242.135,448.875 261.032,448.875 "/>
<polyline clip-path="url(#clip610)" style="stroke:#000000; stroke-linecap:round; stroke-linejoin:round; stroke-width:4; stroke-opacity:1; fill:none" points="242.135,160.256 261.032,160.256 "/>
<path clip-path="url(#clip610)" d="M114.26 1315.18 L143.936 1315.18 L143.936 1319.12 L114.26 1319.12 L114.26 1315.18 Z" fill="#000000" fill-rule="nonzero" fill-opacity="1" /><path clip-path="url(#clip610)" d="M164.028 1315.6 Q160.695 1315.6 158.774 1317.38 Q156.876 1319.16 156.876 1322.29 Q156.876 1325.41 158.774 1327.2 Q160.695 1328.98 164.028 1328.98 Q167.362 1328.98 169.283 1327.2 Q171.204 1325.39 171.204 1322.29 Q171.204 1319.16 169.283 1317.38 Q167.385 1315.6 164.028 1315.6 M159.353 1313.61 Q156.343 1312.87 154.653 1310.81 Q152.987 1308.75 152.987 1305.78 Q152.987 1301.64 155.927 1299.23 Q158.89 1296.83 164.028 1296.83 Q169.19 1296.83 172.13 1299.23 Q175.07 1301.64 175.07 1305.78 Q175.07 1308.75 173.38 1310.81 Q171.714 1312.87 168.727 1313.61 Q172.107 1314.4 173.982 1316.69 Q175.88 1318.98 175.88 1322.29 Q175.88 1327.31 172.802 1330 Q169.746 1332.68 164.028 1332.68 Q158.311 1332.68 155.232 1330 Q152.177 1327.31 152.177 1322.29 Q152.177 1318.98 154.075 1316.69 Q155.973 1314.4 159.353 1313.61 M157.64 1306.22 Q157.64 1308.91 159.306 1310.41 Q160.996 1311.92 164.028 1311.92 Q167.038 1311.92 168.727 1310.41 Q170.44 1308.91 170.44 1306.22 Q170.44 1303.54 168.727 1302.03 Q167.038 1300.53 164.028 1300.53 Q160.996 1300.53 159.306 1302.03 Q157.64 1303.54 157.64 1306.22 Z" fill="#000000" fill-rule="nonzero" fill-opacity="1" /><path clip-path="url(#clip610)" d="M194.19 1300.53 Q190.579 1300.53 188.75 1304.09 Q186.945 1307.64 186.945 1314.77 Q186.945 1321.87 188.75 1325.44 Q190.579 1328.98 194.19 1328.98 Q197.825 1328.98 199.63 1325.44 Q201.459 1321.87 201.459 1314.77 Q201.459 1307.64 199.63 1304.09 Q197.825 1300.53 194.19 1300.53 M194.19 1296.83 Q200 1296.83 203.056 1301.43 Q206.135 1306.02 206.135 1314.77 Q206.135 1323.49 203.056 1328.1 Q200 1332.68 194.19 1332.68 Q188.38 1332.68 185.301 1328.1 Q182.246 1323.49 182.246 1314.77 Q182.246 1306.02 185.301 1301.43 Q188.38 1296.83 194.19 1296.83 Z" fill="#000000" fill-rule="nonzero" fill-opacity="1" /><path clip-path="url(#clip610)" d="M114.26 1026.56 L143.936 1026.56 L143.936 1030.5 L114.26 1030.5 L114.26 1026.56 Z" fill="#000000" fill-rule="nonzero" fill-opacity="1" /><path clip-path="url(#clip610)" d="M164.607 1024.25 Q161.459 1024.25 159.607 1026.4 Q157.778 1028.55 157.778 1032.3 Q157.778 1036.03 159.607 1038.21 Q161.459 1040.36 164.607 1040.36 Q167.755 1040.36 169.584 1038.21 Q171.436 1036.03 171.436 1032.3 Q171.436 1028.55 169.584 1026.4 Q167.755 1024.25 164.607 1024.25 M173.889 1009.6 L173.889 1013.86 Q172.13 1013.02 170.325 1012.58 Q168.542 1012.14 166.783 1012.14 Q162.153 1012.14 159.7 1015.27 Q157.269 1018.39 156.922 1024.71 Q158.288 1022.7 160.348 1021.63 Q162.408 1020.55 164.885 1020.55 Q170.093 1020.55 173.102 1023.72 Q176.135 1026.86 176.135 1032.3 Q176.135 1037.63 172.987 1040.85 Q169.839 1044.06 164.607 1044.06 Q158.612 1044.06 155.44 1039.48 Q152.269 1034.87 152.269 1026.15 Q152.269 1017.95 156.158 1013.09 Q160.047 1008.21 166.598 1008.21 Q168.357 1008.21 170.139 1008.55 Q171.945 1008.9 173.889 1009.6 Z" fill="#000000" fill-rule="nonzero" fill-opacity="1" /><path clip-path="url(#clip610)" d="M194.19 1011.91 Q190.579 1011.91 188.75 1015.48 Q186.945 1019.02 186.945 1026.15 Q186.945 1033.25 188.75 1036.82 Q190.579 1040.36 194.19 1040.36 Q197.825 1040.36 199.63 1036.82 Q201.459 1033.25 201.459 1026.15 Q201.459 1019.02 199.63 1015.48 Q197.825 1011.91 194.19 1011.91 M194.19 1008.21 Q200 1008.21 203.056 1012.81 Q206.135 1017.4 206.135 1026.15 Q206.135 1034.87 203.056 1039.48 Q200 1044.06 194.19 1044.06 Q188.38 1044.06 185.301 1039.48 Q182.246 1034.87 182.246 1026.15 Q182.246 1017.4 185.301 1012.81 Q188.38 1008.21 194.19 1008.21 Z" fill="#000000" fill-rule="nonzero" fill-opacity="1" /><path clip-path="url(#clip610)" d="M114.26 737.945 L143.936 737.945 L143.936 741.88 L114.26 741.88 L114.26 737.945 Z" fill="#000000" fill-rule="nonzero" fill-opacity="1" /><path clip-path="url(#clip610)" d="M166.876 724.288 L155.07 742.737 L166.876 742.737 L166.876 724.288 M165.649 720.214 L171.528 720.214 L171.528 742.737 L176.459 742.737 L176.459 746.626 L171.528 746.626 L171.528 754.774 L166.876 754.774 L166.876 746.626 L151.274 746.626 L151.274 742.112 L165.649 720.214 Z" fill="#000000" fill-rule="nonzero" fill-opacity="1" /><path clip-path="url(#clip610)" d="M194.19 723.292 Q190.579 723.292 188.75 726.857 Q186.945 730.399 186.945 737.528 Q186.945 744.635 188.75 748.2 Q190.579 751.741 194.19 751.741 Q197.825 751.741 199.63 748.2 Q201.459 744.635 201.459 737.528 Q201.459 730.399 199.63 726.857 Q197.825 723.292 194.19 723.292 M194.19 719.589 Q200 719.589 203.056 724.195 Q206.135 728.778 206.135 737.528 Q206.135 746.255 203.056 750.862 Q200 755.445 194.19 755.445 Q188.38 755.445 185.301 750.862 Q182.246 746.255 182.246 737.528 Q182.246 728.778 185.301 724.195 Q188.38 719.589 194.19 719.589 Z" fill="#000000" fill-rule="nonzero" fill-opacity="1" /><path clip-path="url(#clip610)" d="M114.26 449.326 L143.936 449.326 L143.936 453.262 L114.26 453.262 L114.26 449.326 Z" fill="#000000" fill-rule="nonzero" fill-opacity="1" /><path clip-path="url(#clip610)" d="M158.056 462.22 L174.376 462.22 L174.376 466.155 L152.431 466.155 L152.431 462.22 Q155.093 459.465 159.677 454.836 Q164.283 450.183 165.464 448.84 Q167.709 446.317 168.589 444.581 Q169.491 442.822 169.491 441.132 Q169.491 438.377 167.547 436.641 Q165.626 434.905 162.524 434.905 Q160.325 434.905 157.871 435.669 Q155.44 436.433 152.663 437.984 L152.663 433.262 Q155.487 432.127 157.94 431.549 Q160.394 430.97 162.431 430.97 Q167.802 430.97 170.996 433.655 Q174.19 436.34 174.19 440.831 Q174.19 442.961 173.38 444.882 Q172.593 446.78 170.487 449.373 Q169.908 450.044 166.806 453.262 Q163.704 456.456 158.056 462.22 Z" fill="#000000" fill-rule="nonzero" fill-opacity="1" /><path clip-path="url(#clip610)" d="M194.19 434.674 Q190.579 434.674 188.75 438.238 Q186.945 441.78 186.945 448.91 Q186.945 456.016 188.75 459.581 Q190.579 463.123 194.19 463.123 Q197.825 463.123 199.63 459.581 Q201.459 456.016 201.459 448.91 Q201.459 441.78 199.63 438.238 Q197.825 434.674 194.19 434.674 M194.19 430.97 Q200 430.97 203.056 435.576 Q206.135 440.16 206.135 448.91 Q206.135 457.637 203.056 462.243 Q200 466.826 194.19 466.826 Q188.38 466.826 185.301 462.243 Q182.246 457.637 182.246 448.91 Q182.246 440.16 185.301 435.576 Q188.38 430.97 194.19 430.97 Z" fill="#000000" fill-rule="nonzero" fill-opacity="1" /><path clip-path="url(#clip610)" d="M194.19 146.055 Q190.579 146.055 188.75 149.62 Q186.945 153.161 186.945 160.291 Q186.945 167.397 188.75 170.962 Q190.579 174.504 194.19 174.504 Q197.825 174.504 199.63 170.962 Q201.459 167.397 201.459 160.291 Q201.459 153.161 199.63 149.62 Q197.825 146.055 194.19 146.055 M194.19 142.351 Q200 142.351 203.056 146.958 Q206.135 151.541 206.135 160.291 Q206.135 169.018 203.056 173.624 Q200 178.208 194.19 178.208 Q188.38 178.208 185.301 173.624 Q182.246 169.018 182.246 160.291 Q182.246 151.541 185.301 146.958 Q188.38 142.351 194.19 142.351 Z" fill="#000000" fill-rule="nonzero" fill-opacity="1" /><path clip-path="url(#clip610)" d="M21.7677 990.874 L39.6235 990.874 L39.6235 982.79 Q39.6235 978.302 37.3 975.851 Q34.9765 973.4 30.6797 973.4 Q26.4147 973.4 24.0912 975.851 Q21.7677 978.302 21.7677 982.79 L21.7677 990.874 M16.4842 997.303 L16.4842 982.79 Q16.4842 974.801 20.1126 970.727 Q23.7092 966.621 30.6797 966.621 Q37.7138 966.621 41.3104 970.727 Q44.907 974.801 44.907 982.79 L44.907 990.874 L64.0042 990.874 L64.0042 997.303 L16.4842 997.303 Z" fill="#000000" fill-rule="nonzero" fill-opacity="1" /><path clip-path="url(#clip610)" d="M32.4621 946.76 Q32.4621 951.47 36.1542 954.208 Q39.8145 956.945 46.212 956.945 Q52.6095 956.945 56.3017 954.239 Q59.9619 951.502 59.9619 946.76 Q59.9619 942.081 56.2698 939.344 Q52.5777 936.606 46.212 936.606 Q39.8781 936.606 36.186 939.344 Q32.4621 942.081 32.4621 946.76 M27.4968 946.76 Q27.4968 939.121 32.4621 934.76 Q37.4273 930.4 46.212 930.4 Q54.9649 930.4 59.9619 934.76 Q64.9272 939.121 64.9272 946.76 Q64.9272 954.43 59.9619 958.791 Q54.9649 963.12 46.212 963.12 Q37.4273 963.12 32.4621 958.791 Q27.4968 954.43 27.4968 946.76 Z" fill="#000000" fill-rule="nonzero" fill-opacity="1" /><path clip-path="url(#clip610)" d="M28.3562 924.098 L28.3562 918.241 L56.1743 910.921 L28.3562 903.632 L28.3562 896.725 L56.1743 889.405 L28.3562 882.116 L28.3562 876.259 L64.0042 885.585 L64.0042 892.492 L34.7856 900.163 L64.0042 907.865 L64.0042 914.772 L28.3562 924.098 Z" fill="#000000" fill-rule="nonzero" fill-opacity="1" /><path clip-path="url(#clip610)" d="M44.7161 836.888 L47.5806 836.888 L47.5806 863.815 Q53.6281 863.433 56.8109 860.186 Q59.9619 856.908 59.9619 851.083 Q59.9619 847.709 59.1344 844.558 Q58.3069 841.375 56.6518 838.256 L62.1899 838.256 Q63.5267 841.407 64.227 844.717 Q64.9272 848.028 64.9272 851.433 Q64.9272 859.963 59.9619 864.96 Q54.9967 869.926 46.5303 869.926 Q37.7774 869.926 32.6531 865.215 Q27.4968 860.473 27.4968 852.452 Q27.4968 845.258 32.1438 841.089 Q36.7589 836.888 44.7161 836.888 M42.9973 842.744 Q38.1912 842.808 35.3266 845.449 Q32.4621 848.059 32.4621 852.388 Q32.4621 857.29 35.2312 860.25 Q38.0002 863.178 43.0292 863.624 L42.9973 842.744 Z" fill="#000000" fill-rule="nonzero" fill-opacity="1" /><path clip-path="url(#clip610)" d="M33.8307 806.619 Q33.2578 807.605 33.0032 808.783 Q32.7167 809.929 32.7167 811.329 Q32.7167 816.295 35.9632 818.968 Q39.1779 821.61 45.2253 821.61 L64.0042 821.61 L64.0042 827.498 L28.3562 827.498 L28.3562 821.61 L33.8944 821.61 Q30.6479 819.764 29.0883 816.804 Q27.4968 813.844 27.4968 809.611 Q27.4968 809.006 27.5923 808.274 Q27.656 807.542 27.8151 806.65 L33.8307 806.619 Z" fill="#000000" fill-rule="nonzero" fill-opacity="1" /><path clip-path="url(#clip610)" d="M14.479 780.296 L14.479 766.801 L19.0304 766.801 L19.0304 774.44 L68.0464 774.44 L68.0464 766.801 L72.5979 766.801 L72.5979 780.296 L14.479 780.296 Z" fill="#000000" fill-rule="nonzero" fill-opacity="1" /><path clip-path="url(#clip610)" d="M33.7671 730.867 L14.479 730.867 L14.479 725.01 L64.0042 725.01 L64.0042 730.867 L58.657 730.867 Q61.8398 732.713 63.3994 735.546 Q64.9272 738.346 64.9272 742.293 Q64.9272 748.754 59.771 752.828 Q54.6147 756.871 46.212 756.871 Q37.8093 756.871 32.6531 752.828 Q27.4968 748.754 27.4968 742.293 Q27.4968 738.346 29.0564 735.546 Q30.5842 732.713 33.7671 730.867 M46.212 750.823 Q52.6732 750.823 56.3653 748.181 Q60.0256 745.508 60.0256 740.861 Q60.0256 736.214 56.3653 733.54 Q52.6732 730.867 46.212 730.867 Q39.7508 730.867 36.0905 733.54 Q32.3984 736.214 32.3984 740.861 Q32.3984 745.508 36.0905 748.181 Q39.7508 750.823 46.212 750.823 Z" fill="#000000" fill-rule="nonzero" fill-opacity="1" /><path clip-path="url(#clip610)" d="M41.3104 706.263 L58.7206 706.263 L58.7206 695.951 Q58.7206 690.763 56.5881 688.28 Q54.4238 685.766 49.9996 685.766 Q45.5436 685.766 43.4429 688.28 Q41.3104 690.763 41.3104 695.951 L41.3104 706.263 M21.7677 706.263 L36.0905 706.263 L36.0905 696.747 Q36.0905 692.036 34.34 689.744 Q32.5576 687.421 28.9291 687.421 Q25.3325 687.421 23.5501 689.744 Q21.7677 692.036 21.7677 696.747 L21.7677 706.263 M16.4842 712.693 L16.4842 696.269 Q16.4842 688.917 19.5397 684.938 Q22.5952 680.96 28.2289 680.96 Q32.5894 680.96 35.1675 682.997 Q37.7456 685.034 38.3822 688.98 Q39.4007 684.238 42.6472 681.628 Q45.8619 678.986 50.6998 678.986 Q57.0655 678.986 60.5348 683.315 Q64.0042 687.644 64.0042 695.633 L64.0042 712.693 L16.4842 712.693 Z" fill="#000000" fill-rule="nonzero" fill-opacity="1" /><path clip-path="url(#clip610)" d="M16.4842 657.82 L16.4842 652.409 L70.0516 668.96 L70.0516 674.371 L16.4842 657.82 Z" fill="#000000" fill-rule="nonzero" fill-opacity="1" /><path clip-path="url(#clip610)" d="M16.4842 646.012 L16.4842 639.582 L35.9632 639.582 L35.9632 616.22 L16.4842 616.22 L16.4842 609.791 L64.0042 609.791 L64.0042 616.22 L41.3741 616.22 L41.3741 639.582 L64.0042 639.582 L64.0042 646.012 L16.4842 646.012 Z" fill="#000000" fill-rule="nonzero" fill-opacity="1" /><path clip-path="url(#clip610)" d="M28.3562 599.797 L28.3562 571.979 L33.7034 571.979 L59.3254 594.004 L59.3254 571.979 L64.0042 571.979 L64.0042 600.593 L58.657 600.593 L33.035 578.567 L33.035 599.797 L28.3562 599.797 Z" fill="#000000" fill-rule="nonzero" fill-opacity="1" /><path clip-path="url(#clip610)" d="M14.479 549.349 L72.5979 549.349 L72.5979 562.844 L68.0464 562.844 L68.0464 555.237 L19.0304 555.237 L19.0304 562.844 L14.479 562.844 L14.479 549.349 Z" fill="#000000" fill-rule="nonzero" fill-opacity="1" /><path clip-path="url(#clip610)" d="M496.541 14.0809 L496.541 22.0612 Q491.882 19.8332 487.751 18.7395 Q483.619 17.6457 479.77 17.6457 Q473.086 17.6457 469.44 20.2383 Q465.835 22.8309 465.835 27.611 Q465.835 31.6214 468.225 33.6873 Q470.656 35.7128 477.38 36.9686 L482.322 37.9813 Q491.477 39.7232 495.812 44.1387 Q500.187 48.5136 500.187 55.8863 Q500.187 64.6767 494.273 69.2137 Q488.399 73.7508 477.016 73.7508 Q472.722 73.7508 467.861 72.7785 Q463.04 71.8063 457.855 69.9024 L457.855 61.4765 Q462.837 64.2716 467.618 65.6895 Q472.398 67.1073 477.016 67.1073 Q484.024 67.1073 487.832 64.3527 Q491.639 61.598 491.639 56.4939 Q491.639 52.0379 488.885 49.5264 Q486.171 47.0148 479.932 45.759 L474.95 44.7868 Q465.795 42.9639 461.703 39.075 Q457.612 35.1862 457.612 28.2591 Q457.612 20.2383 463.243 15.6203 Q468.914 11.0023 478.839 11.0023 Q483.092 11.0023 487.507 11.7719 Q491.923 12.5416 496.541 14.0809 Z" fill="#000000" fill-rule="nonzero" fill-opacity="1" /><path clip-path="url(#clip610)" d="M519.834 65.7705 L519.834 89.8329 L512.34 89.8329 L512.34 27.2059 L519.834 27.2059 L519.834 34.0924 Q522.183 30.0415 525.748 28.0971 Q529.353 26.1121 534.336 26.1121 Q542.6 26.1121 547.744 32.6746 Q552.93 39.2371 552.93 49.9314 Q552.93 60.6258 547.744 67.1883 Q542.6 73.7508 534.336 73.7508 Q529.353 73.7508 525.748 71.8063 Q522.183 69.8214 519.834 65.7705 M545.192 49.9314 Q545.192 41.7081 541.79 37.0496 Q538.427 32.3505 532.513 32.3505 Q526.599 32.3505 523.196 37.0496 Q519.834 41.7081 519.834 49.9314 Q519.834 58.1548 523.196 62.8538 Q526.599 67.5124 532.513 67.5124 Q538.427 67.5124 541.79 62.8538 Q545.192 58.1548 545.192 49.9314 Z" fill="#000000" fill-rule="nonzero" fill-opacity="1" /><path clip-path="url(#clip610)" d="M564.515 54.671 L564.515 27.2059 L571.969 27.2059 L571.969 54.3874 Q571.969 60.8284 574.48 64.0691 Q576.992 67.2693 582.015 67.2693 Q588.051 67.2693 591.535 63.421 Q595.059 59.5726 595.059 52.9291 L595.059 27.2059 L602.513 27.2059 L602.513 72.576 L595.059 72.576 L595.059 65.6084 Q592.345 69.7404 588.74 71.7658 Q585.175 73.7508 580.435 73.7508 Q572.617 73.7508 568.566 68.8897 Q564.515 64.0286 564.515 54.671 M583.271 26.1121 L583.271 26.1121 Z" fill="#000000" fill-rule="nonzero" fill-opacity="1" /><path clip-path="url(#clip610)" d="M644.156 34.1734 Q642.9 33.4443 641.401 33.1202 Q639.943 32.7556 638.161 32.7556 Q631.841 32.7556 628.438 36.8875 Q625.076 40.9789 625.076 48.6757 L625.076 72.576 L617.582 72.576 L617.582 27.2059 L625.076 27.2059 L625.076 34.2544 Q627.426 30.1225 631.193 28.1376 Q634.96 26.1121 640.348 26.1121 Q641.118 26.1121 642.049 26.2337 Q642.981 26.3147 644.115 26.5172 L644.156 34.1734 Z" fill="#000000" fill-rule="nonzero" fill-opacity="1" /><path clip-path="url(#clip610)" d="M651.974 27.2059 L659.428 27.2059 L659.428 72.576 L651.974 72.576 L651.974 27.2059 M651.974 9.54393 L659.428 9.54393 L659.428 18.9825 L651.974 18.9825 L651.974 9.54393 Z" fill="#000000" fill-rule="nonzero" fill-opacity="1" /><path clip-path="url(#clip610)" d="M692.605 32.4315 Q686.609 32.4315 683.126 37.1306 Q679.642 41.7891 679.642 49.9314 Q679.642 58.0738 683.085 62.7728 Q686.569 67.4314 692.605 67.4314 Q698.56 67.4314 702.043 62.7323 Q705.527 58.0333 705.527 49.9314 Q705.527 41.8701 702.043 37.1711 Q698.56 32.4315 692.605 32.4315 M692.605 26.1121 Q702.327 26.1121 707.877 32.4315 Q713.426 38.7509 713.426 49.9314 Q713.426 61.0714 707.877 67.4314 Q702.327 73.7508 692.605 73.7508 Q682.842 73.7508 677.292 67.4314 Q671.783 61.0714 671.783 49.9314 Q671.783 38.7509 677.292 32.4315 Q682.842 26.1121 692.605 26.1121 Z" fill="#000000" fill-rule="nonzero" fill-opacity="1" /><path clip-path="url(#clip610)" d="M725.012 54.671 L725.012 27.2059 L732.466 27.2059 L732.466 54.3874 Q732.466 60.8284 734.977 64.0691 Q737.489 67.2693 742.512 67.2693 Q748.548 67.2693 752.032 63.421 Q755.556 59.5726 755.556 52.9291 L755.556 27.2059 L763.009 27.2059 L763.009 72.576 L755.556 72.576 L755.556 65.6084 Q752.842 69.7404 749.236 71.7658 Q745.672 73.7508 740.932 73.7508 Q733.114 73.7508 729.063 68.8897 Q725.012 64.0286 725.012 54.671 M743.768 26.1121 L743.768 26.1121 Z" fill="#000000" fill-rule="nonzero" fill-opacity="1" /><path clip-path="url(#clip610)" d="M807.286 28.5427 L807.286 35.5912 Q804.126 33.9709 800.723 33.1607 Q797.321 32.3505 793.675 32.3505 Q788.125 32.3505 785.33 34.0519 Q782.575 35.7533 782.575 39.156 Q782.575 41.7486 784.56 43.2475 Q786.545 44.7058 792.541 46.0426 L795.093 46.6097 Q803.032 48.3111 806.354 51.4303 Q809.716 54.509 809.716 60.0587 Q809.716 66.3781 804.693 70.0644 Q799.711 73.7508 790.961 73.7508 Q787.315 73.7508 783.345 73.0216 Q779.416 72.3329 775.041 70.9151 L775.041 63.2184 Q779.173 65.3654 783.183 66.4591 Q787.193 67.5124 791.123 67.5124 Q796.389 67.5124 799.225 65.73 Q802.06 63.9071 802.06 60.6258 Q802.06 57.5877 799.994 55.9673 Q797.969 54.3469 791.042 52.8481 L788.449 52.2405 Q781.522 50.7821 778.443 47.7845 Q775.365 44.7463 775.365 39.4801 Q775.365 33.0797 779.902 29.5959 Q784.439 26.1121 792.784 26.1121 Q796.916 26.1121 800.561 26.7198 Q804.207 27.3274 807.286 28.5427 Z" fill="#000000" fill-rule="nonzero" fill-opacity="1" /><path clip-path="url(#clip610)" d="M817.818 46.5287 L839.653 46.5287 L839.653 53.1722 L817.818 53.1722 L817.818 46.5287 Z" fill="#000000" fill-rule="nonzero" fill-opacity="1" /><path clip-path="url(#clip610)" d="M874.49 9.54393 L874.49 15.7418 L867.361 15.7418 Q863.35 15.7418 861.771 17.3622 Q860.231 18.9825 860.231 23.1955 L860.231 27.2059 L872.505 27.2059 L872.505 32.9987 L860.231 32.9987 L860.231 72.576 L852.737 72.576 L852.737 32.9987 L845.607 32.9987 L845.607 27.2059 L852.737 27.2059 L852.737 24.0462 Q852.737 16.471 856.261 13.0277 Q859.786 9.54393 867.442 9.54393 L874.49 9.54393 Z" fill="#000000" fill-rule="nonzero" fill-opacity="1" /><path clip-path="url(#clip610)" d="M907.019 34.1734 Q905.763 33.4443 904.265 33.1202 Q902.806 32.7556 901.024 32.7556 Q894.704 32.7556 891.302 36.8875 Q887.939 40.9789 887.939 48.6757 L887.939 72.576 L880.445 72.576 L880.445 27.2059 L887.939 27.2059 L887.939 34.2544 Q890.289 30.1225 894.056 28.1376 Q897.824 26.1121 903.211 26.1121 Q903.981 26.1121 904.913 26.2337 Q905.844 26.3147 906.979 26.5172 L907.019 34.1734 Z" fill="#000000" fill-rule="nonzero" fill-opacity="1" /><path clip-path="url(#clip610)" d="M951.822 48.0275 L951.822 51.6733 L917.551 51.6733 Q918.038 59.3701 922.17 63.421 Q926.342 67.4314 933.755 67.4314 Q938.049 67.4314 942.059 66.3781 Q946.11 65.3249 950.08 63.2184 L950.08 70.267 Q946.07 71.9684 941.857 72.8596 Q937.644 73.7508 933.31 73.7508 Q922.453 73.7508 916.093 67.4314 Q909.774 61.1119 909.774 50.3365 Q909.774 39.1965 915.769 32.6746 Q921.805 26.1121 932.013 26.1121 Q941.168 26.1121 946.475 32.0264 Q951.822 37.9003 951.822 48.0275 M944.368 45.84 Q944.287 39.7232 940.925 36.0774 Q937.603 32.4315 932.094 32.4315 Q925.856 32.4315 922.089 35.9558 Q918.362 39.4801 917.795 45.8805 L944.368 45.84 Z" fill="#000000" fill-rule="nonzero" fill-opacity="1" /><path clip-path="url(#clip610)" d="M1002.86 48.0275 L1002.86 51.6733 L968.593 51.6733 Q969.079 59.3701 973.211 63.421 Q977.383 67.4314 984.796 67.4314 Q989.09 67.4314 993.101 66.3781 Q997.152 65.3249 1001.12 63.2184 L1001.12 70.267 Q997.111 71.9684 992.898 72.8596 Q988.685 73.7508 984.351 73.7508 Q973.494 73.7508 967.135 67.4314 Q960.815 61.1119 960.815 50.3365 Q960.815 39.1965 966.81 32.6746 Q972.846 26.1121 983.055 26.1121 Q992.21 26.1121 997.516 32.0264 Q1002.86 37.9003 1002.86 48.0275 M995.41 45.84 Q995.329 39.7232 991.967 36.0774 Q988.645 32.4315 983.136 32.4315 Q976.897 32.4315 973.13 35.9558 Q969.403 39.4801 968.836 45.8805 L995.41 45.84 Z" fill="#000000" fill-rule="nonzero" fill-opacity="1" /><path clip-path="url(#clip610)" d="M1071.32 34.0924 L1071.32 9.54393 L1078.78 9.54393 L1078.78 72.576 L1071.32 72.576 L1071.32 65.7705 Q1068.97 69.8214 1065.37 71.8063 Q1061.8 73.7508 1056.78 73.7508 Q1048.56 73.7508 1043.37 67.1883 Q1038.23 60.6258 1038.23 49.9314 Q1038.23 39.2371 1043.37 32.6746 Q1048.56 26.1121 1056.78 26.1121 Q1061.8 26.1121 1065.37 28.0971 Q1068.97 30.0415 1071.32 34.0924 M1045.92 49.9314 Q1045.92 58.1548 1049.29 62.8538 Q1052.69 67.5124 1058.6 67.5124 Q1064.52 67.5124 1067.92 62.8538 Q1071.32 58.1548 1071.32 49.9314 Q1071.32 41.7081 1067.92 37.0496 Q1064.52 32.3505 1058.6 32.3505 Q1052.69 32.3505 1049.29 37.0496 Q1045.92 41.7081 1045.92 49.9314 Z" fill="#000000" fill-rule="nonzero" fill-opacity="1" /><path clip-path="url(#clip610)" d="M1113.01 76.7889 Q1109.85 84.8907 1106.85 87.3618 Q1103.85 89.8329 1098.83 89.8329 L1092.87 89.8329 L1092.87 83.5945 L1097.25 83.5945 Q1100.33 83.5945 1102.03 82.1361 Q1103.73 80.6778 1105.8 75.2496 L1107.13 71.8468 L1088.78 27.2059 L1096.68 27.2059 L1110.86 62.6918 L1125.04 27.2059 L1132.94 27.2059 L1113.01 76.7889 Z" fill="#000000" fill-rule="nonzero" fill-opacity="1" /><path clip-path="url(#clip610)" d="M1180.94 45.1919 L1180.94 72.576 L1173.49 72.576 L1173.49 45.4349 Q1173.49 38.994 1170.98 35.7938 Q1168.46 32.5936 1163.44 32.5936 Q1157.41 32.5936 1153.92 36.4419 Q1150.44 40.2903 1150.44 46.9338 L1150.44 72.576 L1142.94 72.576 L1142.94 27.2059 L1150.44 27.2059 L1150.44 34.2544 Q1153.11 30.163 1156.72 28.1376 Q1160.36 26.1121 1165.1 26.1121 Q1172.92 26.1121 1176.93 30.9732 Q1180.94 35.7938 1180.94 45.1919 Z" fill="#000000" fill-rule="nonzero" fill-opacity="1" /><path clip-path="url(#clip610)" d="M1216.43 49.7694 Q1207.39 49.7694 1203.91 51.8354 Q1200.43 53.9013 1200.43 58.8839 Q1200.43 62.8538 1203.02 65.2034 Q1205.65 67.5124 1210.15 67.5124 Q1216.35 67.5124 1220.07 63.1374 Q1223.84 58.7219 1223.84 51.4303 L1223.84 49.7694 L1216.43 49.7694 M1231.29 46.6907 L1231.29 72.576 L1223.84 72.576 L1223.84 65.6895 Q1221.29 69.8214 1217.48 71.8063 Q1213.67 73.7508 1208.16 73.7508 Q1201.2 73.7508 1197.06 69.8619 Q1192.97 65.9325 1192.97 59.3701 Q1192.97 51.7138 1198.08 47.825 Q1203.22 43.9361 1213.39 43.9361 L1223.84 43.9361 L1223.84 43.2069 Q1223.84 38.0623 1220.44 35.2672 Q1217.08 32.4315 1210.96 32.4315 Q1207.07 32.4315 1203.38 33.3632 Q1199.7 34.295 1196.29 36.1584 L1196.29 29.2718 Q1200.39 27.692 1204.23 26.9223 Q1208.08 26.1121 1211.73 26.1121 Q1221.57 26.1121 1226.43 31.2163 Q1231.29 36.3204 1231.29 46.6907 Z" fill="#000000" fill-rule="nonzero" fill-opacity="1" /><path clip-path="url(#clip610)" d="M1281.97 35.9153 Q1284.77 30.8922 1288.65 28.5022 Q1292.54 26.1121 1297.81 26.1121 Q1304.9 26.1121 1308.75 31.0947 Q1312.6 36.0368 1312.6 45.1919 L1312.6 72.576 L1305.1 72.576 L1305.1 45.4349 Q1305.1 38.913 1302.79 35.7533 Q1300.48 32.5936 1295.74 32.5936 Q1289.95 32.5936 1286.59 36.4419 Q1283.23 40.2903 1283.23 46.9338 L1283.23 72.576 L1275.73 72.576 L1275.73 45.4349 Q1275.73 38.8725 1273.42 35.7533 Q1271.11 32.5936 1266.29 32.5936 Q1260.58 32.5936 1257.22 36.4824 Q1253.86 40.3308 1253.86 46.9338 L1253.86 72.576 L1246.36 72.576 L1246.36 27.2059 L1253.86 27.2059 L1253.86 34.2544 Q1256.41 30.082 1259.97 28.0971 Q1263.54 26.1121 1268.44 26.1121 Q1273.38 26.1121 1276.83 28.6237 Q1280.31 31.1352 1281.97 35.9153 Z" fill="#000000" fill-rule="nonzero" fill-opacity="1" /><path clip-path="url(#clip610)" d="M1327.46 27.2059 L1334.92 27.2059 L1334.92 72.576 L1327.46 72.576 L1327.46 27.2059 M1327.46 9.54393 L1334.92 9.54393 L1334.92 18.9825 L1327.46 18.9825 L1327.46 9.54393 Z" fill="#000000" fill-rule="nonzero" fill-opacity="1" /><path clip-path="url(#clip610)" d="M1383.16 28.9478 L1383.16 35.9153 Q1380 34.1734 1376.8 33.3227 Q1373.64 32.4315 1370.4 32.4315 Q1363.15 32.4315 1359.14 37.0496 Q1355.13 41.6271 1355.13 49.9314 Q1355.13 58.2358 1359.14 62.8538 Q1363.15 67.4314 1370.4 67.4314 Q1373.64 67.4314 1376.8 66.5807 Q1380 65.6895 1383.16 63.9476 L1383.16 70.8341 Q1380.04 72.2924 1376.68 73.0216 Q1373.36 73.7508 1369.59 73.7508 Q1359.34 73.7508 1353.31 67.3098 Q1347.27 60.8689 1347.27 49.9314 Q1347.27 38.832 1353.35 32.472 Q1359.46 26.1121 1370.08 26.1121 Q1373.52 26.1121 1376.8 26.8413 Q1380.08 27.5299 1383.16 28.9478 Z" fill="#000000" fill-rule="nonzero" fill-opacity="1" /><path clip-path="url(#clip610)" d="M1448.79 34.1734 Q1447.53 33.4443 1446.03 33.1202 Q1444.57 32.7556 1442.79 32.7556 Q1436.47 32.7556 1433.07 36.8875 Q1429.71 40.9789 1429.71 48.6757 L1429.71 72.576 L1422.21 72.576 L1422.21 27.2059 L1429.71 27.2059 L1429.71 34.2544 Q1432.06 30.1225 1435.82 28.1376 Q1439.59 26.1121 1444.98 26.1121 Q1445.75 26.1121 1446.68 26.2337 Q1447.61 26.3147 1448.75 26.5172 L1448.79 34.1734 Z" fill="#000000" fill-rule="nonzero" fill-opacity="1" /><path clip-path="url(#clip610)" d="M1477.22 49.7694 Q1468.19 49.7694 1464.71 51.8354 Q1461.22 53.9013 1461.22 58.8839 Q1461.22 62.8538 1463.82 65.2034 Q1466.45 67.5124 1470.95 67.5124 Q1477.14 67.5124 1480.87 63.1374 Q1484.64 58.7219 1484.64 51.4303 L1484.64 49.7694 L1477.22 49.7694 M1492.09 46.6907 L1492.09 72.576 L1484.64 72.576 L1484.64 65.6895 Q1482.09 69.8214 1478.28 71.8063 Q1474.47 73.7508 1468.96 73.7508 Q1461.99 73.7508 1457.86 69.8619 Q1453.77 65.9325 1453.77 59.3701 Q1453.77 51.7138 1458.87 47.825 Q1464.02 43.9361 1474.19 43.9361 L1484.64 43.9361 L1484.64 43.2069 Q1484.64 38.0623 1481.23 35.2672 Q1477.87 32.4315 1471.76 32.4315 Q1467.87 32.4315 1464.18 33.3632 Q1460.49 34.295 1457.09 36.1584 L1457.09 29.2718 Q1461.18 27.692 1465.03 26.9223 Q1468.88 26.1121 1472.53 26.1121 Q1482.37 26.1121 1487.23 31.2163 Q1492.09 36.3204 1492.09 46.6907 Z" fill="#000000" fill-rule="nonzero" fill-opacity="1" /><path clip-path="url(#clip610)" d="M1545.16 45.1919 L1545.16 72.576 L1537.7 72.576 L1537.7 45.4349 Q1537.7 38.994 1535.19 35.7938 Q1532.68 32.5936 1527.66 32.5936 Q1521.62 32.5936 1518.14 36.4419 Q1514.65 40.2903 1514.65 46.9338 L1514.65 72.576 L1507.16 72.576 L1507.16 27.2059 L1514.65 27.2059 L1514.65 34.2544 Q1517.33 30.163 1520.93 28.1376 Q1524.58 26.1121 1529.32 26.1121 Q1537.14 26.1121 1541.15 30.9732 Q1545.16 35.7938 1545.16 45.1919 Z" fill="#000000" fill-rule="nonzero" fill-opacity="1" /><path clip-path="url(#clip610)" d="M1589.88 49.3643 Q1589.88 41.2625 1586.52 36.8065 Q1583.2 32.3505 1577.16 32.3505 Q1571.16 32.3505 1567.8 36.8065 Q1564.48 41.2625 1564.48 49.3643 Q1564.48 57.4256 1567.8 61.8816 Q1571.16 66.3376 1577.16 66.3376 Q1583.2 66.3376 1586.52 61.8816 Q1589.88 57.4256 1589.88 49.3643 M1597.33 66.9452 Q1597.33 78.5308 1592.19 84.1616 Q1587.04 89.8329 1576.43 89.8329 Q1572.5 89.8329 1569.02 89.2252 Q1565.53 88.6581 1562.25 87.4428 L1562.25 80.1917 Q1565.53 81.9741 1568.73 82.8248 Q1571.93 83.6755 1575.26 83.6755 Q1582.59 83.6755 1586.23 79.8271 Q1589.88 76.0193 1589.88 68.282 L1589.88 64.5957 Q1587.57 68.6061 1583.97 70.5911 Q1580.36 72.576 1575.34 72.576 Q1566.99 72.576 1561.89 66.2161 Q1556.78 59.8562 1556.78 49.3643 Q1556.78 38.832 1561.89 32.472 Q1566.99 26.1121 1575.34 26.1121 Q1580.36 26.1121 1583.97 28.0971 Q1587.57 30.082 1589.88 34.0924 L1589.88 27.2059 L1597.33 27.2059 L1597.33 66.9452 Z" fill="#000000" fill-rule="nonzero" fill-opacity="1" /><path clip-path="url(#clip610)" d="M1651.49 48.0275 L1651.49 51.6733 L1617.22 51.6733 Q1617.71 59.3701 1621.84 63.421 Q1626.01 67.4314 1633.43 67.4314 Q1637.72 67.4314 1641.73 66.3781 Q1645.78 65.3249 1649.75 63.2184 L1649.75 70.267 Q1645.74 71.9684 1641.53 72.8596 Q1637.32 73.7508 1632.98 73.7508 Q1622.13 73.7508 1615.77 67.4314 Q1609.45 61.1119 1609.45 50.3365 Q1609.45 39.1965 1615.44 32.6746 Q1621.48 26.1121 1631.69 26.1121 Q1640.84 26.1121 1646.15 32.0264 Q1651.49 37.9003 1651.49 48.0275 M1644.04 45.84 Q1643.96 39.7232 1640.6 36.0774 Q1637.28 32.4315 1631.77 32.4315 Q1625.53 32.4315 1621.76 35.9558 Q1618.03 39.4801 1617.47 45.8805 L1644.04 45.84 Z" fill="#000000" fill-rule="nonzero" fill-opacity="1" /><path clip-path="url(#clip610)" d="M1684.75 27.2059 L1692.65 27.2059 L1706.83 65.2844 L1721.01 27.2059 L1728.91 27.2059 L1711.89 72.576 L1701.77 72.576 L1684.75 27.2059 Z" fill="#000000" fill-rule="nonzero" fill-opacity="1" /><path clip-path="url(#clip610)" d="M1768.12 28.5427 L1768.12 35.5912 Q1764.96 33.9709 1761.56 33.1607 Q1758.15 32.3505 1754.51 32.3505 Q1748.96 32.3505 1746.16 34.0519 Q1743.41 35.7533 1743.41 39.156 Q1743.41 41.7486 1745.39 43.2475 Q1747.38 44.7058 1753.37 46.0426 L1755.93 46.6097 Q1763.87 48.3111 1767.19 51.4303 Q1770.55 54.509 1770.55 60.0587 Q1770.55 66.3781 1765.53 70.0644 Q1760.54 73.7508 1751.79 73.7508 Q1748.15 73.7508 1744.18 73.0216 Q1740.25 72.3329 1735.87 70.9151 L1735.87 63.2184 Q1740.01 65.3654 1744.02 66.4591 Q1748.03 67.5124 1751.96 67.5124 Q1757.22 67.5124 1760.06 65.73 Q1762.89 63.9071 1762.89 60.6258 Q1762.89 57.5877 1760.83 55.9673 Q1758.8 54.3469 1751.88 52.8481 L1749.28 52.2405 Q1742.36 50.7821 1739.28 47.7845 Q1736.2 44.7463 1736.2 39.4801 Q1736.2 33.0797 1740.74 29.5959 Q1745.27 26.1121 1753.62 26.1121 Q1757.75 26.1121 1761.4 26.7198 Q1765.04 27.3274 1768.12 28.5427 Z" fill="#000000" fill-rule="nonzero" fill-opacity="1" /><path clip-path="url(#clip610)" d="M1809.11 12.096 L1817.3 12.096 L1817.3 65.6895 L1846.75 65.6895 L1846.75 72.576 L1809.11 72.576 L1809.11 12.096 Z" fill="#000000" fill-rule="nonzero" fill-opacity="1" /><path clip-path="url(#clip610)" d="M1850.27 12.096 L1858.5 12.096 L1858.5 48.8377 Q1858.5 58.5599 1862.02 62.8538 Q1865.54 67.1073 1873.44 67.1073 Q1881.3 67.1073 1884.83 62.8538 Q1888.35 58.5599 1888.35 48.8377 L1888.35 12.096 L1896.57 12.096 L1896.57 49.8504 Q1896.57 61.6791 1890.7 67.7149 Q1884.87 73.7508 1873.44 73.7508 Q1861.98 73.7508 1856.11 67.7149 Q1850.27 61.6791 1850.27 49.8504 L1850.27 12.096 Z" fill="#000000" fill-rule="nonzero" fill-opacity="1" /><path clip-path="url(#clip610)" d="M1903.54 12.096 L1954.7 12.096 L1954.7 18.9825 L1933.23 18.9825 L1933.23 72.576 L1925.01 72.576 L1925.01 18.9825 L1903.54 18.9825 L1903.54 12.096 Z" fill="#000000" fill-rule="nonzero" fill-opacity="1" /><path clip-path="url(#clip610)" d="M2017.57 28.5427 L2017.57 35.5912 Q2014.41 33.9709 2011.01 33.1607 Q2007.61 32.3505 2003.96 32.3505 Q1998.41 32.3505 1995.62 34.0519 Q1992.86 35.7533 1992.86 39.156 Q1992.86 41.7486 1994.85 43.2475 Q1996.83 44.7058 2002.83 46.0426 L2005.38 46.6097 Q2013.32 48.3111 2016.64 51.4303 Q2020.01 54.509 2020.01 60.0587 Q2020.01 66.3781 2014.98 70.0644 Q2010 73.7508 2001.25 73.7508 Q1997.6 73.7508 1993.63 73.0216 Q1989.7 72.3329 1985.33 70.9151 L1985.33 63.2184 Q1989.46 65.3654 1993.47 66.4591 Q1997.48 67.5124 2001.41 67.5124 Q2006.68 67.5124 2009.51 65.73 Q2012.35 63.9071 2012.35 60.6258 Q2012.35 57.5877 2010.28 55.9673 Q2008.26 54.3469 2001.33 52.8481 L1998.74 52.2405 Q1991.81 50.7821 1988.73 47.7845 Q1985.65 44.7463 1985.65 39.4801 Q1985.65 33.0797 1990.19 29.5959 Q1994.73 26.1121 2003.07 26.1121 Q2007.2 26.1121 2010.85 26.7198 Q2014.5 27.3274 2017.57 28.5427 Z" fill="#000000" fill-rule="nonzero" fill-opacity="1" /><path clip-path="url(#clip610)" d="M2031.87 27.2059 L2039.33 27.2059 L2039.33 72.576 L2031.87 72.576 L2031.87 27.2059 M2031.87 9.54393 L2039.33 9.54393 L2039.33 18.9825 L2031.87 18.9825 L2031.87 9.54393 Z" fill="#000000" fill-rule="nonzero" fill-opacity="1" /><path clip-path="url(#clip610)" d="M2051.68 27.2059 L2087.09 27.2059 L2087.09 34.0114 L2059.06 66.6212 L2087.09 66.6212 L2087.09 72.576 L2050.67 72.576 L2050.67 65.7705 L2078.7 33.1607 L2051.68 33.1607 L2051.68 27.2059 Z" fill="#000000" fill-rule="nonzero" fill-opacity="1" /><path clip-path="url(#clip610)" d="M2137.28 48.0275 L2137.28 51.6733 L2103.01 51.6733 Q2103.49 59.3701 2107.63 63.421 Q2111.8 67.4314 2119.21 67.4314 Q2123.51 67.4314 2127.52 66.3781 Q2131.57 65.3249 2135.54 63.2184 L2135.54 70.267 Q2131.53 71.9684 2127.31 72.8596 Q2123.1 73.7508 2118.77 73.7508 Q2107.91 73.7508 2101.55 67.4314 Q2095.23 61.1119 2095.23 50.3365 Q2095.23 39.1965 2101.23 32.6746 Q2107.26 26.1121 2117.47 26.1121 Q2126.62 26.1121 2131.93 32.0264 Q2137.28 37.9003 2137.28 48.0275 M2129.83 45.84 Q2129.74 39.7232 2126.38 36.0774 Q2123.06 32.4315 2117.55 32.4315 Q2111.31 32.4315 2107.55 35.9558 Q2103.82 39.4801 2103.25 45.8805 L2129.83 45.84 Z" fill="#000000" fill-rule="nonzero" fill-opacity="1" /><polyline clip-path="url(#clip612)" style="stroke:#009af9; stroke-linecap:round; stroke-linejoin:round; stroke-width:4; stroke-opacity:1; fill:none" points="301.869,1205.97 303.814,1162.41 305.758,1161.98 307.703,1160.63 309.647,1117.27 311.592,1158.57 313.536,1157.29 315.481,1154.55 317.425,1149.82 319.37,1140.77 321.314,1119.21 323.259,1042.4 325.203,988.79 327.148,1122.65 329.092,1147.65 331.036,1153.51 332.981,1153.52 334.925,1149.54 336.87,1136.75 338.814,1060.19 340.759,1129.97 342.703,1166.98 344.648,1169.03 346.592,1169.29 348.537,1169.99 350.481,1170.57 352.426,1157.34 354.37,918.154 356.315,1065.95 358.259,1106.63 360.204,1118.96 362.148,1124.2 364.093,1126.93 366.037,1129.15 367.982,1134.47 369.926,1041.54 371.871,1113.23 373.815,1115.79 375.76,1115.53 377.704,1114.34 379.649,1112.58 381.593,1110.1 383.538,1103.79 385.482,1099.17 387.427,1105.85 389.371,1103.46 391.316,1100.78 393.26,1097.85 395.204,1094.4 397.149,1089.06 399.093,1059.5 401.038,1075.23 402.982,1084.25 404.927,1082.02 406.871,1078.85 408.816,1075.24 410.76,1070.89 412.705,1063.63 414.649,981.571 416.594,1060.69 418.538,1060.58 420.483,1056.99 422.427,1053.05 424.372,1048.95 426.316,1044.63 428.261,1039.64 430.205,1001.53 432.15,1032.96 434.094,1027.98 436.039,1022.98 437.983,1017.8 439.928,1012.26 441.872,1005.87 443.817,994.652 445.761,989.02 447.706,993.318 449.65,986.766 451.595,980.089 453.539,973.229 455.484,966.127 457.428,958.801 459.372,951.645 461.317,939.358 463.261,932.021 465.206,922.683 467.15,912.423 469.095,901.223 471.039,888.929 472.984,875.252 474.928,858.016 476.873,843.984 478.817,824.045 480.762,800.733 482.706,772.288 484.651,735.649 486.595,683.941 488.54,594.885 490.484,160.256 492.429,602.072 494.373,686.92 496.318,736.966 498.262,772.596 500.207,800.32 502.151,823.118 504.096,842.906 506.04,852.716 507.985,871.932 509.929,885.433 511.874,897.315 513.818,907.684 515.763,915.52 517.707,914.016 519.651,837.639 521.596,829.049 523.54,911.484 525.485,935.037 527.429,948.008 529.374,957.409 531.318,965.088 533.263,971.569 535.207,972.18 537.152,984.925 539.096,990.002 541.041,994.944 542.985,999.687 544.93,1004.23 546.874,1008.59 548.819,1012.78 550.763,1015.53 552.708,1020.7 554.652,1024.47 556.597,1028.12 558.541,1031.66 560.486,1035.07 562.43,1038.19 564.375,1038.11 566.319,993.543 568.264,1042.4 570.208,1047.92 572.153,1051.48 574.097,1054.47 576.042,1056.96 577.986,1057.94 579.931,1039.25 581.875,1032.7 583.819,1062.3 585.764,1067.69 587.708,1070.82 589.653,1073.11 591.597,1074.29 593.542,1070.73 595.486,985.74 597.431,1054.47 599.375,1078.54 601.32,1084.47 603.264,1087.94 605.209,1090.77 607.153,1093.55 609.098,1097.12 611.042,1158.48 612.987,1094.84 614.931,1098.23 616.876,1100.46 618.82,1102.3 620.765,1103.79 622.709,1104.62 624.654,1102.31 626.598,1115.59 628.543,1116.7 630.487,1117.13 632.432,1118.49 634.376,1120.28 636.321,1122.45 638.265,1125.12 640.21,1119.94 642.154,1079.89 644.098,1112.93 646.043,1118.77 647.987,1121.13 649.932,1121.46 651.876,1117.92 653.821,1099.03 655.765,962.015 657.71,1043.31 659.654,1102.9 661.599,1118.62 663.543,1125.5 665.488,1129.48 667.432,1132.15 669.377,1133.62 671.321,1036.73 673.266,1137.64 675.21,1139.57 677.155,1140.79 679.099,1141.61 681.044,1141.67 682.988,1139.16 684.933,1119.34 686.877,990.393 688.822,1134.12 690.766,1145.52 692.711,1149.13 694.655,1151.13 696.6,1152.45 698.544,1152.67 700.489,1140.93 702.433,1124.23 704.378,1152.57 706.322,1156.15 708.266,1157.82 710.211,1158.86 712.155,1159.25 714.1,1157.53 716.044,1122.34 717.989,1158.8 719.933,1167.07 721.878,1169.08 723.822,1170.97 725.767,1173.29 727.711,1176.24 729.656,1175.33 731.6,923.413 733.545,1117.31 735.489,1143.46 737.434,1151.31 739.378,1154.69 741.323,1156.12 743.267,1156.11 745.212,1151.7 747.156,1045.41 749.101,1141.13 751.045,1139.91 752.99,1132.05 754.934,1117.78 756.879,1092.8 758.823,1045.91 760.768,933.533 762.712,883.191 764.657,1038.31 766.601,1097.04 768.546,1128.12 770.49,1146.07 772.434,1156.38 774.379,1159.56 776.323,1117.22 778.268,1161.52 780.212,1179.66 782.157,1183.44 784.101,1185.71 786.046,1187.48 787.99,1188.97 789.935,1190.1 791.879,1146.01 793.824,1189.08 795.768,1191.8 797.713,1192.99 799.657,1193.82 801.602,1194.38 803.546,1194.35 805.491,1190.06 807.435,1065.68 809.38,1189.3 811.324,1193.1 813.269,1193.16 815.213,1191.31 817.158,1186.01 819.102,1170.1 821.047,1100.33 822.991,1041.45 824.936,1163.57 826.88,1185.49 828.825,1191.15 830.769,1190.98 832.713,1184.92 834.658,1163 836.602,1050.19 838.547,1102.7 840.491,1179.68 842.436,1196.63 844.38,1202.22 846.325,1204.2 848.269,1203.81 850.214,1197.27 852.158,1060.56 854.103,1195.59 856.047,1207.25 857.992,1208.94 859.936,1209.23 861.881,1209.03 863.825,1208.52 865.77,1207.61 867.714,1150.76 869.659,1202.84 871.603,1201.5 873.548,1198.93 875.492,1195.4 877.437,1190.65 879.381,1183.71 881.326,1164.67 883.27,1114.61 885.215,1148.73 887.159,1136.28 889.104,1115.88 891.048,1087.18 892.993,1045.84 894.937,979.7 896.881,827.064 898.826,863.257 900.77,986.278 902.715,1043.79 904.659,1080.13 906.604,1105.7 908.548,1124.58 910.493,1137.26 912.437,1056.51 914.382,1142.78 916.326,1161.53 918.271,1169.89 920.215,1175.42 922.16,1178.68 924.104,1177.84 926.049,1158.63 927.993,879.066 929.938,1174.5 931.882,1194.16 933.827,1200.2 935.771,1203.49 937.716,1205.62 939.66,1206.17 941.605,1194.65 943.549,1141.79 945.494,1203.98 947.438,1210.06 949.383,1212.49 951.327,1213.91 953.272,1214.53 955.216,1212.79 957.161,1178.03 959.105,1179.06 961.049,1209.3 962.994,1213.29 964.938,1213.8 966.883,1212.02 968.827,1205.71 970.772,1182.23 972.716,1012.5 974.661,1155.46 976.605,1203.26 978.55,1213.99 980.494,1217.44 982.439,1218.33 984.383,1217.37 986.328,1212.22 988.272,1067.14 990.217,1230.79 992.161,1224.32 994.106,1219.46 996.05,1212.69 997.995,1200.37 999.939,1172.78 1001.88,1090.94 1003.83,976.23 1005.77,1151.1 1007.72,1193.05 1009.66,1207.26 1011.61,1211.08 1013.55,1208.02 1015.5,1193.5 1017.44,1122.84 1019.38,1183.6 1021.33,1252.94 1023.27,1253.65 1025.22,1251.61 1027.16,1249.97 1029.11,1248.54 1031.05,1245.4 1033,1174.65 1034.94,1226.77 1036.88,1240 1038.83,1242.16 1040.77,1242.69 1042.72,1242.69 1044.66,1242.39 1046.61,1241.83 1048.55,1095.65 1050.5,1239.67 1052.44,1237.68 1054.38,1234.48 1056.33,1228.88 1058.27,1217.91 1060.22,1192.48 1062.16,1115.18 1064.11,980.595 1066.05,1164.94 1068,1206.09 1069.94,1219.29 1071.89,1221.71 1073.83,1215.62 1075.77,1192.25 1077.72,1094.34 1079.66,1091.46 1081.61,1198.23 1083.55,1222.68 1085.5,1229.46 1087.44,1229.02 1089.39,1220.75 1091.33,1190.37 1093.27,1028.41 1095.22,1136.39 1097.16,1203.29 1099.11,1221.16 1101.05,1227.5 1103,1229.73 1104.94,1229.8 1106.89,1227.45 1108.83,1118.64 1110.77,1234.06 1112.72,1229.7 1114.66,1226.35 1116.61,1222.74 1118.55,1218.46 1120.5,1212.95 1122.44,1201.99 1124.39,1127.98 1126.33,1183.48 1128.28,1174.15 1130.22,1158.22 1132.16,1135.35 1134.11,1101.5 1136.05,1045.83 1138,921.032 1139.94,902.346 1141.89,1050.26 1143.83,1115.42 1145.78,1154.75 1147.72,1179.11 1149.66,1190.57 1151.61,1181.16 1153.55,1065.23 1155.5,1183.99 1157.44,1241.16 1159.39,1245.27 1161.33,1236.56 1163.28,1216.33 1165.22,1177.53 1167.16,1099.03 1169.11,738.19 1171.05,1073.8 1173,1152.88 1174.94,1191.35 1176.89,1213.8 1178.83,1227.85 1180.78,1236.09 1182.72,1232.19 1184.67,1134.82 1186.61,1247.04 1188.55,1255.38 1190.5,1258.75 1192.44,1260.39 1194.39,1260.2 1196.33,1255.04 1198.28,1212.85 1200.22,1193.59 1202.17,1259.27 1204.11,1266.65 1206.05,1267.85 1208,1265.91 1209.94,1257.95 1211.89,1229.06 1213.83,1082.94 1215.78,1153.42 1217.72,1229.53 1219.67,1252.5 1221.61,1263.37 1223.55,1270.86 1225.5,1278.75 1227.44,1289.88 1229.39,1041.19 1231.33,1211.71 1233.28,1235.68 1235.22,1241.76 1237.17,1241.97 1239.11,1237.21 1241.06,1223.16 1243,1176.01 1244.94,1008.43 1246.89,1246.89 1248.83,1271.42 1250.78,1272.65 1252.72,1268.73 1254.67,1259.82 1256.61,1237.42 1258.56,1154.13 1260.5,1109.76 1262.44,1235.76 1264.39,1263.13 1266.33,1272.33 1268.28,1276.4 1270.22,1278.4 1272.17,1276.62 1274.11,1203.76 1276.06,1215.55 1278,1254.08 1279.94,1261.87 1281.89,1264.28 1283.83,1264.54 1285.78,1263.01 1287.72,1256.83 1289.67,1123.98 1291.61,1257.03 1293.56,1257.67 1295.5,1251.98 1297.45,1242.14 1299.39,1224.96 1301.33,1191.8 1303.28,1113.81 1305.22,874.075 1307.17,1148.43 1309.11,1212.72 1311.06,1239.95 1313,1251.7 1314.95,1253.75 1316.89,1240.45 1318.83,1159.93 1320.78,1075.26 1322.72,1191.59 1324.67,1211.78 1326.61,1211.04 1328.56,1197.98 1330.5,1170.06 1332.45,1114.3 1334.39,962.838 1336.33,1017.62 1338.28,1134.56 1340.22,1185.45 1342.17,1213.58 1344.11,1230.25 1346.06,1239.9 1348,1242.23 1349.95,1143.12 1351.89,1256.34 1353.84,1262.57 1355.78,1264.32 1357.72,1265.23 1359.67,1265.62 1361.61,1265.49 1363.56,1263.77 1365.5,1145.39 1367.45,1256.52 1369.39,1255.73 1371.34,1250.96 1373.28,1241.88 1375.22,1224.47 1377.17,1187.28 1379.11,1087.62 1381.06,1001.31 1383,1159.49 1384.95,1204.85 1386.89,1221.74 1388.84,1225.39 1390.78,1218.17 1392.73,1191.25 1394.67,1080.36 1396.61,1136.9 1398.56,1235.7 1400.5,1253.5 1402.45,1252.35 1404.39,1241.68 1406.34,1217.61 1408.28,1160.85 1410.23,936.154 1412.17,1118.54 1414.11,1199.84 1416.06,1231.22 1418,1245.82 1419.95,1253.29 1421.89,1257.25 1423.84,1258.53 1425.78,1108.12 1427.73,1255.74 1429.67,1257.52 1431.61,1256.94 1433.56,1255.21 1435.5,1251.95 1437.45,1244.91 1439.39,1217.19 1441.34,1194.54 1443.28,1258.48 1445.23,1255.28 1447.17,1249.85 1449.12,1242.4 1451.06,1230.31 1453,1204.77 1454.95,1110.89 1456.89,1173.41 1458.84,1266.73 1460.78,1271.45 1462.73,1265.41 1464.67,1255.61 1466.62,1238.15 1468.56,1195.1 1470.5,998.364 1472.45,1151.42 1474.39,1219.65 1476.34,1239.21 1478.28,1246.09 1480.23,1248.64 1482.17,1249.57 1484.12,1250.3 1486.06,1032.44 1488,1237.94 1489.95,1239 1491.89,1237.28 1493.84,1234.04 1495.78,1228.15 1497.73,1213.96 1499.67,1156.03 1501.62,1044.74 1503.56,1187.72 1505.51,1209.03 1507.45,1213.93 1509.39,1214.35 1511.34,1212.71 1513.28,1208.39 1515.23,1176.9 1517.17,1170.41 1519.12,1196.76 1521.06,1197.17 1523.01,1194.9 1524.95,1191.78 1526.89,1188.15 1528.84,1183.35 1530.78,1132.93 1532.73,1161.66 1534.67,1165.62 1536.62,1162.11 1538.56,1157.23 1540.51,1151.65 1542.45,1145.55 1544.39,1138.94 1546.34,736.468 1548.28,1124.09 1550.23,1115.76 1552.17,1106.72 1554.12,1096.88 1556.06,1086.11 1558.01,1074.23 1559.95,1059.83 1561.9,1004.23 1563.84,1022.28 1565.78,1003.88 1567.73,979.738 1569.67,948.892 1571.62,907.292 1573.56,844.023 1575.51,708.988 1577.45,701.526 1579.4,841.913 1581.34,906.518 1583.28,948.959 1585.23,980.637 1587.17,1005.99 1589.12,1027.35 1591.06,1042.37 1593.01,1054.26 1594.95,1070.94 1596.9,1083.79 1598.84,1095.04 1600.78,1105.15 1602.73,1114.31 1604.67,1122.66 1606.62,1106.06 1608.56,1136.97 1610.51,1143.23 1612.45,1148.66 1614.4,1153.09 1616.34,1155.84 1618.29,1154.45 1620.23,1132.31 1622.17,1047.14 1624.12,1178.67 1626.06,1186.16 1628.01,1187.66 1629.95,1186.55 1631.9,1180.86 1633.84,1162.33 1635.79,1083.13 1637.73,1089.89 1639.67,1204.86 1641.62,1224.94 1643.56,1229.51 1645.51,1228.43 1647.45,1219.01 1649.4,1183.11 1651.34,1017.04 1653.29,1104.17 1655.23,1183.49 1657.17,1210.63 1659.12,1223.85 1661.06,1231.72 1663.01,1236.99 1664.95,1239.94 1666.9,1089.43 1668.84,1242.93 1670.79,1248.02 1672.73,1250.6 1674.68,1252.5 1676.62,1253.83 1678.56,1253.96 1680.51,1246.72 1682.45,1171.13 1684.4,1259.82 1686.34,1264.25 1688.29,1266.97 1690.23,1270.2 1692.18,1275.03 1694.12,1281.96 1696.06,1232.05 1698.01,1117.44 1699.95,1192.18 1701.9,1203.49 1703.84,1200.37 1705.79,1187.02 1707.73,1159.65 1709.68,1103.97 1711.62,940.093 1713.56,1030.41 1715.51,1141.6 1717.45,1190.87 1719.4,1217.19 1721.34,1231.43 1723.29,1237.47 1725.23,1231.96 1727.18,1047.91 1729.12,1257.55 1731.07,1259.83 1733.01,1256.17 1734.95,1249.7 1736.9,1238.28 1738.84,1215.5 1740.79,1155.5 1742.73,979.647 1744.68,1252.24 1746.62,1305.26 1748.57,1313.48 1750.51,1312.54 1752.45,1309.37 1754.4,1301.19 1756.34,1243.44 1758.29,1171.18 1760.23,1259.89 1762.18,1274.58 1764.12,1278.01 1766.07,1277.16 1768.01,1272.22 1769.96,1256.94 1771.9,1165.62 1773.84,1240.99 1775.79,1281.42 1777.73,1282.45 1779.68,1278.34 1781.62,1270.35 1783.57,1253.57 1785.51,1207 1787.46,945.733 1789.4,1174.76 1791.34,1231.54 1793.29,1246.95 1795.23,1250.54 1797.18,1248.92 1799.12,1242.95 1801.07,1223.83 1803.01,1057.51 1804.96,1217.79 1806.9,1212.77 1808.84,1198.19 1810.79,1176.74 1812.73,1145.11 1814.68,1093.67 1816.62,983.112 1818.57,919.95 1820.51,1091.36 1822.46,1164.34 1824.4,1210.42 1826.35,1242.12 1828.29,1262.47 1830.23,1263.08 1832.18,1153.2 1834.12,1180.79 1836.07,1256 1838.01,1278.55 1839.96,1289.19 1841.9,1295.51 1843.85,1300.3 1845.79,1305.37 1847.73,1193.51 1849.68,1265.18 1851.62,1280.1 1853.57,1282.87 1855.51,1282.56 1857.46,1280.35 1859.4,1275.4 1861.35,1259.57 1863.29,1087.23 1865.23,1277.49 1867.18,1275.25 1869.12,1268.96 1871.07,1259.56 1873.01,1243.47 1874.96,1209.62 1876.9,1113.71 1878.85,1026.03 1880.79,1176.82 1882.74,1214.67 1884.68,1226.4 1886.62,1227.05 1888.57,1218.36 1890.51,1189.7 1892.46,1068.31 1894.4,1098.28 1896.35,1184.34 1898.29,1203.57 1900.24,1207.58 1902.18,1205.89 1904.12,1200.12 1906.07,1185.21 1908.01,1048.78 1909.96,1183.24 1911.9,1191.48 1913.85,1186.76 1915.79,1180.48 1917.74,1173.55 1919.68,1166.04 1921.62,1157.52 1923.57,1130.63 1925.51,1142.99 1927.46,1133.13 1929.4,1122.85 1931.35,1111.85 1933.29,1099.98 1935.24,1087.09 1937.18,1072.73 1939.13,1036.24 1941.07,1033.33 1943.01,1012.83 1944.96,987.173 1946.9,954.78 1948.85,911.307 1950.79,845.021 1952.74,698.483 1954.68,720.566 1956.63,850.319 1958.57,912.069 1960.51,952.813 1962.46,983.198 1964.4,1007.45 1966.35,1027.64 1968.29,1021.25 1970.24,1050.15 1972.18,1067.48 1974.13,1079.74 1976.07,1090.11 1978.01,1098.97 1979.96,1105.9 1981.9,1106.55 1983.85,827.509 1985.79,1131.4 1987.74,1139.9 1989.68,1145.86 1991.63,1151.31 1993.57,1156.43 1995.52,1161.11 1997.46,1161.74 1999.4,1115.41 2001.35,1165.62 2003.29,1172.47 2005.24,1176.53 2007.18,1179.38 2009.13,1180.79 2011.07,1178.41 2013.02,1147.1 2014.96,1189.88 2016.9,1205.48 2018.85,1206.63 2020.79,1207.62 2022.74,1207.93 2024.68,1205.36 2026.63,1188.42 2028.57,1033.4 2030.52,1143.06 2032.46,1192.34 2034.4,1205.75 2036.35,1211.86 2038.29,1215.5 2040.24,1217.99 2042.18,1219.77 2044.13,1045.39 2046.07,1221.68 2048.02,1221.66 2049.96,1220.56 2051.91,1217.47 2053.85,1209.93 2055.79,1189.75 2057.74,1119.74 2059.68,987.536 2061.63,1165.36 2063.57,1200.79 2065.52,1210.99 2067.46,1212.03 2069.41,1206.19 2071.35,1188.06 2073.29,1116.76 2075.24,1196.1 2077.18,1300.81 2079.13,1287.44 2081.07,1277.94 2083.02,1271.8 2084.96,1266.36 2086.91,1256.58 2088.85,1171.06 2090.79,1250.3 2092.74,1265.42 2094.68,1266.19 2096.63,1265.57 2098.57,1264.52 2100.52,1262.99 2102.46,1260.13 2104.41,1099.84 2106.35,1259.97 2108.3,1255.53 2110.24,1249.51 2112.18,1240.14 2114.13,1223.94 2116.07,1192.1 2118.02,1112.43 2119.96,964.209 2121.91,1184.67 2123.85,1247.46 2125.8,1274.13 2127.74,1285.8 2129.68,1286.37 2131.63,1260.09 2133.57,1133.7 2135.52,1079.3 2137.46,1186.51 2139.41,1217.3 2141.35,1228.99 2143.3,1230.37 2145.24,1219.64 2147.19,1180.56 2149.13,1016.57 2151.07,1113.42 2153.02,1199.3 2154.96,1228.33 2156.91,1241.15 2158.85,1247.6 2160.8,1250.95 2162.74,1252.2 2164.69,1160.21 2166.63,1252.5 2168.57,1252.27 2170.52,1250.77 2172.46,1248.38 2174.41,1244.9 2176.35,1239.48 2178.3,1226.06 2180.24,1146.63 2182.19,1220.97 2184.13,1211.98 2186.07,1197.15 2188.02,1175.86 2189.96,1144.01 2191.91,1091.01 2193.85,972.298 2195.8,939.803 2197.74,1095.03 2199.69,1162.06 2201.63,1201.83 2203.58,1225.14 2205.52,1232.78 2207.46,1213.14 2209.41,1081.28 2211.35,1180.05 2213.3,1273.72 2215.24,1300 2217.19,1303.22 2219.13,1286.93 2221.08,1242.96 2223.02,1153.05 2224.96,825.167 2226.91,1094.68 2228.85,1168.78 2230.8,1204.02 2232.74,1225.2 2234.69,1239.71 2236.63,1250.96 2238.58,1259.01 2240.52,1116.57 2242.46,1240.08 2244.41,1252.12 2246.35,1256.76 2248.3,1258.48 2250.24,1257.3 2252.19,1249.77 2254.13,1207.63 2256.08,1210.72 2258.02,1279.46 2259.97,1281.09 2261.91,1278.99 2263.85,1274.55 2265.8,1264.21 2267.74,1233.55 2269.69,1096.08 2271.63,1155.59 2273.58,1237.25 2275.52,1259.86 2277.47,1268.19 2279.41,1270.69 2281.35,1267.74 2283.3,1247.57 2285.24,1022.97 2287.19,1231.18 2289.13,1265.13 2291.08,1272.53 2293.02,1317.59 "/>
<polyline clip-path="url(#clip612)" style="stroke:#e26f46; stroke-linecap:round; stroke-linejoin:round; stroke-width:4; stroke-opacity:1; fill:none" points="301.869,1209.57 303.814,1166.09 305.758,1165.99 307.703,1165.82 309.647,1165.67 311.592,1165.4 313.536,1165.06 315.481,1164.66 317.425,1164.2 319.37,1163.68 321.314,1163.11 323.259,1162.51 325.203,1161.68 327.148,1161 329.092,1160.2 331.036,1159.35 332.981,1158.45 334.925,1157.51 336.87,1156.57 338.814,1156.05 340.759,1153.49 342.703,1152.68 344.648,1151.52 346.592,1150.29 348.537,1149.01 350.481,1147.76 352.426,1146.77 354.37,1151.74 356.315,1141 358.259,1140.14 360.204,1138.64 362.148,1136.92 364.093,1135.05 366.037,1132.95 367.982,1130.17 369.926,1148.41 371.871,1129.46 373.815,1126.7 375.76,1124.35 377.704,1122.07 379.649,1119.78 381.593,1117.46 383.538,1115.14 385.482,1112.43 387.427,1110.13 389.371,1107.63 391.316,1105.06 393.26,1102.43 395.204,1099.75 397.149,1097 399.093,1094.23 401.038,1091.2 402.982,1088.29 404.927,1085.27 406.871,1082.17 408.816,1079 410.76,1075.74 412.705,1072.38 414.649,1068.57 416.594,1065.61 418.538,1061.97 420.483,1058.26 422.427,1054.46 424.372,1050.55 426.316,1046.54 428.261,1042.4 430.205,1038.07 432.15,1033.74 434.094,1029.2 436.039,1024.51 437.983,1019.66 439.928,1014.63 441.872,1009.42 443.817,1004 445.761,998.348 447.706,992.478 449.65,986.339 451.595,979.913 453.539,973.168 455.484,966.071 457.428,958.572 459.372,950.545 461.317,942.432 463.261,933.381 465.206,923.754 467.15,913.392 469.095,902.16 471.039,889.896 472.984,876.405 474.928,861.882 476.873,843.799 478.817,824.212 480.762,800.965 482.706,772.518 484.651,735.847 486.595,684.088 488.54,594.966 490.484,160.256 492.429,601.974 494.373,686.705 496.318,736.609 498.262,772.062 500.207,799.552 502.151,821.991 504.096,840.947 506.04,857.231 507.985,871.708 509.929,884.591 511.874,896.219 513.818,906.812 515.763,916.537 517.707,925.522 519.651,933.864 521.596,941.677 523.54,948.977 525.485,955.851 527.429,962.34 529.374,968.483 531.318,974.315 533.263,979.862 535.207,985.119 537.152,990.239 539.096,995.074 541.041,999.716 542.985,1004.18 544.93,1008.47 546.874,1012.6 548.819,1016.58 550.763,1020.4 552.708,1024.15 554.652,1027.75 556.597,1031.23 558.541,1034.61 560.486,1037.89 562.43,1041.08 564.375,1044.18 566.319,1047.1 568.264,1050.08 570.208,1052.94 572.153,1055.72 574.097,1058.44 576.042,1061.09 577.986,1063.69 579.931,1066.32 581.875,1068.32 583.819,1070.92 585.764,1073.3 587.708,1075.61 589.653,1077.87 591.597,1080.06 593.542,1082.17 595.486,1083.01 597.431,1086.41 599.375,1088.54 601.32,1090.56 603.264,1092.54 605.209,1094.5 607.153,1096.46 609.098,1098.54 611.042,1115.65 612.987,1101.24 614.931,1103.25 616.876,1105.08 618.82,1106.84 620.765,1108.58 622.709,1110.33 624.654,1112.29 626.598,1110.97 628.543,1114.49 630.487,1116.22 632.432,1117.8 634.376,1119.33 636.321,1120.82 638.265,1122.25 640.21,1123.45 642.154,1125.68 644.098,1126.81 646.043,1128.15 647.987,1129.51 649.932,1130.87 651.876,1132.23 653.821,1133.63 655.765,1135.42 657.71,1135.44 659.654,1137.02 661.599,1138.34 663.543,1139.6 665.488,1140.83 667.432,1142.04 669.377,1143.22 671.321,1143.89 673.266,1145.62 675.21,1146.75 677.155,1147.88 679.099,1149 681.044,1150.11 682.988,1151.2 684.933,1152.28 686.877,1153.4 688.822,1154.43 690.766,1155.47 692.711,1156.51 694.655,1157.53 696.6,1158.54 698.544,1159.55 700.489,1160.52 702.433,1161.44 704.378,1162.47 706.322,1163.43 708.266,1164.37 710.211,1165.28 712.155,1166.14 714.1,1166.85 716.044,1165.09 717.989,1169.47 719.933,1170.31 721.878,1171.16 723.822,1172.03 725.767,1172.93 727.711,1173.87 729.656,1174.95 731.6,1180.71 733.545,1175.54 735.489,1176.68 737.434,1177.6 739.378,1178.45 741.323,1179.26 743.267,1180.02 745.212,1180.59 747.156,1183.82 749.101,1182.93 751.045,1183.57 752.99,1184.29 754.934,1185.02 756.879,1185.73 758.823,1186.38 760.768,1186.57 762.712,1188.57 764.657,1189.1 766.601,1189.75 768.546,1190.44 770.49,1191.15 772.434,1191.84 774.379,1192.53 776.323,1193.01 778.268,1194.08 780.212,1194.73 782.157,1195.42 784.101,1196.1 786.046,1196.78 787.99,1197.47 789.935,1198.15 791.879,1198.55 793.824,1199.41 795.768,1200.11 797.713,1200.77 799.657,1201.43 801.602,1202.08 803.546,1202.73 805.491,1203.38 807.435,1203.33 809.38,1204.61 811.324,1205.26 813.269,1205.89 815.213,1206.51 817.158,1207.13 819.102,1207.75 821.047,1208.36 822.991,1208.9 824.936,1209.55 826.88,1210.15 828.825,1210.74 830.769,1211.32 832.713,1211.87 834.658,1212.25 836.602,1208.86 838.547,1211.39 840.491,1213.85 842.436,1214.64 844.38,1215.28 846.325,1215.87 848.269,1216.42 850.214,1216.75 852.158,1193.6 854.103,1216.66 856.047,1218.23 857.992,1218.97 859.936,1219.58 861.881,1220.17 863.825,1220.73 865.77,1221.31 867.714,1221.06 869.659,1222.26 871.603,1222.81 873.548,1223.34 875.492,1223.87 877.437,1224.38 879.381,1224.88 881.326,1225.3 883.27,1225.73 885.215,1226.44 887.159,1226.95 889.104,1227.45 891.048,1227.95 892.993,1228.46 894.937,1228.96 896.881,1229.15 898.826,1229.08 900.77,1230.13 902.715,1230.68 904.659,1231.19 906.604,1231.67 908.548,1232.14 910.493,1232.59 912.437,1232.7 914.382,1233.61 916.326,1234.04 918.271,1234.48 920.215,1234.92 922.16,1235.36 924.104,1235.8 926.049,1236.22 927.993,1236.9 929.938,1237.11 931.882,1237.51 933.827,1237.91 935.771,1238.3 937.716,1238.65 939.66,1238.92 941.605,1238.72 943.549,1239.96 945.494,1240.57 947.438,1240.77 949.383,1240.95 951.327,1241 953.272,1240.69 955.216,1238.99 957.161,1220.69 959.105,1236.76 961.049,1244.93 962.994,1245.6 964.938,1245.99 966.883,1246.39 968.827,1246.87 970.772,1247.49 972.716,1242.63 974.661,1244.88 976.605,1246.83 978.55,1247.56 980.494,1248.08 982.439,1248.54 984.383,1248.95 986.328,1249.31 988.272,1252.82 990.217,1250.29 992.161,1250.64 994.106,1251.02 996.05,1251.4 997.995,1251.8 999.939,1252.23 1001.88,1252.81 1003.83,1250.95 1005.77,1252.77 1007.72,1253.24 1009.66,1253.59 1011.61,1253.87 1013.55,1254.04 1015.5,1253.88 1017.44,1250.43 1019.38,1256.71 1021.33,1256.94 1023.27,1257.06 1025.22,1257.31 1027.16,1257.6 1029.11,1257.93 1031.05,1258.33 1033,1259.2 1034.94,1258.47 1036.88,1258.99 1038.83,1259.37 1040.77,1259.72 1042.72,1260.06 1044.66,1260.4 1046.61,1260.73 1048.55,1261.78 1050.5,1261.39 1052.44,1261.71 1054.38,1262.03 1056.33,1262.33 1058.27,1262.63 1060.22,1262.88 1062.16,1262.96 1064.11,1264.33 1066.05,1264.15 1068,1264.35 1069.94,1264.58 1071.89,1264.78 1073.83,1264.88 1075.77,1264.61 1077.72,1260.42 1079.66,1264.89 1081.61,1267.15 1083.55,1267.42 1085.5,1267.67 1087.44,1267.94 1089.39,1268.22 1091.33,1268.5 1093.27,1267.79 1095.22,1268.8 1097.16,1269.32 1099.11,1269.67 1101.05,1270.01 1103,1270.36 1104.94,1270.77 1106.89,1271.39 1108.83,1295.3 1110.77,1270.61 1112.72,1271.25 1114.66,1271.65 1116.61,1271.99 1118.55,1272.29 1120.5,1272.57 1122.44,1272.77 1124.39,1273.78 1126.33,1273.59 1128.28,1273.8 1130.22,1274.03 1132.16,1274.23 1134.11,1274.36 1136.05,1274.27 1138,1272.58 1139.94,1277.98 1141.89,1276.93 1143.83,1276.9 1145.78,1277.07 1147.72,1277.32 1149.66,1277.65 1151.61,1278.13 1153.55,1279.23 1155.5,1276.51 1157.44,1277.72 1159.39,1278.2 1161.33,1278.55 1163.28,1278.86 1165.22,1279.15 1167.16,1279.43 1169.11,1279.3 1171.05,1280.02 1173,1280.28 1174.94,1280.54 1176.89,1280.8 1178.83,1281.05 1180.78,1281.3 1182.72,1281.5 1184.67,1282.04 1186.61,1282.15 1188.55,1282.38 1190.5,1282.61 1192.44,1282.84 1194.39,1283.02 1196.33,1283.01 1198.28,1280 1200.22,1274.89 1202.17,1282.86 1204.11,1283.67 1206.05,1284.02 1208,1284.21 1209.94,1284.2 1211.89,1283.57 1213.83,1272.84 1215.78,1286.22 1217.72,1286.88 1219.67,1287.01 1221.61,1287.2 1223.55,1287.47 1225.5,1287.87 1227.44,1288.66 1229.39,1302.75 1231.33,1286.27 1233.28,1287.25 1235.22,1287.67 1237.17,1287.94 1239.11,1288.12 1241.06,1288.15 1243,1287.58 1244.94,1296.93 1246.89,1290.65 1248.83,1290.38 1250.78,1290.43 1252.72,1290.55 1254.67,1290.71 1256.61,1290.86 1258.56,1290.95 1260.5,1291.56 1262.44,1291.58 1264.39,1291.75 1266.33,1291.94 1268.28,1292.13 1270.22,1292.31 1272.17,1292.49 1274.11,1292.61 1276.06,1292.96 1278,1293.11 1279.94,1293.28 1281.89,1293.45 1283.83,1293.63 1285.78,1293.8 1287.72,1293.99 1289.67,1292.21 1291.61,1293.9 1293.56,1294.14 1295.5,1294.24 1297.45,1294.3 1299.39,1294.3 1301.33,1294.24 1303.28,1294.08 1305.22,1293.67 1307.17,1293.23 1309.11,1292.33 1311.06,1290.72 1313,1287.66 1314.95,1281.04 1316.89,1263.19 1318.83,1190.77 1320.78,1133.98 1322.72,1261.08 1324.67,1285.35 1326.61,1293.09 1328.56,1296.42 1330.5,1298.06 1332.45,1297.97 1334.39,1269.14 1336.33,1274.11 1338.28,1293.48 1340.22,1296.83 1342.17,1298.21 1344.11,1299.01 1346.06,1299.55 1348,1299.92 1349.95,1299.17 1351.89,1300.98 1353.84,1301.15 1355.78,1301.38 1357.72,1301.61 1359.67,1301.82 1361.61,1302 1363.56,1302.1 1365.5,1304.43 1367.45,1302.94 1369.39,1303.06 1371.34,1303.23 1373.28,1303.41 1375.22,1303.6 1377.17,1303.8 1379.11,1304.05 1381.06,1303.75 1383,1304.19 1384.95,1304.38 1386.89,1304.53 1388.84,1304.63 1390.78,1304.62 1392.73,1304.15 1394.67,1296.49 1396.61,1302.5 1398.56,1305.71 1400.5,1306.1 1402.45,1306.32 1404.39,1306.5 1406.34,1306.68 1408.28,1306.87 1410.23,1307.06 1412.17,1307.17 1414.11,1307.36 1416.06,1307.54 1418,1307.72 1419.95,1307.89 1421.89,1308.07 1423.84,1308.25 1425.78,1306.46 1427.73,1308.54 1429.67,1308.72 1431.61,1308.88 1433.56,1309.02 1435.5,1309.09 1437.45,1308.87 1439.39,1305.44 1441.34,1285.64 1443.28,1307.92 1445.23,1309.27 1447.17,1309.75 1449.12,1310.03 1451.06,1310.2 1453,1310.18 1454.95,1307.12 1456.89,1308.27 1458.84,1310.73 1460.78,1311.12 1462.73,1311.35 1464.67,1311.55 1466.62,1311.72 1468.56,1311.88 1470.5,1311.67 1472.45,1312.25 1474.39,1312.42 1476.34,1312.58 1478.28,1312.75 1480.23,1312.91 1482.17,1313.08 1484.12,1313.25 1486.06,1312.43 1488,1313.52 1489.95,1313.69 1491.89,1313.86 1493.84,1314.02 1495.78,1314.19 1497.73,1314.37 1499.67,1314.59 1501.62,1314.35 1503.56,1314.76 1505.51,1314.96 1507.45,1315.15 1509.39,1315.35 1511.34,1315.57 1513.28,1315.84 1515.23,1315.68 1517.17,1312.59 1519.12,1315.13 1521.06,1315.62 1523.01,1315.9 1524.95,1316.12 1526.89,1316.31 1528.84,1316.51 1530.78,1316.86 1532.73,1316.68 1534.67,1316.9 1536.62,1317.07 1538.56,1317.23 1540.51,1317.38 1542.45,1317.54 1544.39,1317.69 1546.34,1315.91 1548.28,1318 1550.23,1318.15 1552.17,1318.31 1554.12,1318.48 1556.06,1318.65 1558.01,1318.78 1559.95,1317.92 1561.9,1294.68 1563.84,1316.82 1565.78,1317.97 1567.73,1318.31 1569.67,1318.37 1571.62,1318.08 1573.56,1316.61 1575.51,1300.76 1577.45,1301.5 1579.4,1318.09 1581.34,1319.56 1583.28,1320.04 1585.23,1320.31 1587.17,1320.5 1589.12,1320.67 1591.06,1320.79 1593.01,1320.97 1594.95,1321.12 1596.9,1321.26 1598.84,1321.41 1600.78,1321.56 1602.73,1321.72 1604.67,1321.93 1606.62,1326.97 1608.56,1321.91 1610.51,1322.14 1612.45,1322.32 1614.4,1322.5 1616.34,1322.7 1618.29,1322.98 1620.23,1323.6 1622.17,1319.33 1624.12,1322.45 1626.06,1322.87 1628.01,1323.15 1629.95,1323.42 1631.9,1323.75 1633.84,1324.28 1635.79,1325.67 1637.73,1317.69 1639.67,1322.01 1641.62,1322.74 1643.56,1323.07 1645.51,1323.26 1647.45,1323.35 1649.4,1323.25 1651.34,1320.9 1653.29,1324.89 1655.23,1324.56 1657.17,1324.54 1659.12,1324.57 1661.06,1324.61 1663.01,1324.66 1664.95,1324.71 1666.9,1324.97 1668.84,1324.72 1670.79,1324.71 1672.73,1324.64 1674.68,1324.46 1676.62,1324.02 1678.56,1322.53 1680.51,1312.01 1682.45,1199.49 1684.4,1310.55 1686.34,1315.96 1688.29,1315.38 1690.23,1311.68 1692.18,1302.57 1694.12,1278.04 1696.06,1186.37 1698.01,1153.51 1699.95,1275.42 1701.9,1304.9 1703.84,1315.56 1705.79,1320.47 1707.73,1323.21 1709.68,1325.15 1711.62,1326.83 1713.56,1322.4 1715.51,1325.07 1717.45,1325.9 1719.4,1326.38 1721.34,1326.69 1723.29,1326.87 1725.23,1326.83 1727.18,1320.87 1729.12,1328.42 1731.07,1328.18 1733.01,1328.14 1734.95,1328.12 1736.9,1328.01 1738.84,1327.68 1740.79,1326.29 1742.73,1343.27 1744.68,1331.29 1746.62,1330.48 1748.57,1330.26 1750.51,1330.2 1752.45,1330.24 1754.4,1330.37 1756.34,1330.87 1758.29,1328.66 1760.23,1329.76 1762.18,1329.95 1764.12,1330.01 1766.07,1329.99 1768.01,1329.82 1769.96,1329.15 1771.9,1320.71 1773.84,1330.88 1775.79,1331.5 1777.73,1331.45 1779.68,1331.44 1781.62,1331.46 1783.57,1331.48 1785.51,1331.49 1787.46,1330.09 1789.4,1331.74 1791.34,1331.76 1793.29,1331.8 1795.23,1331.84 1797.18,1331.86 1799.12,1331.82 1801.07,1331.28 1803.01,1300.19 1804.96,1331.53 1806.9,1331.89 1808.84,1331.92 1810.79,1331.81 1812.73,1331.47 1814.68,1330.33 1816.62,1321.89 1818.57,1312.26 1820.51,1331.92 1822.46,1332.78 1824.4,1332.89 1826.35,1332.8 1828.29,1332.51 1830.23,1331.55 1832.18,1322.99 1834.12,1336.24 1836.07,1335.47 1838.01,1335.13 1839.96,1335.03 1841.9,1335.06 1843.85,1335.22 1845.79,1335.7 1847.73,1341.93 1849.68,1333.4 1851.62,1334.23 1853.57,1334.53 1855.51,1334.75 1857.46,1334.96 1859.4,1335.26 1861.35,1335.96 1863.29,1322.47 1865.23,1333.97 1867.18,1334.53 1869.12,1334.79 1871.07,1334.98 1873.01,1335.16 1874.96,1335.37 1876.9,1335.78 1878.85,1332.25 1880.79,1334.77 1882.74,1335.09 1884.68,1335.26 1886.62,1335.38 1888.57,1335.48 1890.51,1335.56 1892.46,1335.6 1894.4,1335.76 1896.35,1335.82 1898.29,1335.89 1900.24,1335.96 1902.18,1336.02 1904.12,1336.07 1906.07,1336.02 1908.01,1328.8 1909.96,1335.79 1911.9,1336.23 1913.85,1336.36 1915.79,1336.44 1917.74,1336.51 1919.68,1336.58 1921.62,1336.66 1923.57,1331.66 1925.51,1336.67 1927.46,1336.75 1929.4,1336.81 1931.35,1336.84 1933.29,1336.85 1935.24,1336.77 1937.18,1336.07 1939.13,1335.43 1941.07,1337.34 1943.01,1337.38 1944.96,1337.4 1946.9,1337.41 1948.85,1337.39 1950.79,1337.29 1952.74,1336.28 1954.68,1338.12 1956.63,1337.99 1958.57,1337.96 1960.51,1337.96 1962.46,1337.98 1964.4,1337.99 1966.35,1337.95 1968.29,1337.03 1970.24,1338.46 1972.18,1338.37 1974.13,1338.37 1976.07,1338.4 1978.01,1338.42 1979.96,1338.44 1981.9,1338.41 1983.85,1334.25 1985.79,1338.77 1987.74,1338.77 1989.68,1338.8 1991.63,1338.85 1993.57,1338.91 1995.52,1339 1997.46,1339.17 1999.4,1336.66 2001.35,1338.65 2003.29,1338.83 2005.24,1338.91 2007.18,1338.95 2009.13,1338.95 2011.07,1338.85 2013.02,1337.62 2014.96,1339.12 2016.9,1339.45 2018.85,1339.46 2020.79,1339.48 2022.74,1339.5 2024.68,1339.52 2026.63,1339.51 2028.57,1338.86 2030.52,1339.73 2032.46,1339.73 2034.4,1339.75 2036.35,1339.76 2038.29,1339.78 2040.24,1339.79 2042.18,1339.78 2044.13,1299.42 2046.07,1339.69 2048.02,1339.57 2049.96,1339.31 2051.91,1338.76 2053.85,1337.42 2055.79,1333.07 2057.74,1306.65 2059.68,1205.64 2061.63,1323.16 2063.57,1334.06 2065.52,1337.02 2067.46,1338.26 2069.41,1338.9 2071.35,1339.29 2073.29,1339.53 2075.24,1339.73 2077.18,1339.88 2079.13,1339.98 2081.07,1340.07 2083.02,1340.14 2084.96,1340.18 2086.91,1340.17 2088.85,1339.27 2090.79,1340.54 2092.74,1340.54 2094.68,1340.56 2096.63,1340.59 2098.57,1340.63 2100.52,1340.68 2102.46,1340.8 2104.41,1347.7 2106.35,1340.33 2108.3,1340.43 2110.24,1340.42 2112.18,1340.35 2114.13,1340.19 2116.07,1339.78 2118.02,1338.1 2119.96,1345.17 2121.91,1342.56 2123.85,1341.92 2125.8,1341.66 2127.74,1341.51 2129.68,1341.36 2131.63,1341.13 2133.57,1340.04 2135.52,1342.71 2137.46,1342.04 2139.41,1341.87 2141.35,1341.81 2143.3,1341.78 2145.24,1341.78 2147.19,1341.81 2149.13,1342.08 2151.07,1341.42 2153.02,1341.56 2154.96,1341.58 2156.91,1341.55 2158.85,1341.49 2160.8,1341.32 2162.74,1340.69 2164.69,1266.83 2166.63,1342.06 2168.57,1342.07 2170.52,1342.01 2172.46,1341.93 2174.41,1341.83 2176.35,1341.58 2178.3,1340.3 2180.24,1324.78 2182.19,1342.1 2184.13,1342.28 2186.07,1342.29 2188.02,1342.3 2189.96,1342.3 2191.91,1342.29 2193.85,1341.89 2195.8,1340.83 2197.74,1342.14 2199.69,1342.27 2201.63,1342.34 2203.58,1342.4 2205.52,1342.5 2207.46,1342.68 2209.41,1343.39 2211.35,1341.24 2213.3,1341.95 2215.24,1342.14 2217.19,1342.25 2219.13,1342.37 2221.08,1342.54 2223.02,1342.98 2224.96,1352.94 2226.91,1341 2228.85,1341.55 2230.8,1341.71 2232.74,1341.75 2234.69,1341.73 2236.63,1341.61 2238.58,1341.14 2240.52,1346.83 2242.46,1342.64 2244.41,1342.31 2246.35,1342.13 2248.3,1341.96 2250.24,1341.71 2252.19,1341.18 2254.13,1338.58 2256.08,1345.18 2258.02,1343.6 2259.97,1343.1 2261.91,1342.85 2263.85,1342.66 2265.8,1342.43 2267.74,1341.92 2269.69,1337.06 2271.63,1343.26 2273.58,1343.22 2275.52,1343.08 2277.47,1342.98 2279.41,1342.91 2281.35,1342.82 2283.3,1342.59 2285.24,1328.91 2287.19,1342.89 2289.13,1342.96 2291.08,1342.96 2293.02,1386.4 "/>
<path clip-path="url(#clip610)" d="M1957.31 322.316 L2282.4 322.316 L2282.4 166.796 L1957.31 166.796  Z" fill="#ffffff" fill-rule="evenodd" fill-opacity="1"/>
<polyline clip-path="url(#clip610)" style="stroke:#000000; stroke-linecap:round; stroke-linejoin:round; stroke-width:4; stroke-opacity:1; fill:none" points="1957.31,322.316 2282.4,322.316 2282.4,166.796 1957.31,166.796 1957.31,322.316 "/>
<polyline clip-path="url(#clip610)" style="stroke:#009af9; stroke-linecap:round; stroke-linejoin:round; stroke-width:4; stroke-opacity:1; fill:none" points="1980.76,218.636 2121.47,218.636 "/>
<path clip-path="url(#clip610)" d="M2146.38 201.356 L2164.74 201.356 L2164.74 205.291 L2150.66 205.291 L2150.66 213.763 Q2151.68 213.416 2152.7 213.254 Q2153.72 213.069 2154.74 213.069 Q2160.53 213.069 2163.9 216.24 Q2167.28 219.411 2167.28 224.828 Q2167.28 230.406 2163.81 233.508 Q2160.34 236.587 2154.02 236.587 Q2151.84 236.587 2149.58 236.217 Q2147.33 235.846 2144.92 235.106 L2144.92 230.406 Q2147.01 231.541 2149.23 232.096 Q2151.45 232.652 2153.93 232.652 Q2157.93 232.652 2160.27 230.545 Q2162.61 228.439 2162.61 224.828 Q2162.61 221.217 2160.27 219.11 Q2157.93 217.004 2153.93 217.004 Q2152.05 217.004 2150.18 217.42 Q2148.33 217.837 2146.38 218.717 L2146.38 201.356 Z" fill="#000000" fill-rule="nonzero" fill-opacity="1" /><path clip-path="url(#clip610)" d="M2186.5 204.434 Q2182.89 204.434 2181.06 207.999 Q2179.25 211.541 2179.25 218.67 Q2179.25 225.777 2181.06 229.342 Q2182.89 232.883 2186.5 232.883 Q2190.13 232.883 2191.94 229.342 Q2193.77 225.777 2193.77 218.67 Q2193.77 211.541 2191.94 207.999 Q2190.13 204.434 2186.5 204.434 M2186.5 200.731 Q2192.31 200.731 2195.36 205.337 Q2198.44 209.92 2198.44 218.67 Q2198.44 227.397 2195.36 232.004 Q2192.31 236.587 2186.5 236.587 Q2180.69 236.587 2177.61 232.004 Q2174.55 227.397 2174.55 218.67 Q2174.55 209.92 2177.61 205.337 Q2180.69 200.731 2186.5 200.731 Z" fill="#000000" fill-rule="nonzero" fill-opacity="1" /><polyline clip-path="url(#clip610)" style="stroke:#e26f46; stroke-linecap:round; stroke-linejoin:round; stroke-width:4; stroke-opacity:1; fill:none" points="1980.76,270.476 2121.47,270.476 "/>
<path clip-path="url(#clip610)" d="M2150.55 283.821 L2166.87 283.821 L2166.87 287.756 L2144.92 287.756 L2144.92 283.821 Q2147.59 281.066 2152.17 276.436 Q2156.78 271.784 2157.96 270.441 Q2160.2 267.918 2161.08 266.182 Q2161.98 264.423 2161.98 262.733 Q2161.98 259.978 2160.04 258.242 Q2158.12 256.506 2155.02 256.506 Q2152.82 256.506 2150.36 257.27 Q2147.93 258.034 2145.15 259.585 L2145.15 254.862 Q2147.98 253.728 2150.43 253.149 Q2152.89 252.571 2154.92 252.571 Q2160.29 252.571 2163.49 255.256 Q2166.68 257.941 2166.68 262.432 Q2166.68 264.561 2165.87 266.483 Q2165.09 268.381 2162.98 270.973 Q2162.4 271.645 2159.3 274.862 Q2156.2 278.057 2150.55 283.821 Z" fill="#000000" fill-rule="nonzero" fill-opacity="1" /><path clip-path="url(#clip610)" d="M2186.68 256.274 Q2183.07 256.274 2181.24 259.839 Q2179.44 263.381 2179.44 270.51 Q2179.44 277.617 2181.24 281.182 Q2183.07 284.723 2186.68 284.723 Q2190.32 284.723 2192.12 281.182 Q2193.95 277.617 2193.95 270.51 Q2193.95 263.381 2192.12 259.839 Q2190.32 256.274 2186.68 256.274 M2186.68 252.571 Q2192.49 252.571 2195.55 257.177 Q2198.63 261.76 2198.63 270.51 Q2198.63 279.237 2195.55 283.844 Q2192.49 288.427 2186.68 288.427 Q2180.87 288.427 2177.79 283.844 Q2174.74 279.237 2174.74 270.51 Q2174.74 261.76 2177.79 257.177 Q2180.87 252.571 2186.68 252.571 Z" fill="#000000" fill-rule="nonzero" fill-opacity="1" /><path clip-path="url(#clip610)" d="M2216.84 256.274 Q2213.23 256.274 2211.4 259.839 Q2209.6 263.381 2209.6 270.51 Q2209.6 277.617 2211.4 281.182 Q2213.23 284.723 2216.84 284.723 Q2220.48 284.723 2222.28 281.182 Q2224.11 277.617 2224.11 270.51 Q2224.11 263.381 2222.28 259.839 Q2220.48 256.274 2216.84 256.274 M2216.84 252.571 Q2222.65 252.571 2225.71 257.177 Q2228.79 261.76 2228.79 270.51 Q2228.79 279.237 2225.71 283.844 Q2222.65 288.427 2216.84 288.427 Q2211.03 288.427 2207.96 283.844 Q2204.9 279.237 2204.9 270.51 Q2204.9 261.76 2207.96 257.177 Q2211.03 252.571 2216.84 252.571 Z" fill="#000000" fill-rule="nonzero" fill-opacity="1" /><path clip-path="url(#clip610)" d="M2247.01 256.274 Q2243.4 256.274 2241.57 259.839 Q2239.76 263.381 2239.76 270.51 Q2239.76 277.617 2241.57 281.182 Q2243.4 284.723 2247.01 284.723 Q2250.64 284.723 2252.45 281.182 Q2254.27 277.617 2254.27 270.51 Q2254.27 263.381 2252.45 259.839 Q2250.64 256.274 2247.01 256.274 M2247.01 252.571 Q2252.82 252.571 2255.87 257.177 Q2258.95 261.76 2258.95 270.51 Q2258.95 279.237 2255.87 283.844 Q2252.82 288.427 2247.01 288.427 Q2241.2 288.427 2238.12 283.844 Q2235.06 279.237 2235.06 270.51 Q2235.06 261.76 2238.12 257.177 Q2241.2 252.571 2247.01 252.571 Z" fill="#000000" fill-rule="nonzero" fill-opacity="1" /></svg>
